<svg id="visual" viewBox="0 0 675 900" width="675" height="900" xmlns="http://www.w3.org/2000/svg" xmlns:xlink="http://www.w3.org/1999/xlink" version="1.1"><g stroke-width="1" stroke-linejoin="bevel"><path d="M359 441L305 414L345 502Z" fill="#4a1218" stroke="#4a1218"></path><path d="M305 414L250 492L345 502Z" fill="#761320" stroke="#761320"></path><path d="M305 414L244 431L250 492Z" fill="#67131d" stroke="#67131d"></path><path d="M250 492L295 542L345 502Z" fill="#951223" stroke="#951223"></path><path d="M359 441L311 357L305 414Z" fill="#951223" stroke="#951223"></path><path d="M305 414L221 372L244 431Z" fill="#b41025" stroke="#b41025"></path><path d="M345 502L421 452L359 441Z" fill="#951223" stroke="#951223"></path><path d="M359 441L367 338L311 357Z" fill="#59131b" stroke="#59131b"></path><path d="M425 500L421 452L345 502Z" fill="#951223" stroke="#951223"></path><path d="M367 615L425 500L345 502Z" fill="#e30e24" stroke="#e30e24"></path><path d="M253 586L300 585L295 542Z" fill="#b41025" stroke="#b41025"></path><path d="M295 542L300 585L345 502Z" fill="#59131b" stroke="#59131b"></path><path d="M311 357L221 372L305 414Z" fill="#e30e24" stroke="#e30e24"></path><path d="M244 431L144 428L250 492Z" fill="#861321" stroke="#861321"></path><path d="M436 396L367 338L359 441Z" fill="#d30e25" stroke="#d30e25"></path><path d="M311 357L231 304L221 372Z" fill="#d30e25" stroke="#d30e25"></path><path d="M250 492L253 586L295 542Z" fill="#951223" stroke="#951223"></path><path d="M142 534L253 586L250 492Z" fill="#4a1218" stroke="#4a1218"></path><path d="M514 463L436 396L421 452Z" fill="#e30e24" stroke="#e30e24"></path><path d="M421 452L436 396L359 441Z" fill="#951223" stroke="#951223"></path><path d="M367 338L312 319L311 357Z" fill="#67131d" stroke="#67131d"></path><path d="M337 639L367 615L300 585Z" fill="#4a1218" stroke="#4a1218"></path><path d="M300 585L367 615L345 502Z" fill="#951223" stroke="#951223"></path><path d="M221 372L144 428L244 431Z" fill="#a41124" stroke="#a41124"></path><path d="M268 635L337 639L300 585Z" fill="#c40f25" stroke="#c40f25"></path><path d="M183 629L268 635L253 586Z" fill="#951223" stroke="#951223"></path><path d="M253 586L268 635L300 585Z" fill="#861321" stroke="#861321"></path><path d="M312 319L231 304L311 357Z" fill="#d30e25" stroke="#d30e25"></path><path d="M221 372L127 391L144 428Z" fill="#761320" stroke="#761320"></path><path d="M144 428L142 534L250 492Z" fill="#951223" stroke="#951223"></path><path d="M464 637L437 604L367 615Z" fill="#a41124" stroke="#a41124"></path><path d="M367 615L437 604L425 500Z" fill="#c40f25" stroke="#c40f25"></path><path d="M425 500L514 463L421 452Z" fill="#67131d" stroke="#67131d"></path><path d="M459 316L397 284L367 338Z" fill="#b41025" stroke="#b41025"></path><path d="M367 338L397 284L312 319Z" fill="#4a1218" stroke="#4a1218"></path><path d="M312 319L319 248L231 304Z" fill="#e30e24" stroke="#e30e24"></path><path d="M528 499L514 463L425 500Z" fill="#761320" stroke="#761320"></path><path d="M436 396L459 316L367 338Z" fill="#d30e25" stroke="#d30e25"></path><path d="M157 262L127 391L221 372Z" fill="#b41025" stroke="#b41025"></path><path d="M64 474L83 546L142 534Z" fill="#67131d" stroke="#67131d"></path><path d="M530 319L459 316L436 396Z" fill="#59131b" stroke="#59131b"></path><path d="M142 534L183 629L253 586Z" fill="#761320" stroke="#761320"></path><path d="M397 284L319 248L312 319Z" fill="#951223" stroke="#951223"></path><path d="M532 568L528 499L425 500Z" fill="#c40f25" stroke="#c40f25"></path><path d="M514 463L546 414L436 396Z" fill="#b41025" stroke="#b41025"></path><path d="M342 721L464 637L367 615Z" fill="#951223" stroke="#951223"></path><path d="M437 604L532 568L425 500Z" fill="#d30e25" stroke="#d30e25"></path><path d="M183 629L223 674L268 635Z" fill="#861321" stroke="#861321"></path><path d="M268 635L342 721L337 639Z" fill="#951223" stroke="#951223"></path><path d="M337 639L342 721L367 615Z" fill="#59131b" stroke="#59131b"></path><path d="M530 319L439 262L459 316Z" fill="#67131d" stroke="#67131d"></path><path d="M459 316L439 262L397 284Z" fill="#861321" stroke="#861321"></path><path d="M397 284L393 231L319 248Z" fill="#d30e25" stroke="#d30e25"></path><path d="M560 463L546 414L514 463Z" fill="#a41124" stroke="#a41124"></path><path d="M464 637L532 568L437 604Z" fill="#4a1218" stroke="#4a1218"></path><path d="M528 499L560 463L514 463Z" fill="#861321" stroke="#861321"></path><path d="M439 262L393 231L397 284Z" fill="#67131d" stroke="#67131d"></path><path d="M600 504L560 463L528 499Z" fill="#b41025" stroke="#b41025"></path><path d="M64 474L142 534L144 428Z" fill="#d30e25" stroke="#d30e25"></path><path d="M142 534L63 622L183 629Z" fill="#67131d" stroke="#67131d"></path><path d="M183 629L143 679L223 674Z" fill="#d30e25" stroke="#d30e25"></path><path d="M74 382L64 474L144 428Z" fill="#761320" stroke="#761320"></path><path d="M290 177L239 221L319 248Z" fill="#d30e25" stroke="#d30e25"></path><path d="M319 248L239 221L231 304Z" fill="#761320" stroke="#761320"></path><path d="M87 323L74 382L127 391Z" fill="#951223" stroke="#951223"></path><path d="M127 391L74 382L144 428Z" fill="#951223" stroke="#951223"></path><path d="M157 262L221 372L231 304Z" fill="#67131d" stroke="#67131d"></path><path d="M239 221L157 262L231 304Z" fill="#951223" stroke="#951223"></path><path d="M546 414L530 319L436 396Z" fill="#c40f25" stroke="#c40f25"></path><path d="M439 262L426 173L393 231Z" fill="#d30e25" stroke="#d30e25"></path><path d="M578 389L530 319L546 414Z" fill="#e30e24" stroke="#e30e24"></path><path d="M223 674L342 721L268 635Z" fill="#c40f25" stroke="#c40f25"></path><path d="M157 262L87 323L127 391Z" fill="#d30e25" stroke="#d30e25"></path><path d="M560 463L578 389L546 414Z" fill="#b41025" stroke="#b41025"></path><path d="M63 622L143 679L183 629Z" fill="#67131d" stroke="#67131d"></path><path d="M223 674L283 786L342 721Z" fill="#861321" stroke="#861321"></path><path d="M393 231L290 177L319 248Z" fill="#4a1218" stroke="#4a1218"></path><path d="M239 221L151 221L157 262Z" fill="#59131b" stroke="#59131b"></path><path d="M532 568L600 504L528 499Z" fill="#59131b" stroke="#59131b"></path><path d="M560 463L675 485L578 389Z" fill="#e30e24" stroke="#e30e24"></path><path d="M566 607L600 504L532 568Z" fill="#e30e24" stroke="#e30e24"></path><path d="M533 658L532 568L464 637Z" fill="#d30e25" stroke="#d30e25"></path><path d="M533 658L566 607L532 568Z" fill="#951223" stroke="#951223"></path><path d="M253 155L151 221L239 221Z" fill="#59131b" stroke="#59131b"></path><path d="M157 262L56 204L87 323Z" fill="#a41124" stroke="#a41124"></path><path d="M464 743L533 658L464 637Z" fill="#c40f25" stroke="#c40f25"></path><path d="M83 546L63 622L142 534Z" fill="#b41025" stroke="#b41025"></path><path d="M44 637L63 622L0 598Z" fill="#b41025" stroke="#b41025"></path><path d="M534 205L426 173L439 262Z" fill="#951223" stroke="#951223"></path><path d="M393 231L394 152L290 177Z" fill="#a41124" stroke="#a41124"></path><path d="M264 92L253 155L290 177Z" fill="#761320" stroke="#761320"></path><path d="M290 177L253 155L239 221Z" fill="#a41124" stroke="#a41124"></path><path d="M0 397L64 474L74 382Z" fill="#4a1218" stroke="#4a1218"></path><path d="M0 397L0 460L64 474Z" fill="#c40f25" stroke="#c40f25"></path><path d="M64 474L0 531L83 546Z" fill="#c40f25" stroke="#c40f25"></path><path d="M0 397L74 382L0 326Z" fill="#761320" stroke="#761320"></path><path d="M342 721L464 743L464 637Z" fill="#c40f25" stroke="#c40f25"></path><path d="M426 173L394 152L393 231Z" fill="#b41025" stroke="#b41025"></path><path d="M0 326L74 382L87 323Z" fill="#d30e25" stroke="#d30e25"></path><path d="M0 598L63 622L83 546Z" fill="#951223" stroke="#951223"></path><path d="M63 622L44 637L143 679Z" fill="#951223" stroke="#951223"></path><path d="M0 460L0 531L64 474Z" fill="#d30e25" stroke="#d30e25"></path><path d="M153 755L223 674L143 679Z" fill="#c40f25" stroke="#c40f25"></path><path d="M201 780L283 786L223 674Z" fill="#4a1218" stroke="#4a1218"></path><path d="M342 721L405 804L464 743Z" fill="#4a1218" stroke="#4a1218"></path><path d="M96 760L153 755L143 679Z" fill="#d30e25" stroke="#d30e25"></path><path d="M153 755L201 780L223 674Z" fill="#761320" stroke="#761320"></path><path d="M598 265L534 205L530 319Z" fill="#c40f25" stroke="#c40f25"></path><path d="M530 319L534 205L439 262Z" fill="#a41124" stroke="#a41124"></path><path d="M426 173L488 137L394 152Z" fill="#761320" stroke="#761320"></path><path d="M166 107L116 188L151 221Z" fill="#a41124" stroke="#a41124"></path><path d="M151 221L56 204L157 262Z" fill="#59131b" stroke="#59131b"></path><path d="M0 531L0 598L83 546Z" fill="#67131d" stroke="#67131d"></path><path d="M44 637L96 760L143 679Z" fill="#67131d" stroke="#67131d"></path><path d="M56 204L0 326L87 323Z" fill="#c40f25" stroke="#c40f25"></path><path d="M578 389L598 265L530 319Z" fill="#67131d" stroke="#67131d"></path><path d="M675 338L598 265L578 389Z" fill="#59131b" stroke="#59131b"></path><path d="M333 823L342 721L283 786Z" fill="#761320" stroke="#761320"></path><path d="M333 823L405 804L342 721Z" fill="#59131b" stroke="#59131b"></path><path d="M180 848L230 806L201 780Z" fill="#c40f25" stroke="#c40f25"></path><path d="M201 780L230 806L283 786Z" fill="#c40f25" stroke="#c40f25"></path><path d="M287 900L333 823L283 786Z" fill="#c40f25" stroke="#c40f25"></path><path d="M675 564L675 485L600 504Z" fill="#4a1218" stroke="#4a1218"></path><path d="M600 504L675 485L560 463Z" fill="#c40f25" stroke="#c40f25"></path><path d="M675 564L600 504L566 607Z" fill="#861321" stroke="#861321"></path><path d="M632 673L566 607L533 658Z" fill="#761320" stroke="#761320"></path><path d="M116 188L56 204L151 221Z" fill="#951223" stroke="#951223"></path><path d="M0 695L96 760L44 637Z" fill="#951223" stroke="#951223"></path><path d="M153 755L180 848L201 780Z" fill="#4a1218" stroke="#4a1218"></path><path d="M612 144L488 137L534 205Z" fill="#c40f25" stroke="#c40f25"></path><path d="M534 205L488 137L426 173Z" fill="#a41124" stroke="#a41124"></path><path d="M394 152L264 92L290 177Z" fill="#a41124" stroke="#a41124"></path><path d="M554 834L550 749L464 743Z" fill="#951223" stroke="#951223"></path><path d="M464 743L550 749L533 658Z" fill="#d30e25" stroke="#d30e25"></path><path d="M411 900L431 818L405 804Z" fill="#c40f25" stroke="#c40f25"></path><path d="M405 804L431 818L464 743Z" fill="#a41124" stroke="#a41124"></path><path d="M401 72L264 92L394 152Z" fill="#761320" stroke="#761320"></path><path d="M253 155L166 107L151 221Z" fill="#951223" stroke="#951223"></path><path d="M116 188L57 110L56 204Z" fill="#59131b" stroke="#59131b"></path><path d="M675 599L675 564L566 607Z" fill="#59131b" stroke="#59131b"></path><path d="M550 749L581 730L533 658Z" fill="#861321" stroke="#861321"></path><path d="M581 730L632 673L533 658Z" fill="#59131b" stroke="#59131b"></path><path d="M675 485L675 338L578 389Z" fill="#951223" stroke="#951223"></path><path d="M598 265L627 196L534 205Z" fill="#4a1218" stroke="#4a1218"></path><path d="M632 673L675 599L566 607Z" fill="#c40f25" stroke="#c40f25"></path><path d="M264 92L166 107L253 155Z" fill="#a41124" stroke="#a41124"></path><path d="M675 338L675 314L598 265Z" fill="#a41124" stroke="#a41124"></path><path d="M0 598L0 695L44 637Z" fill="#861321" stroke="#861321"></path><path d="M488 137L401 72L394 152Z" fill="#67131d" stroke="#67131d"></path><path d="M0 773L93 800L96 760Z" fill="#761320" stroke="#761320"></path><path d="M96 760L93 800L153 755Z" fill="#c40f25" stroke="#c40f25"></path><path d="M230 806L287 900L283 786Z" fill="#761320" stroke="#761320"></path><path d="M675 788L675 650L632 673Z" fill="#c40f25" stroke="#c40f25"></path><path d="M632 673L675 650L675 599Z" fill="#951223" stroke="#951223"></path><path d="M93 800L180 848L153 755Z" fill="#d30e25" stroke="#d30e25"></path><path d="M333 823L411 900L405 804Z" fill="#c40f25" stroke="#c40f25"></path><path d="M675 226L627 196L598 265Z" fill="#e30e24" stroke="#e30e24"></path><path d="M488 137L420 41L401 72Z" fill="#4a1218" stroke="#4a1218"></path><path d="M229 59L166 107L264 92Z" fill="#c40f25" stroke="#c40f25"></path><path d="M171 0L108 106L166 107Z" fill="#4a1218" stroke="#4a1218"></path><path d="M166 107L108 106L116 188Z" fill="#951223" stroke="#951223"></path><path d="M253 0L229 59L264 92Z" fill="#d30e25" stroke="#d30e25"></path><path d="M0 124L0 195L56 204Z" fill="#a41124" stroke="#a41124"></path><path d="M56 204L0 195L0 326Z" fill="#d30e25" stroke="#d30e25"></path><path d="M675 314L675 226L598 265Z" fill="#761320" stroke="#761320"></path><path d="M518 65L420 41L488 137Z" fill="#d30e25" stroke="#d30e25"></path><path d="M401 72L308 0L264 92Z" fill="#67131d" stroke="#67131d"></path><path d="M612 144L534 205L627 196Z" fill="#951223" stroke="#951223"></path><path d="M631 113L612 144L675 124Z" fill="#59131b" stroke="#59131b"></path><path d="M0 57L57 110L37 0Z" fill="#b41025" stroke="#b41025"></path><path d="M108 106L57 110L116 188Z" fill="#e30e24" stroke="#e30e24"></path><path d="M235 900L287 900L230 806Z" fill="#d30e25" stroke="#d30e25"></path><path d="M0 695L0 773L96 760Z" fill="#c40f25" stroke="#c40f25"></path><path d="M179 900L235 900L180 848Z" fill="#951223" stroke="#951223"></path><path d="M180 848L235 900L230 806Z" fill="#c40f25" stroke="#c40f25"></path><path d="M550 749L554 834L581 730Z" fill="#951223" stroke="#951223"></path><path d="M581 730L675 788L632 673Z" fill="#e30e24" stroke="#e30e24"></path><path d="M431 818L554 834L464 743Z" fill="#a41124" stroke="#a41124"></path><path d="M517 900L554 834L431 818Z" fill="#a41124" stroke="#a41124"></path><path d="M179 900L180 848L96 900Z" fill="#c40f25" stroke="#c40f25"></path><path d="M612 144L518 65L488 137Z" fill="#b41025" stroke="#b41025"></path><path d="M287 900L411 900L333 823Z" fill="#a41124" stroke="#a41124"></path><path d="M96 900L180 848L93 800Z" fill="#c40f25" stroke="#c40f25"></path><path d="M411 900L453 900L431 818Z" fill="#861321" stroke="#861321"></path><path d="M0 57L0 124L57 110Z" fill="#951223" stroke="#951223"></path><path d="M57 110L0 124L56 204Z" fill="#861321" stroke="#861321"></path><path d="M414 0L308 0L401 72Z" fill="#861321" stroke="#861321"></path><path d="M229 59L171 0L166 107Z" fill="#4a1218" stroke="#4a1218"></path><path d="M414 0L401 72L420 41Z" fill="#951223" stroke="#951223"></path><path d="M0 773L0 806L93 800Z" fill="#d30e25" stroke="#d30e25"></path><path d="M308 0L253 0L264 92Z" fill="#4a1218" stroke="#4a1218"></path><path d="M612 144L631 113L518 65Z" fill="#e30e24" stroke="#e30e24"></path><path d="M675 124L612 144L627 196Z" fill="#861321" stroke="#861321"></path><path d="M474 0L420 41L518 65Z" fill="#951223" stroke="#951223"></path><path d="M474 0L414 0L420 41Z" fill="#b41025" stroke="#b41025"></path><path d="M453 900L517 900L431 818Z" fill="#c40f25" stroke="#c40f25"></path><path d="M638 847L675 788L581 730Z" fill="#861321" stroke="#861321"></path><path d="M253 0L171 0L229 59Z" fill="#761320" stroke="#761320"></path><path d="M638 847L581 730L554 834Z" fill="#761320" stroke="#761320"></path><path d="M0 806L96 900L93 800Z" fill="#d30e25" stroke="#d30e25"></path><path d="M543 0L474 0L518 65Z" fill="#59131b" stroke="#59131b"></path><path d="M675 226L675 124L627 196Z" fill="#67131d" stroke="#67131d"></path><path d="M624 0L543 0L518 65Z" fill="#59131b" stroke="#59131b"></path><path d="M620 900L638 847L554 834Z" fill="#861321" stroke="#861321"></path><path d="M37 0L57 110L108 106Z" fill="#b41025" stroke="#b41025"></path><path d="M624 0L518 65L631 113Z" fill="#e30e24" stroke="#e30e24"></path><path d="M675 900L675 855L638 847Z" fill="#761320" stroke="#761320"></path><path d="M638 847L675 855L675 788Z" fill="#59131b" stroke="#59131b"></path><path d="M517 900L620 900L554 834Z" fill="#861321" stroke="#861321"></path><path d="M0 806L0 900L96 900Z" fill="#951223" stroke="#951223"></path><path d="M171 0L37 0L108 106Z" fill="#951223" stroke="#951223"></path><path d="M675 124L675 47L631 113Z" fill="#59131b" stroke="#59131b"></path><path d="M675 47L624 0L631 113Z" fill="#4a1218" stroke="#4a1218"></path><path d="M37 0L0 0L0 57Z" fill="#d30e25" stroke="#d30e25"></path><path d="M620 900L675 900L638 847Z" fill="#67131d" stroke="#67131d"></path><path d="M675 47L675 0L624 0Z" fill="#761320" stroke="#761320"></path></g></svg>