<svg id="visual" viewBox="0 0 675 900" width="675" height="900" xmlns="http://www.w3.org/2000/svg" xmlns:xlink="http://www.w3.org/1999/xlink" version="1.1"><g stroke-width="1" stroke-linejoin="bevel"><path d="M316 435L373 450L367 366Z" fill="#59131b" stroke="#59131b"></path><path d="M367 366L307 356L316 435Z" fill="#a41124" stroke="#a41124"></path><path d="M373 450L427 454L367 366Z" fill="#a41124" stroke="#a41124"></path><path d="M316 435L374 502L373 450Z" fill="#861321" stroke="#861321"></path><path d="M373 450L374 502L427 454Z" fill="#c40f25" stroke="#c40f25"></path><path d="M367 366L304 310L307 356Z" fill="#761320" stroke="#761320"></path><path d="M190 339L242 426L307 356Z" fill="#c40f25" stroke="#c40f25"></path><path d="M307 356L242 426L316 435Z" fill="#761320" stroke="#761320"></path><path d="M316 435L335 538L374 502Z" fill="#c40f25" stroke="#c40f25"></path><path d="M427 454L460 366L367 366Z" fill="#951223" stroke="#951223"></path><path d="M367 366L377 274L304 310Z" fill="#d30e25" stroke="#d30e25"></path><path d="M460 366L412 307L367 366Z" fill="#761320" stroke="#761320"></path><path d="M242 426L335 538L316 435Z" fill="#d30e25" stroke="#d30e25"></path><path d="M374 502L450 550L427 454Z" fill="#b41025" stroke="#b41025"></path><path d="M412 307L377 274L367 366Z" fill="#59131b" stroke="#59131b"></path><path d="M335 538L390 562L374 502Z" fill="#c40f25" stroke="#c40f25"></path><path d="M427 454L547 411L460 366Z" fill="#951223" stroke="#951223"></path><path d="M377 274L330 253L304 310Z" fill="#761320" stroke="#761320"></path><path d="M304 310L190 339L307 356Z" fill="#761320" stroke="#761320"></path><path d="M390 562L450 550L374 502Z" fill="#861321" stroke="#861321"></path><path d="M186 282L190 339L304 310Z" fill="#951223" stroke="#951223"></path><path d="M450 550L485 530L427 454Z" fill="#4a1218" stroke="#4a1218"></path><path d="M460 366L488 287L412 307Z" fill="#a41124" stroke="#a41124"></path><path d="M412 307L460 206L377 274Z" fill="#c40f25" stroke="#c40f25"></path><path d="M377 274L358 204L330 253Z" fill="#c40f25" stroke="#c40f25"></path><path d="M556 341L488 287L460 366Z" fill="#c40f25" stroke="#c40f25"></path><path d="M485 530L547 411L427 454Z" fill="#d30e25" stroke="#d30e25"></path><path d="M133 470L214 551L242 426Z" fill="#67131d" stroke="#67131d"></path><path d="M242 426L214 551L335 538Z" fill="#951223" stroke="#951223"></path><path d="M335 538L266 594L390 562Z" fill="#a41124" stroke="#a41124"></path><path d="M190 339L155 365L242 426Z" fill="#b41025" stroke="#b41025"></path><path d="M214 551L266 594L335 538Z" fill="#a41124" stroke="#a41124"></path><path d="M441 659L479 572L450 550Z" fill="#951223" stroke="#951223"></path><path d="M460 206L358 204L377 274Z" fill="#d30e25" stroke="#d30e25"></path><path d="M213 229L186 282L304 310Z" fill="#59131b" stroke="#59131b"></path><path d="M190 339L111 292L155 365Z" fill="#67131d" stroke="#67131d"></path><path d="M450 550L479 572L485 530Z" fill="#59131b" stroke="#59131b"></path><path d="M485 530L598 479L547 411Z" fill="#e30e24" stroke="#e30e24"></path><path d="M504 586L479 572L441 659Z" fill="#861321" stroke="#861321"></path><path d="M213 229L304 310L330 253Z" fill="#67131d" stroke="#67131d"></path><path d="M547 411L556 341L460 366Z" fill="#a41124" stroke="#a41124"></path><path d="M574 201L486 224L488 287Z" fill="#b41025" stroke="#b41025"></path><path d="M488 287L460 206L412 307Z" fill="#861321" stroke="#861321"></path><path d="M255 144L213 229L330 253Z" fill="#a41124" stroke="#a41124"></path><path d="M155 365L133 470L242 426Z" fill="#b41025" stroke="#b41025"></path><path d="M486 224L460 206L488 287Z" fill="#4a1218" stroke="#4a1218"></path><path d="M138 603L204 587L214 551Z" fill="#4a1218" stroke="#4a1218"></path><path d="M214 551L204 587L266 594Z" fill="#c40f25" stroke="#c40f25"></path><path d="M441 659L450 550L390 562Z" fill="#d30e25" stroke="#d30e25"></path><path d="M479 572L504 586L485 530Z" fill="#d30e25" stroke="#d30e25"></path><path d="M635 364L578 315L556 341Z" fill="#4a1218" stroke="#4a1218"></path><path d="M556 341L578 315L488 287Z" fill="#a41124" stroke="#a41124"></path><path d="M635 364L556 341L547 411Z" fill="#59131b" stroke="#59131b"></path><path d="M111 292L109 358L155 365Z" fill="#c40f25" stroke="#c40f25"></path><path d="M155 365L109 358L133 470Z" fill="#e30e24" stroke="#e30e24"></path><path d="M111 292L190 339L186 282Z" fill="#d30e25" stroke="#d30e25"></path><path d="M188 179L184 221L213 229Z" fill="#59131b" stroke="#59131b"></path><path d="M213 229L184 221L186 282Z" fill="#861321" stroke="#861321"></path><path d="M85 515L123 517L133 470Z" fill="#761320" stroke="#761320"></path><path d="M133 470L123 517L214 551Z" fill="#761320" stroke="#761320"></path><path d="M604 542L598 479L485 530Z" fill="#e30e24" stroke="#e30e24"></path><path d="M218 662L275 658L266 594Z" fill="#951223" stroke="#951223"></path><path d="M266 594L275 658L390 562Z" fill="#761320" stroke="#761320"></path><path d="M218 662L266 594L204 587Z" fill="#a41124" stroke="#a41124"></path><path d="M413 669L441 659L390 562Z" fill="#a41124" stroke="#a41124"></path><path d="M504 586L604 542L485 530Z" fill="#59131b" stroke="#59131b"></path><path d="M275 658L413 669L390 562Z" fill="#67131d" stroke="#67131d"></path><path d="M460 206L440 157L358 204Z" fill="#a41124" stroke="#a41124"></path><path d="M358 204L255 144L330 253Z" fill="#761320" stroke="#761320"></path><path d="M562 118L440 157L460 206Z" fill="#861321" stroke="#861321"></path><path d="M562 118L460 206L486 224Z" fill="#e30e24" stroke="#e30e24"></path><path d="M184 221L111 292L186 282Z" fill="#951223" stroke="#951223"></path><path d="M276 122L255 144L358 204Z" fill="#59131b" stroke="#59131b"></path><path d="M44 200L49 288L111 292Z" fill="#a41124" stroke="#a41124"></path><path d="M255 144L188 179L213 229Z" fill="#861321" stroke="#861321"></path><path d="M608 610L604 542L504 586Z" fill="#c40f25" stroke="#c40f25"></path><path d="M598 479L635 364L547 411Z" fill="#59131b" stroke="#59131b"></path><path d="M578 315L574 201L488 287Z" fill="#c40f25" stroke="#c40f25"></path><path d="M675 469L635 364L598 479Z" fill="#e30e24" stroke="#e30e24"></path><path d="M138 603L218 662L204 587Z" fill="#c40f25" stroke="#c40f25"></path><path d="M358 771L431 737L413 669Z" fill="#761320" stroke="#761320"></path><path d="M39 469L85 515L133 470Z" fill="#59131b" stroke="#59131b"></path><path d="M123 517L138 603L214 551Z" fill="#a41124" stroke="#a41124"></path><path d="M39 469L133 470L109 358Z" fill="#e30e24" stroke="#e30e24"></path><path d="M85 515L138 603L123 517Z" fill="#67131d" stroke="#67131d"></path><path d="M440 157L388 116L358 204Z" fill="#951223" stroke="#951223"></path><path d="M388 116L276 122L358 204Z" fill="#59131b" stroke="#59131b"></path><path d="M255 144L210 36L188 179Z" fill="#d30e25" stroke="#d30e25"></path><path d="M675 209L574 201L578 315Z" fill="#59131b" stroke="#59131b"></path><path d="M440 157L424 74L388 116Z" fill="#861321" stroke="#861321"></path><path d="M441 659L548 648L504 586Z" fill="#761320" stroke="#761320"></path><path d="M505 718L548 648L441 659Z" fill="#d30e25" stroke="#d30e25"></path><path d="M0 417L39 469L109 358Z" fill="#951223" stroke="#951223"></path><path d="M85 515L54 622L138 603Z" fill="#951223" stroke="#951223"></path><path d="M548 648L608 610L504 586Z" fill="#d30e25" stroke="#d30e25"></path><path d="M675 507L675 469L598 479Z" fill="#761320" stroke="#761320"></path><path d="M675 507L598 479L604 542Z" fill="#761320" stroke="#761320"></path><path d="M635 364L675 336L578 315Z" fill="#4a1218" stroke="#4a1218"></path><path d="M44 200L111 292L184 221Z" fill="#761320" stroke="#761320"></path><path d="M111 292L49 288L109 358Z" fill="#761320" stroke="#761320"></path><path d="M675 469L675 346L635 364Z" fill="#d30e25" stroke="#d30e25"></path><path d="M388 116L312 82L276 122Z" fill="#861321" stroke="#861321"></path><path d="M54 162L184 221L188 179Z" fill="#d30e25" stroke="#d30e25"></path><path d="M675 346L675 336L635 364Z" fill="#a41124" stroke="#a41124"></path><path d="M675 590L675 507L604 542Z" fill="#59131b" stroke="#59131b"></path><path d="M358 771L413 669L275 658Z" fill="#761320" stroke="#761320"></path><path d="M413 669L431 737L441 659Z" fill="#d30e25" stroke="#d30e25"></path><path d="M548 648L621 645L608 610Z" fill="#861321" stroke="#861321"></path><path d="M551 71L424 74L440 157Z" fill="#861321" stroke="#861321"></path><path d="M388 116L358 35L312 82Z" fill="#b41025" stroke="#b41025"></path><path d="M675 209L595 166L574 201Z" fill="#67131d" stroke="#67131d"></path><path d="M574 201L562 118L486 224Z" fill="#d30e25" stroke="#d30e25"></path><path d="M431 737L505 718L441 659Z" fill="#67131d" stroke="#67131d"></path><path d="M138 603L171 704L218 662Z" fill="#b41025" stroke="#b41025"></path><path d="M218 662L261 747L275 658Z" fill="#c40f25" stroke="#c40f25"></path><path d="M112 703L171 704L138 603Z" fill="#861321" stroke="#861321"></path><path d="M171 704L261 747L218 662Z" fill="#951223" stroke="#951223"></path><path d="M0 357L0 417L109 358Z" fill="#951223" stroke="#951223"></path><path d="M0 559L54 622L85 515Z" fill="#761320" stroke="#761320"></path><path d="M570 769L621 645L548 648Z" fill="#761320" stroke="#761320"></path><path d="M608 610L675 590L604 542Z" fill="#4a1218" stroke="#4a1218"></path><path d="M49 288L0 357L109 358Z" fill="#861321" stroke="#861321"></path><path d="M595 166L562 118L574 201Z" fill="#4a1218" stroke="#4a1218"></path><path d="M561 795L570 769L505 718Z" fill="#a41124" stroke="#a41124"></path><path d="M261 747L358 771L275 658Z" fill="#e30e24" stroke="#e30e24"></path><path d="M0 189L0 313L49 288Z" fill="#761320" stroke="#761320"></path><path d="M49 288L0 313L0 357Z" fill="#59131b" stroke="#59131b"></path><path d="M44 200L184 221L54 162Z" fill="#761320" stroke="#761320"></path><path d="M0 559L85 515L39 469Z" fill="#b41025" stroke="#b41025"></path><path d="M621 645L675 590L608 610Z" fill="#a41124" stroke="#a41124"></path><path d="M54 162L188 179L154 45Z" fill="#59131b" stroke="#59131b"></path><path d="M352 0L358 35L478 0Z" fill="#c40f25" stroke="#c40f25"></path><path d="M424 74L358 35L388 116Z" fill="#4a1218" stroke="#4a1218"></path><path d="M210 36L255 144L276 122Z" fill="#951223" stroke="#951223"></path><path d="M187 766L264 777L261 747Z" fill="#59131b" stroke="#59131b"></path><path d="M261 747L293 798L358 771Z" fill="#861321" stroke="#861321"></path><path d="M187 766L261 747L171 704Z" fill="#e30e24" stroke="#e30e24"></path><path d="M604 47L551 71L562 118Z" fill="#861321" stroke="#861321"></path><path d="M675 336L675 209L578 315Z" fill="#59131b" stroke="#59131b"></path><path d="M54 622L112 703L138 603Z" fill="#59131b" stroke="#59131b"></path><path d="M0 417L0 559L39 469Z" fill="#951223" stroke="#951223"></path><path d="M54 622L0 679L112 703Z" fill="#a41124" stroke="#a41124"></path><path d="M210 36L276 122L312 82Z" fill="#b41025" stroke="#b41025"></path><path d="M44 200L0 189L49 288Z" fill="#59131b" stroke="#59131b"></path><path d="M604 47L562 118L675 78Z" fill="#b41025" stroke="#b41025"></path><path d="M562 118L551 71L440 157Z" fill="#761320" stroke="#761320"></path><path d="M243 835L293 798L264 777Z" fill="#4a1218" stroke="#4a1218"></path><path d="M264 777L293 798L261 747Z" fill="#67131d" stroke="#67131d"></path><path d="M358 771L420 833L431 737Z" fill="#c40f25" stroke="#c40f25"></path><path d="M112 703L187 766L171 704Z" fill="#951223" stroke="#951223"></path><path d="M0 559L0 592L54 622Z" fill="#b41025" stroke="#b41025"></path><path d="M290 0L210 36L312 82Z" fill="#761320" stroke="#761320"></path><path d="M675 209L675 166L595 166Z" fill="#861321" stroke="#861321"></path><path d="M358 35L290 0L312 82Z" fill="#a41124" stroke="#a41124"></path><path d="M478 0L358 35L424 74Z" fill="#c40f25" stroke="#c40f25"></path><path d="M299 900L364 822L293 798Z" fill="#b41025" stroke="#b41025"></path><path d="M293 798L364 822L358 771Z" fill="#a41124" stroke="#a41124"></path><path d="M505 718L570 769L548 648Z" fill="#e30e24" stroke="#e30e24"></path><path d="M352 0L290 0L358 35Z" fill="#951223" stroke="#951223"></path><path d="M210 36L154 45L188 179Z" fill="#4a1218" stroke="#4a1218"></path><path d="M228 0L154 45L210 36Z" fill="#b41025" stroke="#b41025"></path><path d="M0 160L0 189L54 162Z" fill="#d30e25" stroke="#d30e25"></path><path d="M54 162L0 189L44 200Z" fill="#861321" stroke="#861321"></path><path d="M527 829L505 718L431 737Z" fill="#4a1218" stroke="#4a1218"></path><path d="M621 645L675 685L675 590Z" fill="#4a1218" stroke="#4a1218"></path><path d="M675 721L675 685L621 645Z" fill="#861321" stroke="#861321"></path><path d="M547 0L478 0L551 71Z" fill="#59131b" stroke="#59131b"></path><path d="M551 71L478 0L424 74Z" fill="#d30e25" stroke="#d30e25"></path><path d="M290 0L228 0L210 36Z" fill="#a41124" stroke="#a41124"></path><path d="M364 822L420 833L358 771Z" fill="#59131b" stroke="#59131b"></path><path d="M0 95L0 160L54 162Z" fill="#861321" stroke="#861321"></path><path d="M527 829L561 795L505 718Z" fill="#761320" stroke="#761320"></path><path d="M570 769L675 721L621 645Z" fill="#4a1218" stroke="#4a1218"></path><path d="M162 862L243 835L187 766Z" fill="#d30e25" stroke="#d30e25"></path><path d="M187 766L243 835L264 777Z" fill="#4a1218" stroke="#4a1218"></path><path d="M364 822L397 900L420 833Z" fill="#951223" stroke="#951223"></path><path d="M107 789L187 766L112 703Z" fill="#761320" stroke="#761320"></path><path d="M675 78L562 118L595 166Z" fill="#e30e24" stroke="#e30e24"></path><path d="M0 592L0 679L54 622Z" fill="#b41025" stroke="#b41025"></path><path d="M675 850L675 721L570 769Z" fill="#b41025" stroke="#b41025"></path><path d="M0 738L107 789L112 703Z" fill="#e30e24" stroke="#e30e24"></path><path d="M604 47L547 0L551 71Z" fill="#c40f25" stroke="#c40f25"></path><path d="M420 833L527 829L431 737Z" fill="#a41124" stroke="#a41124"></path><path d="M561 795L675 850L570 769Z" fill="#67131d" stroke="#67131d"></path><path d="M675 166L675 78L595 166Z" fill="#e30e24" stroke="#e30e24"></path><path d="M604 47L624 0L547 0Z" fill="#761320" stroke="#761320"></path><path d="M56 40L54 162L154 45Z" fill="#c40f25" stroke="#c40f25"></path><path d="M56 40L0 95L54 162Z" fill="#861321" stroke="#861321"></path><path d="M113 0L56 40L154 45Z" fill="#e30e24" stroke="#e30e24"></path><path d="M228 0L113 0L154 45Z" fill="#4a1218" stroke="#4a1218"></path><path d="M0 679L0 738L112 703Z" fill="#c40f25" stroke="#c40f25"></path><path d="M113 0L96 0L56 40Z" fill="#b41025" stroke="#b41025"></path><path d="M56 40L0 0L0 95Z" fill="#951223" stroke="#951223"></path><path d="M675 0L624 0L604 47Z" fill="#951223" stroke="#951223"></path><path d="M107 789L162 862L187 766Z" fill="#d30e25" stroke="#d30e25"></path><path d="M299 900L397 900L364 822Z" fill="#e30e24" stroke="#e30e24"></path><path d="M420 833L456 900L527 829Z" fill="#67131d" stroke="#67131d"></path><path d="M104 900L162 862L107 789Z" fill="#951223" stroke="#951223"></path><path d="M299 900L293 798L243 835Z" fill="#761320" stroke="#761320"></path><path d="M249 900L299 900L243 835Z" fill="#951223" stroke="#951223"></path><path d="M397 900L456 900L420 833Z" fill="#a41124" stroke="#a41124"></path><path d="M527 829L550 900L561 795Z" fill="#e30e24" stroke="#e30e24"></path><path d="M162 862L249 900L243 835Z" fill="#951223" stroke="#951223"></path><path d="M675 78L675 0L604 47Z" fill="#951223" stroke="#951223"></path><path d="M0 738L47 840L107 789Z" fill="#861321" stroke="#861321"></path><path d="M162 862L157 900L249 900Z" fill="#761320" stroke="#761320"></path><path d="M104 900L157 900L162 862Z" fill="#861321" stroke="#861321"></path><path d="M456 900L550 900L527 829Z" fill="#c40f25" stroke="#c40f25"></path><path d="M96 0L0 0L56 40Z" fill="#59131b" stroke="#59131b"></path><path d="M619 900L675 850L561 795Z" fill="#4a1218" stroke="#4a1218"></path><path d="M47 840L104 900L107 789Z" fill="#761320" stroke="#761320"></path><path d="M0 738L0 832L47 840Z" fill="#861321" stroke="#861321"></path><path d="M47 840L0 900L104 900Z" fill="#4a1218" stroke="#4a1218"></path><path d="M550 900L619 900L561 795Z" fill="#861321" stroke="#861321"></path><path d="M619 900L675 900L675 850Z" fill="#4a1218" stroke="#4a1218"></path><path d="M0 832L0 900L47 840Z" fill="#b41025" stroke="#b41025"></path></g></svg>