<svg id="visual" viewBox="0 0 675 900" width="675" height="900" xmlns="http://www.w3.org/2000/svg" xmlns:xlink="http://www.w3.org/1999/xlink" version="1.1"><g stroke-width="1" stroke-linejoin="bevel"><path d="M313 399L393 313L301 326Z" fill="#b41025" stroke="#b41025"></path><path d="M313 399L410 369L393 313Z" fill="#e30e24" stroke="#e30e24"></path><path d="M313 399L423 420L410 369Z" fill="#d30e25" stroke="#d30e25"></path><path d="M486 360L476 338L410 369Z" fill="#e30e24" stroke="#e30e24"></path><path d="M410 369L476 338L393 313Z" fill="#761320" stroke="#761320"></path><path d="M268 257L248 283L301 326Z" fill="#4a1218" stroke="#4a1218"></path><path d="M301 326L193 403L313 399Z" fill="#861321" stroke="#861321"></path><path d="M476 338L441 264L393 313Z" fill="#c40f25" stroke="#c40f25"></path><path d="M348 217L268 257L301 326Z" fill="#67131d" stroke="#67131d"></path><path d="M313 399L405 471L423 420Z" fill="#e30e24" stroke="#e30e24"></path><path d="M423 420L486 360L410 369Z" fill="#59131b" stroke="#59131b"></path><path d="M348 217L301 326L393 313Z" fill="#59131b" stroke="#59131b"></path><path d="M517 411L486 360L423 420Z" fill="#67131d" stroke="#67131d"></path><path d="M441 264L348 217L393 313Z" fill="#b41025" stroke="#b41025"></path><path d="M385 503L422 486L405 471Z" fill="#67131d" stroke="#67131d"></path><path d="M405 471L422 486L423 420Z" fill="#4a1218" stroke="#4a1218"></path><path d="M313 399L385 503L405 471Z" fill="#67131d" stroke="#67131d"></path><path d="M193 403L270 483L313 399Z" fill="#861321" stroke="#861321"></path><path d="M313 399L270 483L385 503Z" fill="#951223" stroke="#951223"></path><path d="M268 257L226 258L248 283Z" fill="#d30e25" stroke="#d30e25"></path><path d="M248 283L193 403L301 326Z" fill="#861321" stroke="#861321"></path><path d="M247 152L226 258L268 257Z" fill="#a41124" stroke="#a41124"></path><path d="M140 275L193 403L248 283Z" fill="#861321" stroke="#861321"></path><path d="M441 264L358 185L348 217Z" fill="#e30e24" stroke="#e30e24"></path><path d="M348 217L247 152L268 257Z" fill="#761320" stroke="#761320"></path><path d="M422 486L517 411L423 420Z" fill="#c40f25" stroke="#c40f25"></path><path d="M558 327L515 262L476 338Z" fill="#b41025" stroke="#b41025"></path><path d="M476 338L515 262L441 264Z" fill="#59131b" stroke="#59131b"></path><path d="M193 403L227 488L270 483Z" fill="#d30e25" stroke="#d30e25"></path><path d="M270 483L313 551L385 503Z" fill="#e30e24" stroke="#e30e24"></path><path d="M558 327L476 338L486 360Z" fill="#a41124" stroke="#a41124"></path><path d="M441 264L440 149L358 185Z" fill="#67131d" stroke="#67131d"></path><path d="M126 372L171 418L193 403Z" fill="#a41124" stroke="#a41124"></path><path d="M193 403L206 489L227 488Z" fill="#59131b" stroke="#59131b"></path><path d="M171 418L206 489L193 403Z" fill="#861321" stroke="#861321"></path><path d="M227 488L313 551L270 483Z" fill="#861321" stroke="#861321"></path><path d="M190 637L313 551L227 488Z" fill="#761320" stroke="#761320"></path><path d="M385 503L448 569L422 486Z" fill="#e30e24" stroke="#e30e24"></path><path d="M559 486L547 410L517 411Z" fill="#d30e25" stroke="#d30e25"></path><path d="M517 411L547 410L486 360Z" fill="#b41025" stroke="#b41025"></path><path d="M547 410L558 327L486 360Z" fill="#d30e25" stroke="#d30e25"></path><path d="M440 149L339 135L358 185Z" fill="#761320" stroke="#761320"></path><path d="M358 185L247 152L348 217Z" fill="#c40f25" stroke="#c40f25"></path><path d="M515 262L440 149L441 264Z" fill="#951223" stroke="#951223"></path><path d="M134 243L140 275L226 258Z" fill="#59131b" stroke="#59131b"></path><path d="M226 258L140 275L248 283Z" fill="#67131d" stroke="#67131d"></path><path d="M140 275L126 372L193 403Z" fill="#b41025" stroke="#b41025"></path><path d="M171 418L166 522L206 489Z" fill="#951223" stroke="#951223"></path><path d="M339 135L247 152L358 185Z" fill="#c40f25" stroke="#c40f25"></path><path d="M374 619L448 569L385 503Z" fill="#e30e24" stroke="#e30e24"></path><path d="M422 486L559 486L517 411Z" fill="#b41025" stroke="#b41025"></path><path d="M448 569L559 486L422 486Z" fill="#e30e24" stroke="#e30e24"></path><path d="M547 410L620 359L558 327Z" fill="#c40f25" stroke="#c40f25"></path><path d="M247 152L134 243L226 258Z" fill="#861321" stroke="#861321"></path><path d="M140 275L96 354L126 372Z" fill="#761320" stroke="#761320"></path><path d="M79 428L166 522L171 418Z" fill="#c40f25" stroke="#c40f25"></path><path d="M206 489L166 522L227 488Z" fill="#59131b" stroke="#59131b"></path><path d="M45 276L96 354L140 275Z" fill="#67131d" stroke="#67131d"></path><path d="M126 372L79 428L171 418Z" fill="#761320" stroke="#761320"></path><path d="M602 238L538 168L515 262Z" fill="#a41124" stroke="#a41124"></path><path d="M515 262L538 168L440 149Z" fill="#d30e25" stroke="#d30e25"></path><path d="M313 551L374 619L385 503Z" fill="#59131b" stroke="#59131b"></path><path d="M319 631L374 619L313 551Z" fill="#761320" stroke="#761320"></path><path d="M630 449L620 359L547 410Z" fill="#59131b" stroke="#59131b"></path><path d="M558 327L602 238L515 262Z" fill="#951223" stroke="#951223"></path><path d="M391 49L306 86L339 135Z" fill="#4a1218" stroke="#4a1218"></path><path d="M339 135L306 86L247 152Z" fill="#67131d" stroke="#67131d"></path><path d="M52 205L45 276L134 243Z" fill="#4a1218" stroke="#4a1218"></path><path d="M391 49L339 135L440 149Z" fill="#59131b" stroke="#59131b"></path><path d="M448 569L496 589L559 486Z" fill="#d30e25" stroke="#d30e25"></path><path d="M414 701L496 589L448 569Z" fill="#a41124" stroke="#a41124"></path><path d="M628 268L602 238L558 327Z" fill="#e30e24" stroke="#e30e24"></path><path d="M259 656L319 631L313 551Z" fill="#761320" stroke="#761320"></path><path d="M538 168L474 101L440 149Z" fill="#861321" stroke="#861321"></path><path d="M96 354L79 428L126 372Z" fill="#b41025" stroke="#b41025"></path><path d="M496 589L586 519L559 486Z" fill="#a41124" stroke="#a41124"></path><path d="M559 486L630 449L547 410Z" fill="#861321" stroke="#861321"></path><path d="M620 359L628 268L558 327Z" fill="#4a1218" stroke="#4a1218"></path><path d="M586 519L630 449L559 486Z" fill="#59131b" stroke="#59131b"></path><path d="M620 359L675 271L628 268Z" fill="#e30e24" stroke="#e30e24"></path><path d="M602 238L574 163L538 168Z" fill="#761320" stroke="#761320"></path><path d="M538 168L529 61L474 101Z" fill="#c40f25" stroke="#c40f25"></path><path d="M675 166L574 163L602 238Z" fill="#761320" stroke="#761320"></path><path d="M445 0L391 49L474 101Z" fill="#761320" stroke="#761320"></path><path d="M474 101L391 49L440 149Z" fill="#761320" stroke="#761320"></path><path d="M496 589L580 571L586 519Z" fill="#c40f25" stroke="#c40f25"></path><path d="M586 519L675 489L630 449Z" fill="#b41025" stroke="#b41025"></path><path d="M570 714L580 571L496 589Z" fill="#761320" stroke="#761320"></path><path d="M190 637L259 656L313 551Z" fill="#c40f25" stroke="#c40f25"></path><path d="M360 712L414 701L374 619Z" fill="#b41025" stroke="#b41025"></path><path d="M374 619L414 701L448 569Z" fill="#59131b" stroke="#59131b"></path><path d="M190 637L227 488L166 522Z" fill="#c40f25" stroke="#c40f25"></path><path d="M134 243L45 276L140 275Z" fill="#a41124" stroke="#a41124"></path><path d="M96 354L0 389L79 428Z" fill="#a41124" stroke="#a41124"></path><path d="M127 129L134 243L247 152Z" fill="#4a1218" stroke="#4a1218"></path><path d="M214 63L247 152L306 86Z" fill="#b41025" stroke="#b41025"></path><path d="M214 63L127 129L247 152Z" fill="#e30e24" stroke="#e30e24"></path><path d="M273 0L214 63L306 86Z" fill="#861321" stroke="#861321"></path><path d="M114 613L190 637L166 522Z" fill="#b41025" stroke="#b41025"></path><path d="M675 489L675 399L630 449Z" fill="#761320" stroke="#761320"></path><path d="M630 449L675 399L620 359Z" fill="#b41025" stroke="#b41025"></path><path d="M675 399L675 271L620 359Z" fill="#4a1218" stroke="#4a1218"></path><path d="M628 268L675 254L602 238Z" fill="#67131d" stroke="#67131d"></path><path d="M127 129L52 205L134 243Z" fill="#b41025" stroke="#b41025"></path><path d="M675 271L675 254L628 268Z" fill="#e30e24" stroke="#e30e24"></path><path d="M584 93L538 168L574 163Z" fill="#b41025" stroke="#b41025"></path><path d="M584 93L529 61L538 168Z" fill="#4a1218" stroke="#4a1218"></path><path d="M79 428L76 562L166 522Z" fill="#b41025" stroke="#b41025"></path><path d="M0 515L76 562L79 428Z" fill="#b41025" stroke="#b41025"></path><path d="M122 89L108 111L127 129Z" fill="#c40f25" stroke="#c40f25"></path><path d="M127 129L108 111L52 205Z" fill="#4a1218" stroke="#4a1218"></path><path d="M675 536L675 489L586 519Z" fill="#a41124" stroke="#a41124"></path><path d="M675 106L584 93L574 163Z" fill="#b41025" stroke="#b41025"></path><path d="M76 562L114 613L166 522Z" fill="#67131d" stroke="#67131d"></path><path d="M360 712L319 631L285 708Z" fill="#59131b" stroke="#59131b"></path><path d="M360 712L374 619L319 631Z" fill="#a41124" stroke="#a41124"></path><path d="M214 63L122 89L127 129Z" fill="#951223" stroke="#951223"></path><path d="M0 212L0 334L45 276Z" fill="#c40f25" stroke="#c40f25"></path><path d="M45 276L0 334L96 354Z" fill="#4a1218" stroke="#4a1218"></path><path d="M0 334L0 389L96 354Z" fill="#67131d" stroke="#67131d"></path><path d="M445 0L388 0L391 49Z" fill="#c40f25" stroke="#c40f25"></path><path d="M391 49L388 0L306 86Z" fill="#a41124" stroke="#a41124"></path><path d="M162 0L105 49L122 89Z" fill="#b41025" stroke="#b41025"></path><path d="M285 708L319 631L259 656Z" fill="#a41124" stroke="#a41124"></path><path d="M285 708L259 656L180 688Z" fill="#d30e25" stroke="#d30e25"></path><path d="M0 389L0 416L79 428Z" fill="#a41124" stroke="#a41124"></path><path d="M180 688L259 656L190 637Z" fill="#59131b" stroke="#59131b"></path><path d="M76 562L95 610L114 613Z" fill="#a41124" stroke="#a41124"></path><path d="M114 613L180 688L190 637Z" fill="#761320" stroke="#761320"></path><path d="M0 569L95 610L76 562Z" fill="#67131d" stroke="#67131d"></path><path d="M388 0L273 0L306 86Z" fill="#861321" stroke="#861321"></path><path d="M529 61L445 0L474 101Z" fill="#67131d" stroke="#67131d"></path><path d="M563 0L445 0L529 61Z" fill="#861321" stroke="#861321"></path><path d="M675 623L675 536L580 571Z" fill="#861321" stroke="#861321"></path><path d="M580 571L675 536L586 519Z" fill="#a41124" stroke="#a41124"></path><path d="M457 734L494 701L414 701Z" fill="#861321" stroke="#861321"></path><path d="M414 701L494 701L496 589Z" fill="#59131b" stroke="#59131b"></path><path d="M675 254L675 166L602 238Z" fill="#861321" stroke="#861321"></path><path d="M76 665L180 688L114 613Z" fill="#861321" stroke="#861321"></path><path d="M273 0L220 0L214 63Z" fill="#67131d" stroke="#67131d"></path><path d="M52 205L0 212L45 276Z" fill="#e30e24" stroke="#e30e24"></path><path d="M0 146L0 212L52 205Z" fill="#59131b" stroke="#59131b"></path><path d="M0 146L52 205L108 111Z" fill="#861321" stroke="#861321"></path><path d="M0 416L0 515L79 428Z" fill="#951223" stroke="#951223"></path><path d="M370 816L414 701L360 712Z" fill="#951223" stroke="#951223"></path><path d="M370 816L457 734L414 701Z" fill="#c40f25" stroke="#c40f25"></path><path d="M162 0L122 89L214 63Z" fill="#c40f25" stroke="#c40f25"></path><path d="M122 89L105 49L108 111Z" fill="#4a1218" stroke="#4a1218"></path><path d="M220 0L162 0L214 63Z" fill="#d30e25" stroke="#d30e25"></path><path d="M675 166L675 106L574 163Z" fill="#67131d" stroke="#67131d"></path><path d="M577 0L563 0L529 61Z" fill="#c40f25" stroke="#c40f25"></path><path d="M0 69L0 146L108 111Z" fill="#861321" stroke="#861321"></path><path d="M505 818L495 740L457 734Z" fill="#67131d" stroke="#67131d"></path><path d="M457 734L495 740L494 701Z" fill="#59131b" stroke="#59131b"></path><path d="M675 637L675 623L580 571Z" fill="#b41025" stroke="#b41025"></path><path d="M252 760L280 760L285 708Z" fill="#4a1218" stroke="#4a1218"></path><path d="M285 708L337 772L360 712Z" fill="#c40f25" stroke="#c40f25"></path><path d="M95 610L76 665L114 613Z" fill="#d30e25" stroke="#d30e25"></path><path d="M180 688L252 760L285 708Z" fill="#a41124" stroke="#a41124"></path><path d="M0 515L0 569L76 562Z" fill="#b41025" stroke="#b41025"></path><path d="M577 0L529 61L584 93Z" fill="#861321" stroke="#861321"></path><path d="M0 653L76 665L95 610Z" fill="#e30e24" stroke="#e30e24"></path><path d="M145 785L252 760L180 688Z" fill="#b41025" stroke="#b41025"></path><path d="M296 786L337 772L280 760Z" fill="#b41025" stroke="#b41025"></path><path d="M280 760L337 772L285 708Z" fill="#4a1218" stroke="#4a1218"></path><path d="M570 714L496 589L494 701Z" fill="#59131b" stroke="#59131b"></path><path d="M495 740L570 714L494 701Z" fill="#e30e24" stroke="#e30e24"></path><path d="M675 0L577 0L584 93Z" fill="#a41124" stroke="#a41124"></path><path d="M570 714L675 637L580 571Z" fill="#761320" stroke="#761320"></path><path d="M232 852L296 786L252 760Z" fill="#4a1218" stroke="#4a1218"></path><path d="M252 760L296 786L280 760Z" fill="#e30e24" stroke="#e30e24"></path><path d="M337 772L370 816L360 712Z" fill="#d30e25" stroke="#d30e25"></path><path d="M495 740L584 728L570 714Z" fill="#a41124" stroke="#a41124"></path><path d="M570 714L584 728L675 637Z" fill="#761320" stroke="#761320"></path><path d="M505 818L584 728L495 740Z" fill="#4a1218" stroke="#4a1218"></path><path d="M58 0L0 69L105 49Z" fill="#c40f25" stroke="#c40f25"></path><path d="M105 49L0 69L108 111Z" fill="#951223" stroke="#951223"></path><path d="M162 0L58 0L105 49Z" fill="#b41025" stroke="#b41025"></path><path d="M0 569L0 653L95 610Z" fill="#c40f25" stroke="#c40f25"></path><path d="M76 665L97 752L180 688Z" fill="#c40f25" stroke="#c40f25"></path><path d="M296 786L370 816L337 772Z" fill="#c40f25" stroke="#c40f25"></path><path d="M0 741L97 752L76 665Z" fill="#c40f25" stroke="#c40f25"></path><path d="M296 786L328 900L370 816Z" fill="#a41124" stroke="#a41124"></path><path d="M97 752L145 785L180 688Z" fill="#761320" stroke="#761320"></path><path d="M675 106L675 0L584 93Z" fill="#861321" stroke="#861321"></path><path d="M461 849L505 818L457 734Z" fill="#59131b" stroke="#59131b"></path><path d="M584 728L675 758L675 637Z" fill="#951223" stroke="#951223"></path><path d="M52 844L120 788L97 752Z" fill="#4a1218" stroke="#4a1218"></path><path d="M97 752L120 788L145 785Z" fill="#67131d" stroke="#67131d"></path><path d="M145 785L232 852L252 760Z" fill="#e30e24" stroke="#e30e24"></path><path d="M58 0L0 0L0 69Z" fill="#a41124" stroke="#a41124"></path><path d="M415 900L461 849L370 816Z" fill="#4a1218" stroke="#4a1218"></path><path d="M370 816L461 849L457 734Z" fill="#861321" stroke="#861321"></path><path d="M192 900L232 852L178 900Z" fill="#b41025" stroke="#b41025"></path><path d="M568 842L584 728L505 818Z" fill="#951223" stroke="#951223"></path><path d="M568 842L675 758L584 728Z" fill="#951223" stroke="#951223"></path><path d="M0 653L0 741L76 665Z" fill="#c40f25" stroke="#c40f25"></path><path d="M178 900L232 852L145 785Z" fill="#951223" stroke="#951223"></path><path d="M500 900L568 842L505 818Z" fill="#951223" stroke="#951223"></path><path d="M192 900L328 900L232 852Z" fill="#861321" stroke="#861321"></path><path d="M232 852L328 900L296 786Z" fill="#d30e25" stroke="#d30e25"></path><path d="M461 849L500 900L505 818Z" fill="#b41025" stroke="#b41025"></path><path d="M328 900L389 900L370 816Z" fill="#a41124" stroke="#a41124"></path><path d="M389 900L415 900L370 816Z" fill="#a41124" stroke="#a41124"></path><path d="M415 900L500 900L461 849Z" fill="#67131d" stroke="#67131d"></path><path d="M568 842L675 844L675 758Z" fill="#67131d" stroke="#67131d"></path><path d="M178 900L145 785L120 788Z" fill="#67131d" stroke="#67131d"></path><path d="M94 900L178 900L120 788Z" fill="#67131d" stroke="#67131d"></path><path d="M0 741L52 844L97 752Z" fill="#b41025" stroke="#b41025"></path><path d="M500 900L566 900L568 842Z" fill="#b41025" stroke="#b41025"></path><path d="M675 900L675 844L568 842Z" fill="#59131b" stroke="#59131b"></path><path d="M52 844L94 900L120 788Z" fill="#d30e25" stroke="#d30e25"></path><path d="M0 741L0 852L52 844Z" fill="#67131d" stroke="#67131d"></path><path d="M52 844L0 900L94 900Z" fill="#67131d" stroke="#67131d"></path><path d="M566 900L675 900L568 842Z" fill="#d30e25" stroke="#d30e25"></path><path d="M0 852L0 900L52 844Z" fill="#4a1218" stroke="#4a1218"></path></g></svg>