<svg id="visual" viewBox="0 0 900 600" width="900" height="600" xmlns="http://www.w3.org/2000/svg" xmlns:xlink="http://www.w3.org/1999/xlink" version="1.1"><path d="M0 43L13.7 44C27.3 45 54.7 47 82 54C109.3 61 136.7 73 163.8 77C191 81 218 77 245.2 79C272.3 81 299.7 89 327 93C354.3 97 381.7 97 409 101C436.3 105 463.7 113 491 106C518.3 99 545.7 77 573 68C600.3 59 627.7 63 654.8 68C682 73 709 79 736.2 81C763.3 83 790.7 81 818 74C845.3 67 872.7 55 886.3 49L900 43L900 0L886.3 0C872.7 0 845.3 0 818 0C790.7 0 763.3 0 736.2 0C709 0 682 0 654.8 0C627.7 0 600.3 0 573 0C545.7 0 518.3 0 491 0C463.7 0 436.3 0 409 0C381.7 0 354.3 0 327 0C299.7 0 272.3 0 245.2 0C218 0 191 0 163.8 0C136.7 0 109.3 0 82 0C54.7 0 27.3 0 13.7 0L0 0Z" fill="#e30e24"></path><path d="M0 199L13.7 202C27.3 205 54.7 211 82 205C109.3 199 136.7 181 163.8 182C191 183 218 203 245.2 211C272.3 219 299.7 215 327 204C354.3 193 381.7 175 409 173C436.3 171 463.7 185 491 178C518.3 171 545.7 143 573 148C600.3 153 627.7 191 654.8 209C682 227 709 225 736.2 210C763.3 195 790.7 167 818 160C845.3 153 872.7 167 886.3 174L900 181L900 41L886.3 47C872.7 53 845.3 65 818 72C790.7 79 763.3 81 736.2 79C709 77 682 71 654.8 66C627.7 61 600.3 57 573 66C545.7 75 518.3 97 491 104C463.7 111 436.3 103 409 99C381.7 95 354.3 95 327 91C299.7 87 272.3 79 245.2 77C218 75 191 79 163.8 75C136.7 71 109.3 59 82 52C54.7 45 27.3 43 13.7 42L0 41Z" fill="#bc0f25"></path><path d="M0 337L13.7 340C27.3 343 54.7 349 82 360C109.3 371 136.7 387 163.8 390C191 393 218 383 245.2 370C272.3 357 299.7 341 327 345C354.3 349 381.7 373 409 394C436.3 415 463.7 433 491 419C518.3 405 545.7 359 573 352C600.3 345 627.7 377 654.8 380C682 383 709 357 736.2 356C763.3 355 790.7 379 818 392C845.3 405 872.7 407 886.3 408L900 409L900 179L886.3 172C872.7 165 845.3 151 818 158C790.7 165 763.3 193 736.2 208C709 223 682 225 654.8 207C627.7 189 600.3 151 573 146C545.7 141 518.3 169 491 176C463.7 183 436.3 169 409 171C381.7 173 354.3 191 327 202C299.7 213 272.3 217 245.2 209C218 201 191 181 163.8 180C136.7 179 109.3 197 82 203C54.7 209 27.3 203 13.7 200L0 197Z" fill="#951223"></path><path d="M0 433L13.7 432C27.3 431 54.7 429 82 432C109.3 435 136.7 443 163.8 440C191 437 218 423 245.2 413C272.3 403 299.7 397 327 402C354.3 407 381.7 423 409 443C436.3 463 463.7 487 491 481C518.3 475 545.7 439 573 432C600.3 425 627.7 447 654.8 444C682 441 709 413 736.2 414C763.3 415 790.7 445 818 459C845.3 473 872.7 471 886.3 470L900 469L900 407L886.3 406C872.7 405 845.3 403 818 390C790.7 377 763.3 353 736.2 354C709 355 682 381 654.8 378C627.7 375 600.3 343 573 350C545.7 357 518.3 403 491 417C463.7 431 436.3 413 409 392C381.7 371 354.3 347 327 343C299.7 339 272.3 355 245.2 368C218 381 191 391 163.8 388C136.7 385 109.3 369 82 358C54.7 347 27.3 341 13.7 338L0 335Z" fill="#6f131e"></path><path d="M0 601L13.7 601C27.3 601 54.7 601 82 601C109.3 601 136.7 601 163.8 601C191 601 218 601 245.2 601C272.3 601 299.7 601 327 601C354.3 601 381.7 601 409 601C436.3 601 463.7 601 491 601C518.3 601 545.7 601 573 601C600.3 601 627.7 601 654.8 601C682 601 709 601 736.2 601C763.3 601 790.7 601 818 601C845.3 601 872.7 601 886.3 601L900 601L900 467L886.3 468C872.7 469 845.3 471 818 457C790.7 443 763.3 413 736.2 412C709 411 682 439 654.8 442C627.7 445 600.3 423 573 430C545.7 437 518.3 473 491 479C463.7 485 436.3 461 409 441C381.7 421 354.3 405 327 400C299.7 395 272.3 401 245.2 411C218 421 191 435 163.8 438C136.7 441 109.3 433 82 430C54.7 427 27.3 429 13.7 430L0 431Z" fill="#4a1218"></path></svg>