<svg id="visual" viewBox="0 0 900 600" width="900" height="600" xmlns="http://www.w3.org/2000/svg" xmlns:xlink="http://www.w3.org/1999/xlink" version="1.1"><rect x="0" y="0" width="900" height="600" fill="#060001"></rect><path d="M0 458L18.8 453.5C37.7 449 75.3 440 112.8 427.2C150.3 414.3 187.7 397.7 225.2 401.5C262.7 405.3 300.3 429.7 337.8 428.8C375.3 428 412.7 402 450.2 406.8C487.7 411.7 525.3 447.3 562.8 465.2C600.3 483 637.7 483 675.2 466.3C712.7 449.7 750.3 416.3 787.8 396.3C825.3 376.3 862.7 369.7 881.3 366.3L900 363L900 601L881.3 601C862.7 601 825.3 601 787.8 601C750.3 601 712.7 601 675.2 601C637.7 601 600.3 601 562.8 601C525.3 601 487.7 601 450.2 601C412.7 601 375.3 601 337.8 601C300.3 601 262.7 601 225.2 601C187.7 601 150.3 601 112.8 601C75.3 601 37.7 601 18.8 601L0 601Z" fill="#e30e24"></path><path d="M0 498L18.8 480.7C37.7 463.3 75.3 428.7 112.8 415C150.3 401.3 187.7 408.7 225.2 411.7C262.7 414.7 300.3 413.3 337.8 415C375.3 416.7 412.7 421.3 450.2 419C487.7 416.7 525.3 407.3 562.8 407.8C600.3 408.3 637.7 418.7 675.2 427.2C712.7 435.7 750.3 442.3 787.8 452.2C825.3 462 862.7 475 881.3 481.5L900 488L900 601L881.3 601C862.7 601 825.3 601 787.8 601C750.3 601 712.7 601 675.2 601C637.7 601 600.3 601 562.8 601C525.3 601 487.7 601 450.2 601C412.7 601 375.3 601 337.8 601C300.3 601 262.7 601 225.2 601C187.7 601 150.3 601 112.8 601C75.3 601 37.7 601 18.8 601L0 601Z" fill="#d20f24"></path><path d="M0 469L18.8 474.2C37.7 479.3 75.3 489.7 112.8 486.3C150.3 483 187.7 466 225.2 457C262.7 448 300.3 447 337.8 443.8C375.3 440.7 412.7 435.3 450.2 436.5C487.7 437.7 525.3 445.3 562.8 444.8C600.3 444.3 637.7 435.7 675.2 446.2C712.7 456.7 750.3 486.3 787.8 490.2C825.3 494 862.7 472 881.3 461L900 450L900 601L881.3 601C862.7 601 825.3 601 787.8 601C750.3 601 712.7 601 675.2 601C637.7 601 600.3 601 562.8 601C525.3 601 487.7 601 450.2 601C412.7 601 375.3 601 337.8 601C300.3 601 262.7 601 225.2 601C187.7 601 150.3 601 112.8 601C75.3 601 37.7 601 18.8 601L0 601Z" fill="#c01024"></path><path d="M0 492L18.8 492.3C37.7 492.7 75.3 493.3 112.8 494.2C150.3 495 187.7 496 225.2 493.2C262.7 490.3 300.3 483.7 337.8 483.8C375.3 484 412.7 491 450.2 492C487.7 493 525.3 488 562.8 487C600.3 486 637.7 489 675.2 489.7C712.7 490.3 750.3 488.7 787.8 491C825.3 493.3 862.7 499.7 881.3 502.8L900 506L900 601L881.3 601C862.7 601 825.3 601 787.8 601C750.3 601 712.7 601 675.2 601C637.7 601 600.3 601 562.8 601C525.3 601 487.7 601 450.2 601C412.7 601 375.3 601 337.8 601C300.3 601 262.7 601 225.2 601C187.7 601 150.3 601 112.8 601C75.3 601 37.7 601 18.8 601L0 601Z" fill="#af1123"></path><path d="M0 530L18.8 529.5C37.7 529 75.3 528 112.8 528.8C150.3 529.7 187.7 532.3 225.2 527.2C262.7 522 300.3 509 337.8 509.2C375.3 509.3 412.7 522.7 450.2 530.5C487.7 538.3 525.3 540.7 562.8 531.8C600.3 523 637.7 503 675.2 498.7C712.7 494.3 750.3 505.7 787.8 511.5C825.3 517.3 862.7 517.7 881.3 517.8L900 518L900 601L881.3 601C862.7 601 825.3 601 787.8 601C750.3 601 712.7 601 675.2 601C637.7 601 600.3 601 562.8 601C525.3 601 487.7 601 450.2 601C412.7 601 375.3 601 337.8 601C300.3 601 262.7 601 225.2 601C187.7 601 150.3 601 112.8 601C75.3 601 37.7 601 18.8 601L0 601Z" fill="#9e1222"></path><path d="M0 554L18.8 552.8C37.7 551.7 75.3 549.3 112.8 546.7C150.3 544 187.7 541 225.2 535.5C262.7 530 300.3 522 337.8 524.3C375.3 526.7 412.7 539.3 450.2 546.8C487.7 554.3 525.3 556.7 562.8 552.3C600.3 548 637.7 537 675.2 534.2C712.7 531.3 750.3 536.7 787.8 536C825.3 535.3 862.7 528.7 881.3 525.3L900 522L900 601L881.3 601C862.7 601 825.3 601 787.8 601C750.3 601 712.7 601 675.2 601C637.7 601 600.3 601 562.8 601C525.3 601 487.7 601 450.2 601C412.7 601 375.3 601 337.8 601C300.3 601 262.7 601 225.2 601C187.7 601 150.3 601 112.8 601C75.3 601 37.7 601 18.8 601L0 601Z" fill="#8d1320"></path><path d="M0 551L18.8 550.5C37.7 550 75.3 549 112.8 550.3C150.3 551.7 187.7 555.3 225.2 555.2C262.7 555 300.3 551 337.8 553.7C375.3 556.3 412.7 565.7 450.2 569.5C487.7 573.3 525.3 571.7 562.8 568.7C600.3 565.7 637.7 561.3 675.2 559C712.7 556.7 750.3 556.3 787.8 558.7C825.3 561 862.7 566 881.3 568.5L900 571L900 601L881.3 601C862.7 601 825.3 601 787.8 601C750.3 601 712.7 601 675.2 601C637.7 601 600.3 601 562.8 601C525.3 601 487.7 601 450.2 601C412.7 601 375.3 601 337.8 601C300.3 601 262.7 601 225.2 601C187.7 601 150.3 601 112.8 601C75.3 601 37.7 601 18.8 601L0 601Z" fill="#7c131e"></path></svg>