<svg id="visual" viewBox="0 0 900 600" width="900" height="600" xmlns="http://www.w3.org/2000/svg" xmlns:xlink="http://www.w3.org/1999/xlink" version="1.1"><rect x="0" y="0" width="900" height="600" fill="#060001"></rect><path d="M0 412L18.8 422.3C37.7 432.7 75.3 453.3 112.8 462.8C150.3 472.3 187.7 470.7 225.2 454.3C262.7 438 300.3 407 337.8 404.7C375.3 402.3 412.7 428.7 450.2 445.7C487.7 462.7 525.3 470.3 562.8 472.5C600.3 474.7 637.7 471.3 675.2 468.3C712.7 465.3 750.3 462.7 787.8 448.8C825.3 435 862.7 410 881.3 397.5L900 385L900 601L881.3 601C862.7 601 825.3 601 787.8 601C750.3 601 712.7 601 675.2 601C637.7 601 600.3 601 562.8 601C525.3 601 487.7 601 450.2 601C412.7 601 375.3 601 337.8 601C300.3 601 262.7 601 225.2 601C187.7 601 150.3 601 112.8 601C75.3 601 37.7 601 18.8 601L0 601Z" fill="#e30e24"></path><path d="M0 420L18.8 419.2C37.7 418.3 75.3 416.7 112.8 421C150.3 425.3 187.7 435.7 225.2 442C262.7 448.3 300.3 450.7 337.8 457C375.3 463.3 412.7 473.7 450.2 465.3C487.7 457 525.3 430 562.8 425.3C600.3 420.7 637.7 438.3 675.2 444.5C712.7 450.7 750.3 445.3 787.8 438.7C825.3 432 862.7 424 881.3 420L900 416L900 601L881.3 601C862.7 601 825.3 601 787.8 601C750.3 601 712.7 601 675.2 601C637.7 601 600.3 601 562.8 601C525.3 601 487.7 601 450.2 601C412.7 601 375.3 601 337.8 601C300.3 601 262.7 601 225.2 601C187.7 601 150.3 601 112.8 601C75.3 601 37.7 601 18.8 601L0 601Z" fill="#d20f24"></path><path d="M0 424L18.8 425C37.7 426 75.3 428 112.8 433.2C150.3 438.3 187.7 446.7 225.2 445.8C262.7 445 300.3 435 337.8 442.8C375.3 450.7 412.7 476.3 450.2 484C487.7 491.7 525.3 481.3 562.8 479.5C600.3 477.7 637.7 484.3 675.2 488C712.7 491.7 750.3 492.3 787.8 487.8C825.3 483.3 862.7 473.7 881.3 468.8L900 464L900 601L881.3 601C862.7 601 825.3 601 787.8 601C750.3 601 712.7 601 675.2 601C637.7 601 600.3 601 562.8 601C525.3 601 487.7 601 450.2 601C412.7 601 375.3 601 337.8 601C300.3 601 262.7 601 225.2 601C187.7 601 150.3 601 112.8 601C75.3 601 37.7 601 18.8 601L0 601Z" fill="#c01024"></path><path d="M0 524L18.8 513C37.7 502 75.3 480 112.8 475.3C150.3 470.7 187.7 483.3 225.2 495.7C262.7 508 300.3 520 337.8 513.3C375.3 506.7 412.7 481.3 450.2 468.7C487.7 456 525.3 456 562.8 456.7C600.3 457.3 637.7 458.7 675.2 463.3C712.7 468 750.3 476 787.8 474.8C825.3 473.7 862.7 463.3 881.3 458.2L900 453L900 601L881.3 601C862.7 601 825.3 601 787.8 601C750.3 601 712.7 601 675.2 601C637.7 601 600.3 601 562.8 601C525.3 601 487.7 601 450.2 601C412.7 601 375.3 601 337.8 601C300.3 601 262.7 601 225.2 601C187.7 601 150.3 601 112.8 601C75.3 601 37.7 601 18.8 601L0 601Z" fill="#af1123"></path><path d="M0 542L18.8 537.7C37.7 533.3 75.3 524.7 112.8 518.3C150.3 512 187.7 508 225.2 504.7C262.7 501.3 300.3 498.7 337.8 505C375.3 511.3 412.7 526.7 450.2 534.5C487.7 542.3 525.3 542.7 562.8 536C600.3 529.3 637.7 515.7 675.2 507.8C712.7 500 750.3 498 787.8 505C825.3 512 862.7 528 881.3 536L900 544L900 601L881.3 601C862.7 601 825.3 601 787.8 601C750.3 601 712.7 601 675.2 601C637.7 601 600.3 601 562.8 601C525.3 601 487.7 601 450.2 601C412.7 601 375.3 601 337.8 601C300.3 601 262.7 601 225.2 601C187.7 601 150.3 601 112.8 601C75.3 601 37.7 601 18.8 601L0 601Z" fill="#9e1222"></path><path d="M0 531L18.8 528.2C37.7 525.3 75.3 519.7 112.8 520.5C150.3 521.3 187.7 528.7 225.2 533.8C262.7 539 300.3 542 337.8 542.8C375.3 543.7 412.7 542.3 450.2 539.2C487.7 536 525.3 531 562.8 534.2C600.3 537.3 637.7 548.7 675.2 547.7C712.7 546.7 750.3 533.3 787.8 525.7C825.3 518 862.7 516 881.3 515L900 514L900 601L881.3 601C862.7 601 825.3 601 787.8 601C750.3 601 712.7 601 675.2 601C637.7 601 600.3 601 562.8 601C525.3 601 487.7 601 450.2 601C412.7 601 375.3 601 337.8 601C300.3 601 262.7 601 225.2 601C187.7 601 150.3 601 112.8 601C75.3 601 37.7 601 18.8 601L0 601Z" fill="#8d1320"></path><path d="M0 548L18.8 550C37.7 552 75.3 556 112.8 559.8C150.3 563.7 187.7 567.3 225.2 567.2C262.7 567 300.3 563 337.8 560.2C375.3 557.3 412.7 555.7 450.2 558.2C487.7 560.7 525.3 567.3 562.8 569C600.3 570.7 637.7 567.3 675.2 566.5C712.7 565.7 750.3 567.3 787.8 569.2C825.3 571 862.7 573 881.3 574L900 575L900 601L881.3 601C862.7 601 825.3 601 787.8 601C750.3 601 712.7 601 675.2 601C637.7 601 600.3 601 562.8 601C525.3 601 487.7 601 450.2 601C412.7 601 375.3 601 337.8 601C300.3 601 262.7 601 225.2 601C187.7 601 150.3 601 112.8 601C75.3 601 37.7 601 18.8 601L0 601Z" fill="#7c131e"></path></svg>