<svg id="visual" viewBox="0 0 900 600" width="900" height="600" xmlns="http://www.w3.org/2000/svg" xmlns:xlink="http://www.w3.org/1999/xlink" version="1.1"><rect x="0" y="0" width="900" height="600" fill="#060001"></rect><path d="M0 404L18.8 402.5C37.7 401 75.3 398 112.8 402.2C150.3 406.3 187.7 417.7 225.2 429.8C262.7 442 300.3 455 337.8 446C375.3 437 412.7 406 450.2 390.7C487.7 375.3 525.3 375.7 562.8 387.5C600.3 399.3 637.7 422.7 675.2 425.7C712.7 428.7 750.3 411.3 787.8 412C825.3 412.7 862.7 431.3 881.3 440.7L900 450L900 601L881.3 601C862.7 601 825.3 601 787.8 601C750.3 601 712.7 601 675.2 601C637.7 601 600.3 601 562.8 601C525.3 601 487.7 601 450.2 601C412.7 601 375.3 601 337.8 601C300.3 601 262.7 601 225.2 601C187.7 601 150.3 601 112.8 601C75.3 601 37.7 601 18.8 601L0 601Z" fill="#e30e24"></path><path d="M0 490L18.8 483.8C37.7 477.7 75.3 465.3 112.8 451.2C150.3 437 187.7 421 225.2 412.5C262.7 404 300.3 403 337.8 415C375.3 427 412.7 452 450.2 454.7C487.7 457.3 525.3 437.7 562.8 430C600.3 422.3 637.7 426.7 675.2 426.2C712.7 425.7 750.3 420.3 787.8 422C825.3 423.7 862.7 432.3 881.3 436.7L900 441L900 601L881.3 601C862.7 601 825.3 601 787.8 601C750.3 601 712.7 601 675.2 601C637.7 601 600.3 601 562.8 601C525.3 601 487.7 601 450.2 601C412.7 601 375.3 601 337.8 601C300.3 601 262.7 601 225.2 601C187.7 601 150.3 601 112.8 601C75.3 601 37.7 601 18.8 601L0 601Z" fill="#d20f24"></path><path d="M0 452L18.8 453.8C37.7 455.7 75.3 459.3 112.8 469.8C150.3 480.3 187.7 497.7 225.2 504.7C262.7 511.7 300.3 508.3 337.8 499.3C375.3 490.3 412.7 475.7 450.2 462.8C487.7 450 525.3 439 562.8 441.5C600.3 444 637.7 460 675.2 466.5C712.7 473 750.3 470 787.8 470.3C825.3 470.7 862.7 474.3 881.3 476.2L900 478L900 601L881.3 601C862.7 601 825.3 601 787.8 601C750.3 601 712.7 601 675.2 601C637.7 601 600.3 601 562.8 601C525.3 601 487.7 601 450.2 601C412.7 601 375.3 601 337.8 601C300.3 601 262.7 601 225.2 601C187.7 601 150.3 601 112.8 601C75.3 601 37.7 601 18.8 601L0 601Z" fill="#c01024"></path><path d="M0 480L18.8 476.3C37.7 472.7 75.3 465.3 112.8 463.3C150.3 461.3 187.7 464.7 225.2 465.7C262.7 466.7 300.3 465.3 337.8 467C375.3 468.7 412.7 473.3 450.2 484C487.7 494.7 525.3 511.3 562.8 511.2C600.3 511 637.7 494 675.2 494.5C712.7 495 750.3 513 787.8 516C825.3 519 862.7 507 881.3 501L900 495L900 601L881.3 601C862.7 601 825.3 601 787.8 601C750.3 601 712.7 601 675.2 601C637.7 601 600.3 601 562.8 601C525.3 601 487.7 601 450.2 601C412.7 601 375.3 601 337.8 601C300.3 601 262.7 601 225.2 601C187.7 601 150.3 601 112.8 601C75.3 601 37.7 601 18.8 601L0 601Z" fill="#af1123"></path><path d="M0 542L18.8 537.5C37.7 533 75.3 524 112.8 517.5C150.3 511 187.7 507 225.2 508.8C262.7 510.7 300.3 518.3 337.8 522.5C375.3 526.7 412.7 527.3 450.2 526C487.7 524.7 525.3 521.3 562.8 518.5C600.3 515.7 637.7 513.3 675.2 518.7C712.7 524 750.3 537 787.8 535.2C825.3 533.3 862.7 516.7 881.3 508.3L900 500L900 601L881.3 601C862.7 601 825.3 601 787.8 601C750.3 601 712.7 601 675.2 601C637.7 601 600.3 601 562.8 601C525.3 601 487.7 601 450.2 601C412.7 601 375.3 601 337.8 601C300.3 601 262.7 601 225.2 601C187.7 601 150.3 601 112.8 601C75.3 601 37.7 601 18.8 601L0 601Z" fill="#9e1222"></path><path d="M0 564L18.8 556.7C37.7 549.3 75.3 534.7 112.8 529.8C150.3 525 187.7 530 225.2 530.2C262.7 530.3 300.3 525.7 337.8 524.7C375.3 523.7 412.7 526.3 450.2 527.8C487.7 529.3 525.3 529.7 562.8 532.5C600.3 535.3 637.7 540.7 675.2 544.3C712.7 548 750.3 550 787.8 548.8C825.3 547.7 862.7 543.3 881.3 541.2L900 539L900 601L881.3 601C862.7 601 825.3 601 787.8 601C750.3 601 712.7 601 675.2 601C637.7 601 600.3 601 562.8 601C525.3 601 487.7 601 450.2 601C412.7 601 375.3 601 337.8 601C300.3 601 262.7 601 225.2 601C187.7 601 150.3 601 112.8 601C75.3 601 37.7 601 18.8 601L0 601Z" fill="#8d1320"></path><path d="M0 574L18.8 573.8C37.7 573.7 75.3 573.3 112.8 572.3C150.3 571.3 187.7 569.7 225.2 566.5C262.7 563.3 300.3 558.7 337.8 558.8C375.3 559 412.7 564 450.2 562.2C487.7 560.3 525.3 551.7 562.8 553C600.3 554.3 637.7 565.7 675.2 569.7C712.7 573.7 750.3 570.3 787.8 568.2C825.3 566 862.7 565 881.3 564.5L900 564L900 601L881.3 601C862.7 601 825.3 601 787.8 601C750.3 601 712.7 601 675.2 601C637.7 601 600.3 601 562.8 601C525.3 601 487.7 601 450.2 601C412.7 601 375.3 601 337.8 601C300.3 601 262.7 601 225.2 601C187.7 601 150.3 601 112.8 601C75.3 601 37.7 601 18.8 601L0 601Z" fill="#7c131e"></path></svg>