<svg id="visual" viewBox="0 0 900 600" width="900" height="600" xmlns="http://www.w3.org/2000/svg" xmlns:xlink="http://www.w3.org/1999/xlink" version="1.1"><rect x="0" y="0" width="900" height="600" fill="#060001"></rect><path d="M0 384L18.8 388.5C37.7 393 75.3 402 112.8 400.3C150.3 398.7 187.7 386.3 225.2 378.7C262.7 371 300.3 368 337.8 367C375.3 366 412.7 367 450.2 377C487.7 387 525.3 406 562.8 409.8C600.3 413.7 637.7 402.3 675.2 410.8C712.7 419.3 750.3 447.7 787.8 446.5C825.3 445.3 862.7 414.7 881.3 399.3L900 384L900 601L881.3 601C862.7 601 825.3 601 787.8 601C750.3 601 712.7 601 675.2 601C637.7 601 600.3 601 562.8 601C525.3 601 487.7 601 450.2 601C412.7 601 375.3 601 337.8 601C300.3 601 262.7 601 225.2 601C187.7 601 150.3 601 112.8 601C75.3 601 37.7 601 18.8 601L0 601Z" fill="#e30e24"></path><path d="M0 490L18.8 478.2C37.7 466.3 75.3 442.7 112.8 430.5C150.3 418.3 187.7 417.7 225.2 428.2C262.7 438.7 300.3 460.3 337.8 468.2C375.3 476 412.7 470 450.2 472C487.7 474 525.3 484 562.8 488.8C600.3 493.7 637.7 493.3 675.2 494.5C712.7 495.7 750.3 498.3 787.8 485.5C825.3 472.7 862.7 444.3 881.3 430.2L900 416L900 601L881.3 601C862.7 601 825.3 601 787.8 601C750.3 601 712.7 601 675.2 601C637.7 601 600.3 601 562.8 601C525.3 601 487.7 601 450.2 601C412.7 601 375.3 601 337.8 601C300.3 601 262.7 601 225.2 601C187.7 601 150.3 601 112.8 601C75.3 601 37.7 601 18.8 601L0 601Z" fill="#d20f24"></path><path d="M0 507L18.8 504.7C37.7 502.3 75.3 497.7 112.8 489C150.3 480.3 187.7 467.7 225.2 463.5C262.7 459.3 300.3 463.7 337.8 468.7C375.3 473.7 412.7 479.3 450.2 486.3C487.7 493.3 525.3 501.7 562.8 494.2C600.3 486.7 637.7 463.3 675.2 460.2C712.7 457 750.3 474 787.8 485.7C825.3 497.3 862.7 503.7 881.3 506.8L900 510L900 601L881.3 601C862.7 601 825.3 601 787.8 601C750.3 601 712.7 601 675.2 601C637.7 601 600.3 601 562.8 601C525.3 601 487.7 601 450.2 601C412.7 601 375.3 601 337.8 601C300.3 601 262.7 601 225.2 601C187.7 601 150.3 601 112.8 601C75.3 601 37.7 601 18.8 601L0 601Z" fill="#c01024"></path><path d="M0 457L18.8 458.8C37.7 460.7 75.3 464.3 112.8 468.8C150.3 473.3 187.7 478.7 225.2 489C262.7 499.3 300.3 514.7 337.8 519.2C375.3 523.7 412.7 517.3 450.2 506.7C487.7 496 525.3 481 562.8 478.2C600.3 475.3 637.7 484.7 675.2 484.8C712.7 485 750.3 476 787.8 478.7C825.3 481.3 862.7 495.7 881.3 502.8L900 510L900 601L881.3 601C862.7 601 825.3 601 787.8 601C750.3 601 712.7 601 675.2 601C637.7 601 600.3 601 562.8 601C525.3 601 487.7 601 450.2 601C412.7 601 375.3 601 337.8 601C300.3 601 262.7 601 225.2 601C187.7 601 150.3 601 112.8 601C75.3 601 37.7 601 18.8 601L0 601Z" fill="#af1123"></path><path d="M0 502L18.8 502.5C37.7 503 75.3 504 112.8 501.5C150.3 499 187.7 493 225.2 497.3C262.7 501.7 300.3 516.3 337.8 526.7C375.3 537 412.7 543 450.2 541.3C487.7 539.7 525.3 530.3 562.8 529.3C600.3 528.3 637.7 535.7 675.2 538.3C712.7 541 750.3 539 787.8 533.7C825.3 528.3 862.7 519.7 881.3 515.3L900 511L900 601L881.3 601C862.7 601 825.3 601 787.8 601C750.3 601 712.7 601 675.2 601C637.7 601 600.3 601 562.8 601C525.3 601 487.7 601 450.2 601C412.7 601 375.3 601 337.8 601C300.3 601 262.7 601 225.2 601C187.7 601 150.3 601 112.8 601C75.3 601 37.7 601 18.8 601L0 601Z" fill="#9e1222"></path><path d="M0 514L18.8 519.2C37.7 524.3 75.3 534.7 112.8 537.5C150.3 540.3 187.7 535.7 225.2 533.3C262.7 531 300.3 531 337.8 528.8C375.3 526.7 412.7 522.3 450.2 522.2C487.7 522 525.3 526 562.8 529.2C600.3 532.3 637.7 534.7 675.2 537.3C712.7 540 750.3 543 787.8 541.8C825.3 540.7 862.7 535.3 881.3 532.7L900 530L900 601L881.3 601C862.7 601 825.3 601 787.8 601C750.3 601 712.7 601 675.2 601C637.7 601 600.3 601 562.8 601C525.3 601 487.7 601 450.2 601C412.7 601 375.3 601 337.8 601C300.3 601 262.7 601 225.2 601C187.7 601 150.3 601 112.8 601C75.3 601 37.7 601 18.8 601L0 601Z" fill="#8d1320"></path><path d="M0 543L18.8 544.7C37.7 546.3 75.3 549.7 112.8 555.5C150.3 561.3 187.7 569.7 225.2 569.8C262.7 570 300.3 562 337.8 557.3C375.3 552.7 412.7 551.3 450.2 550.5C487.7 549.7 525.3 549.3 562.8 553.8C600.3 558.3 637.7 567.7 675.2 569.2C712.7 570.7 750.3 564.3 787.8 563.8C825.3 563.3 862.7 568.7 881.3 571.3L900 574L900 601L881.3 601C862.7 601 825.3 601 787.8 601C750.3 601 712.7 601 675.2 601C637.7 601 600.3 601 562.8 601C525.3 601 487.7 601 450.2 601C412.7 601 375.3 601 337.8 601C300.3 601 262.7 601 225.2 601C187.7 601 150.3 601 112.8 601C75.3 601 37.7 601 18.8 601L0 601Z" fill="#7c131e"></path></svg>