<svg id="visual" viewBox="0 0 900 600" width="900" height="600" xmlns="http://www.w3.org/2000/svg" xmlns:xlink="http://www.w3.org/1999/xlink" version="1.1"><rect x="0" y="0" width="900" height="600" fill="#060001"></rect><path d="M0 456L18.8 450.8C37.7 445.7 75.3 435.3 112.8 438.2C150.3 441 187.7 457 225.2 454.2C262.7 451.3 300.3 429.7 337.8 413.7C375.3 397.7 412.7 387.3 450.2 392.5C487.7 397.7 525.3 418.3 562.8 433.3C600.3 448.3 637.7 457.7 675.2 452.2C712.7 446.7 750.3 426.3 787.8 410.2C825.3 394 862.7 382 881.3 376L900 370L900 601L881.3 601C862.7 601 825.3 601 787.8 601C750.3 601 712.7 601 675.2 601C637.7 601 600.3 601 562.8 601C525.3 601 487.7 601 450.2 601C412.7 601 375.3 601 337.8 601C300.3 601 262.7 601 225.2 601C187.7 601 150.3 601 112.8 601C75.3 601 37.7 601 18.8 601L0 601Z" fill="#e30e24"></path><path d="M0 410L18.8 407.8C37.7 405.7 75.3 401.3 112.8 417.2C150.3 433 187.7 469 225.2 472.3C262.7 475.7 300.3 446.3 337.8 438.3C375.3 430.3 412.7 443.7 450.2 457.2C487.7 470.7 525.3 484.3 562.8 486.3C600.3 488.3 637.7 478.7 675.2 471.2C712.7 463.7 750.3 458.3 787.8 457.7C825.3 457 862.7 461 881.3 463L900 465L900 601L881.3 601C862.7 601 825.3 601 787.8 601C750.3 601 712.7 601 675.2 601C637.7 601 600.3 601 562.8 601C525.3 601 487.7 601 450.2 601C412.7 601 375.3 601 337.8 601C300.3 601 262.7 601 225.2 601C187.7 601 150.3 601 112.8 601C75.3 601 37.7 601 18.8 601L0 601Z" fill="#d20f24"></path><path d="M0 475L18.8 472C37.7 469 75.3 463 112.8 465.8C150.3 468.7 187.7 480.3 225.2 483.5C262.7 486.7 300.3 481.3 337.8 483.2C375.3 485 412.7 494 450.2 493.5C487.7 493 525.3 483 562.8 484C600.3 485 637.7 497 675.2 490.8C712.7 484.7 750.3 460.3 787.8 449.7C825.3 439 862.7 442 881.3 443.5L900 445L900 601L881.3 601C862.7 601 825.3 601 787.8 601C750.3 601 712.7 601 675.2 601C637.7 601 600.3 601 562.8 601C525.3 601 487.7 601 450.2 601C412.7 601 375.3 601 337.8 601C300.3 601 262.7 601 225.2 601C187.7 601 150.3 601 112.8 601C75.3 601 37.7 601 18.8 601L0 601Z" fill="#c01024"></path><path d="M0 517L18.8 517C37.7 517 75.3 517 112.8 518.5C150.3 520 187.7 523 225.2 516.5C262.7 510 300.3 494 337.8 494.7C375.3 495.3 412.7 512.7 450.2 520.5C487.7 528.3 525.3 526.7 562.8 520C600.3 513.3 637.7 501.7 675.2 492.3C712.7 483 750.3 476 787.8 470.2C825.3 464.3 862.7 459.7 881.3 457.3L900 455L900 601L881.3 601C862.7 601 825.3 601 787.8 601C750.3 601 712.7 601 675.2 601C637.7 601 600.3 601 562.8 601C525.3 601 487.7 601 450.2 601C412.7 601 375.3 601 337.8 601C300.3 601 262.7 601 225.2 601C187.7 601 150.3 601 112.8 601C75.3 601 37.7 601 18.8 601L0 601Z" fill="#af1123"></path><path d="M0 489L18.8 496.8C37.7 504.7 75.3 520.3 112.8 530C150.3 539.7 187.7 543.3 225.2 540.8C262.7 538.3 300.3 529.7 337.8 524.2C375.3 518.7 412.7 516.3 450.2 520.5C487.7 524.7 525.3 535.3 562.8 540.8C600.3 546.3 637.7 546.7 675.2 541.2C712.7 535.7 750.3 524.3 787.8 516.3C825.3 508.3 862.7 503.7 881.3 501.3L900 499L900 601L881.3 601C862.7 601 825.3 601 787.8 601C750.3 601 712.7 601 675.2 601C637.7 601 600.3 601 562.8 601C525.3 601 487.7 601 450.2 601C412.7 601 375.3 601 337.8 601C300.3 601 262.7 601 225.2 601C187.7 601 150.3 601 112.8 601C75.3 601 37.7 601 18.8 601L0 601Z" fill="#9e1222"></path><path d="M0 519L18.8 518.8C37.7 518.7 75.3 518.3 112.8 524.7C150.3 531 187.7 544 225.2 546.5C262.7 549 300.3 541 337.8 541C375.3 541 412.7 549 450.2 549.3C487.7 549.7 525.3 542.3 562.8 542C600.3 541.7 637.7 548.3 675.2 549C712.7 549.7 750.3 544.3 787.8 537.8C825.3 531.3 862.7 523.7 881.3 519.8L900 516L900 601L881.3 601C862.7 601 825.3 601 787.8 601C750.3 601 712.7 601 675.2 601C637.7 601 600.3 601 562.8 601C525.3 601 487.7 601 450.2 601C412.7 601 375.3 601 337.8 601C300.3 601 262.7 601 225.2 601C187.7 601 150.3 601 112.8 601C75.3 601 37.7 601 18.8 601L0 601Z" fill="#8d1320"></path><path d="M0 566L18.8 565.5C37.7 565 75.3 564 112.8 565C150.3 566 187.7 569 225.2 567.7C262.7 566.3 300.3 560.7 337.8 557.2C375.3 553.7 412.7 552.3 450.2 551.3C487.7 550.3 525.3 549.7 562.8 553.2C600.3 556.7 637.7 564.3 675.2 565C712.7 565.7 750.3 559.3 787.8 554.8C825.3 550.3 862.7 547.7 881.3 546.3L900 545L900 601L881.3 601C862.7 601 825.3 601 787.8 601C750.3 601 712.7 601 675.2 601C637.7 601 600.3 601 562.8 601C525.3 601 487.7 601 450.2 601C412.7 601 375.3 601 337.8 601C300.3 601 262.7 601 225.2 601C187.7 601 150.3 601 112.8 601C75.3 601 37.7 601 18.8 601L0 601Z" fill="#7c131e"></path></svg>