<svg id="visual" viewBox="0 0 900 600" width="900" height="600" xmlns="http://www.w3.org/2000/svg" xmlns:xlink="http://www.w3.org/1999/xlink" version="1.1"><rect x="0" y="0" width="900" height="600" fill="#060001"></rect><path d="M0 383L18.8 398C37.7 413 75.3 443 112.8 444C150.3 445 187.7 417 225.2 415.7C262.7 414.3 300.3 439.7 337.8 439.5C375.3 439.3 412.7 413.7 450.2 409.5C487.7 405.3 525.3 422.7 562.8 428.7C600.3 434.7 637.7 429.3 675.2 434.3C712.7 439.3 750.3 454.7 787.8 455.7C825.3 456.7 862.7 443.3 881.3 436.7L900 430L900 601L881.3 601C862.7 601 825.3 601 787.8 601C750.3 601 712.7 601 675.2 601C637.7 601 600.3 601 562.8 601C525.3 601 487.7 601 450.2 601C412.7 601 375.3 601 337.8 601C300.3 601 262.7 601 225.2 601C187.7 601 150.3 601 112.8 601C75.3 601 37.7 601 18.8 601L0 601Z" fill="#e30e24"></path><path d="M0 430L18.8 425.5C37.7 421 75.3 412 112.8 418.5C150.3 425 187.7 447 225.2 455.2C262.7 463.3 300.3 457.7 337.8 456.2C375.3 454.7 412.7 457.3 450.2 461.3C487.7 465.3 525.3 470.7 562.8 464.7C600.3 458.7 637.7 441.3 675.2 433.3C712.7 425.3 750.3 426.7 787.8 435.2C825.3 443.7 862.7 459.3 881.3 467.2L900 475L900 601L881.3 601C862.7 601 825.3 601 787.8 601C750.3 601 712.7 601 675.2 601C637.7 601 600.3 601 562.8 601C525.3 601 487.7 601 450.2 601C412.7 601 375.3 601 337.8 601C300.3 601 262.7 601 225.2 601C187.7 601 150.3 601 112.8 601C75.3 601 37.7 601 18.8 601L0 601Z" fill="#d20f24"></path><path d="M0 486L18.8 490.7C37.7 495.3 75.3 504.7 112.8 509.3C150.3 514 187.7 514 225.2 508.3C262.7 502.7 300.3 491.3 337.8 487.2C375.3 483 412.7 486 450.2 491C487.7 496 525.3 503 562.8 492C600.3 481 637.7 452 675.2 451.5C712.7 451 750.3 479 787.8 489C825.3 499 862.7 491 881.3 487L900 483L900 601L881.3 601C862.7 601 825.3 601 787.8 601C750.3 601 712.7 601 675.2 601C637.7 601 600.3 601 562.8 601C525.3 601 487.7 601 450.2 601C412.7 601 375.3 601 337.8 601C300.3 601 262.7 601 225.2 601C187.7 601 150.3 601 112.8 601C75.3 601 37.7 601 18.8 601L0 601Z" fill="#c01024"></path><path d="M0 509L18.8 506.5C37.7 504 75.3 499 112.8 497.2C150.3 495.3 187.7 496.7 225.2 496.5C262.7 496.3 300.3 494.7 337.8 489C375.3 483.3 412.7 473.7 450.2 467.2C487.7 460.7 525.3 457.3 562.8 465.2C600.3 473 637.7 492 675.2 501.8C712.7 511.7 750.3 512.3 787.8 508.8C825.3 505.3 862.7 497.7 881.3 493.8L900 490L900 601L881.3 601C862.7 601 825.3 601 787.8 601C750.3 601 712.7 601 675.2 601C637.7 601 600.3 601 562.8 601C525.3 601 487.7 601 450.2 601C412.7 601 375.3 601 337.8 601C300.3 601 262.7 601 225.2 601C187.7 601 150.3 601 112.8 601C75.3 601 37.7 601 18.8 601L0 601Z" fill="#af1123"></path><path d="M0 522L18.8 518C37.7 514 75.3 506 112.8 505.2C150.3 504.3 187.7 510.7 225.2 511.8C262.7 513 300.3 509 337.8 505.5C375.3 502 412.7 499 450.2 497.2C487.7 495.3 525.3 494.7 562.8 500.7C600.3 506.7 637.7 519.3 675.2 523.2C712.7 527 750.3 522 787.8 515.5C825.3 509 862.7 501 881.3 497L900 493L900 601L881.3 601C862.7 601 825.3 601 787.8 601C750.3 601 712.7 601 675.2 601C637.7 601 600.3 601 562.8 601C525.3 601 487.7 601 450.2 601C412.7 601 375.3 601 337.8 601C300.3 601 262.7 601 225.2 601C187.7 601 150.3 601 112.8 601C75.3 601 37.7 601 18.8 601L0 601Z" fill="#9e1222"></path><path d="M0 565L18.8 558.2C37.7 551.3 75.3 537.7 112.8 530.8C150.3 524 187.7 524 225.2 524.2C262.7 524.3 300.3 524.7 337.8 526.5C375.3 528.3 412.7 531.7 450.2 533.5C487.7 535.3 525.3 535.7 562.8 536.3C600.3 537 637.7 538 675.2 537.7C712.7 537.3 750.3 535.7 787.8 532.3C825.3 529 862.7 524 881.3 521.5L900 519L900 601L881.3 601C862.7 601 825.3 601 787.8 601C750.3 601 712.7 601 675.2 601C637.7 601 600.3 601 562.8 601C525.3 601 487.7 601 450.2 601C412.7 601 375.3 601 337.8 601C300.3 601 262.7 601 225.2 601C187.7 601 150.3 601 112.8 601C75.3 601 37.7 601 18.8 601L0 601Z" fill="#8d1320"></path><path d="M0 552L18.8 555.7C37.7 559.3 75.3 566.7 112.8 570.2C150.3 573.7 187.7 573.3 225.2 570.3C262.7 567.3 300.3 561.7 337.8 558C375.3 554.3 412.7 552.7 450.2 553.2C487.7 553.7 525.3 556.3 562.8 559.7C600.3 563 637.7 567 675.2 570.3C712.7 573.7 750.3 576.3 787.8 572.5C825.3 568.7 862.7 558.3 881.3 553.2L900 548L900 601L881.3 601C862.7 601 825.3 601 787.8 601C750.3 601 712.7 601 675.2 601C637.7 601 600.3 601 562.8 601C525.3 601 487.7 601 450.2 601C412.7 601 375.3 601 337.8 601C300.3 601 262.7 601 225.2 601C187.7 601 150.3 601 112.8 601C75.3 601 37.7 601 18.8 601L0 601Z" fill="#7c131e"></path></svg>