<svg id="visual" viewBox="0 0 675 900" width="675" height="900" xmlns="http://www.w3.org/2000/svg" xmlns:xlink="http://www.w3.org/1999/xlink" version="1.1"><rect x="0" y="0" width="675" height="900" fill="#060001"></rect><path d="M0 525L16 546.2C32 567.3 64 609.7 96.2 627.2C128.3 644.7 160.7 637.3 192.8 622C225 606.7 257 583.3 289.2 577.8C321.3 572.3 353.7 584.7 385.8 594.7C418 604.7 450 612.3 482.2 621.5C514.3 630.7 546.7 641.3 578.8 633C611 624.7 643 597.3 659 583.7L675 570L675 901L659 901C643 901 611 901 578.8 901C546.7 901 514.3 901 482.2 901C450 901 418 901 385.8 901C353.7 901 321.3 901 289.2 901C257 901 225 901 192.8 901C160.7 901 128.3 901 96.2 901C64 901 32 901 16 901L0 901Z" fill="#e30e24"></path><path d="M0 607L16 618.5C32 630 64 653 96.2 669.3C128.3 685.7 160.7 695.3 192.8 695.8C225 696.3 257 687.7 289.2 687.3C321.3 687 353.7 695 385.8 699.8C418 704.7 450 706.3 482.2 700.3C514.3 694.3 546.7 680.7 578.8 666.8C611 653 643 639 659 632L675 625L675 901L659 901C643 901 611 901 578.8 901C546.7 901 514.3 901 482.2 901C450 901 418 901 385.8 901C353.7 901 321.3 901 289.2 901C257 901 225 901 192.8 901C160.7 901 128.3 901 96.2 901C64 901 32 901 16 901L0 901Z" fill="#bc0f25"></path><path d="M0 740L16 732.5C32 725 64 710 96.2 696.7C128.3 683.3 160.7 671.7 192.8 676.2C225 680.7 257 701.3 289.2 715.7C321.3 730 353.7 738 385.8 731.7C418 725.3 450 704.7 482.2 699.3C514.3 694 546.7 704 578.8 712.7C611 721.3 643 728.7 659 732.3L675 736L675 901L659 901C643 901 611 901 578.8 901C546.7 901 514.3 901 482.2 901C450 901 418 901 385.8 901C353.7 901 321.3 901 289.2 901C257 901 225 901 192.8 901C160.7 901 128.3 901 96.2 901C64 901 32 901 16 901L0 901Z" fill="#951223"></path><path d="M0 751L16 746.7C32 742.3 64 733.7 96.2 737C128.3 740.3 160.7 755.7 192.8 770C225 784.3 257 797.7 289.2 803.2C321.3 808.7 353.7 806.3 385.8 801.3C418 796.3 450 788.7 482.2 777.2C514.3 765.7 546.7 750.3 578.8 753C611 755.7 643 776.3 659 786.7L675 797L675 901L659 901C643 901 611 901 578.8 901C546.7 901 514.3 901 482.2 901C450 901 418 901 385.8 901C353.7 901 321.3 901 289.2 901C257 901 225 901 192.8 901C160.7 901 128.3 901 96.2 901C64 901 32 901 16 901L0 901Z" fill="#6f131e"></path><path d="M0 818L16 818.8C32 819.7 64 821.3 96.2 827.3C128.3 833.3 160.7 843.7 192.8 845.3C225 847 257 840 289.2 838.2C321.3 836.3 353.7 839.7 385.8 843.5C418 847.3 450 851.7 482.2 843.7C514.3 835.7 546.7 815.3 578.8 805.5C611 795.7 643 796.3 659 796.7L675 797L675 901L659 901C643 901 611 901 578.8 901C546.7 901 514.3 901 482.2 901C450 901 418 901 385.8 901C353.7 901 321.3 901 289.2 901C257 901 225 901 192.8 901C160.7 901 128.3 901 96.2 901C64 901 32 901 16 901L0 901Z" fill="#4a1218"></path></svg>