<svg id="visual" viewBox="0 0 675 900" width="675" height="900" xmlns="http://www.w3.org/2000/svg" xmlns:xlink="http://www.w3.org/1999/xlink" version="1.1"><rect x="0" y="0" width="675" height="900" fill="#060001"></rect><path d="M0 647L16 641.2C32 635.3 64 623.7 96.2 610.8C128.3 598 160.7 584 192.8 570.7C225 557.3 257 544.7 289.2 547.5C321.3 550.3 353.7 568.7 385.8 590.3C418 612 450 637 482.2 629.5C514.3 622 546.7 582 578.8 570C611 558 643 574 659 582L675 590L675 901L659 901C643 901 611 901 578.8 901C546.7 901 514.3 901 482.2 901C450 901 418 901 385.8 901C353.7 901 321.3 901 289.2 901C257 901 225 901 192.8 901C160.7 901 128.3 901 96.2 901C64 901 32 901 16 901L0 901Z" fill="#e30e24"></path><path d="M0 686L16 682.7C32 679.3 64 672.7 96.2 663.8C128.3 655 160.7 644 192.8 651.8C225 659.7 257 686.3 289.2 688.3C321.3 690.3 353.7 667.7 385.8 668.2C418 668.7 450 692.3 482.2 697.8C514.3 703.3 546.7 690.7 578.8 687.3C611 684 643 690 659 693L675 696L675 901L659 901C643 901 611 901 578.8 901C546.7 901 514.3 901 482.2 901C450 901 418 901 385.8 901C353.7 901 321.3 901 289.2 901C257 901 225 901 192.8 901C160.7 901 128.3 901 96.2 901C64 901 32 901 16 901L0 901Z" fill="#bc0f25"></path><path d="M0 657L16 660.8C32 664.7 64 672.3 96.2 677.2C128.3 682 160.7 684 192.8 694.7C225 705.3 257 724.7 289.2 725.7C321.3 726.7 353.7 709.3 385.8 706C418 702.7 450 713.3 482.2 712.7C514.3 712 546.7 700 578.8 701.7C611 703.3 643 718.7 659 726.3L675 734L675 901L659 901C643 901 611 901 578.8 901C546.7 901 514.3 901 482.2 901C450 901 418 901 385.8 901C353.7 901 321.3 901 289.2 901C257 901 225 901 192.8 901C160.7 901 128.3 901 96.2 901C64 901 32 901 16 901L0 901Z" fill="#951223"></path><path d="M0 801L16 800.7C32 800.3 64 799.7 96.2 797C128.3 794.3 160.7 789.7 192.8 787.2C225 784.7 257 784.3 289.2 780.8C321.3 777.3 353.7 770.7 385.8 772.3C418 774 450 784 482.2 782C514.3 780 546.7 766 578.8 758.8C611 751.7 643 751.3 659 751.2L675 751L675 901L659 901C643 901 611 901 578.8 901C546.7 901 514.3 901 482.2 901C450 901 418 901 385.8 901C353.7 901 321.3 901 289.2 901C257 901 225 901 192.8 901C160.7 901 128.3 901 96.2 901C64 901 32 901 16 901L0 901Z" fill="#6f131e"></path><path d="M0 824L16 825.7C32 827.3 64 830.7 96.2 833.3C128.3 836 160.7 838 192.8 836.5C225 835 257 830 289.2 828C321.3 826 353.7 827 385.8 832.2C418 837.3 450 846.7 482.2 844.8C514.3 843 546.7 830 578.8 827.5C611 825 643 833 659 837L675 841L675 901L659 901C643 901 611 901 578.8 901C546.7 901 514.3 901 482.2 901C450 901 418 901 385.8 901C353.7 901 321.3 901 289.2 901C257 901 225 901 192.8 901C160.7 901 128.3 901 96.2 901C64 901 32 901 16 901L0 901Z" fill="#4a1218"></path></svg>