<svg id="visual" viewBox="0 0 675 900" width="675" height="900" xmlns="http://www.w3.org/2000/svg" xmlns:xlink="http://www.w3.org/1999/xlink" version="1.1"><rect x="0" y="0" width="675" height="900" fill="#060001"></rect><path d="M0 670L16 669C32 668 64 666 96.2 648.3C128.3 630.7 160.7 597.3 192.8 580.2C225 563 257 562 289.2 562.3C321.3 562.7 353.7 564.3 385.8 564.7C418 565 450 564 482.2 570.7C514.3 577.3 546.7 591.7 578.8 594.2C611 596.7 643 587.3 659 582.7L675 578L675 901L659 901C643 901 611 901 578.8 901C546.7 901 514.3 901 482.2 901C450 901 418 901 385.8 901C353.7 901 321.3 901 289.2 901C257 901 225 901 192.8 901C160.7 901 128.3 901 96.2 901C64 901 32 901 16 901L0 901Z" fill="#e30e24"></path><path d="M0 594L16 613.8C32 633.7 64 673.3 96.2 688.8C128.3 704.3 160.7 695.7 192.8 693.2C225 690.7 257 694.3 289.2 698.5C321.3 702.7 353.7 707.3 385.8 699.7C418 692 450 672 482.2 658.2C514.3 644.3 546.7 636.7 578.8 642.5C611 648.3 643 667.7 659 677.3L675 687L675 901L659 901C643 901 611 901 578.8 901C546.7 901 514.3 901 482.2 901C450 901 418 901 385.8 901C353.7 901 321.3 901 289.2 901C257 901 225 901 192.8 901C160.7 901 128.3 901 96.2 901C64 901 32 901 16 901L0 901Z" fill="#bc0f25"></path><path d="M0 677L16 683.2C32 689.3 64 701.7 96.2 709.2C128.3 716.7 160.7 719.3 192.8 710.5C225 701.7 257 681.3 289.2 686.2C321.3 691 353.7 721 385.8 727.8C418 734.7 450 718.3 482.2 710.8C514.3 703.3 546.7 704.7 578.8 710C611 715.3 643 724.7 659 729.3L675 734L675 901L659 901C643 901 611 901 578.8 901C546.7 901 514.3 901 482.2 901C450 901 418 901 385.8 901C353.7 901 321.3 901 289.2 901C257 901 225 901 192.8 901C160.7 901 128.3 901 96.2 901C64 901 32 901 16 901L0 901Z" fill="#951223"></path><path d="M0 737L16 747.5C32 758 64 779 96.2 791.8C128.3 804.7 160.7 809.3 192.8 809.2C225 809 257 804 289.2 796.7C321.3 789.3 353.7 779.7 385.8 782.2C418 784.7 450 799.3 482.2 803.7C514.3 808 546.7 802 578.8 797.5C611 793 643 790 659 788.5L675 787L675 901L659 901C643 901 611 901 578.8 901C546.7 901 514.3 901 482.2 901C450 901 418 901 385.8 901C353.7 901 321.3 901 289.2 901C257 901 225 901 192.8 901C160.7 901 128.3 901 96.2 901C64 901 32 901 16 901L0 901Z" fill="#6f131e"></path><path d="M0 836L16 831.3C32 826.7 64 817.3 96.2 819C128.3 820.7 160.7 833.3 192.8 833.2C225 833 257 820 289.2 813.8C321.3 807.7 353.7 808.3 385.8 808.5C418 808.7 450 808.3 482.2 809.7C514.3 811 546.7 814 578.8 816C611 818 643 819 659 819.5L675 820L675 901L659 901C643 901 611 901 578.8 901C546.7 901 514.3 901 482.2 901C450 901 418 901 385.8 901C353.7 901 321.3 901 289.2 901C257 901 225 901 192.8 901C160.7 901 128.3 901 96.2 901C64 901 32 901 16 901L0 901Z" fill="#4a1218"></path></svg>