<svg id="visual" viewBox="0 0 675 900" width="675" height="900" xmlns="http://www.w3.org/2000/svg" xmlns:xlink="http://www.w3.org/1999/xlink" version="1.1"><rect x="0" y="0" width="675" height="900" fill="#060001"></rect><path d="M0 554L16 558.5C32 563 64 572 96.2 568C128.3 564 160.7 547 192.8 562.5C225 578 257 626 289.2 637.2C321.3 648.3 353.7 622.7 385.8 607.8C418 593 450 589 482.2 597.3C514.3 605.7 546.7 626.3 578.8 636.3C611 646.3 643 645.7 659 645.3L675 645L675 901L659 901C643 901 611 901 578.8 901C546.7 901 514.3 901 482.2 901C450 901 418 901 385.8 901C353.7 901 321.3 901 289.2 901C257 901 225 901 192.8 901C160.7 901 128.3 901 96.2 901C64 901 32 901 16 901L0 901Z" fill="#e30e24"></path><path d="M0 606L16 623.2C32 640.3 64 674.7 96.2 684.8C128.3 695 160.7 681 192.8 663.7C225 646.3 257 625.7 289.2 616.7C321.3 607.7 353.7 610.3 385.8 626.2C418 642 450 671 482.2 684.5C514.3 698 546.7 696 578.8 693.2C611 690.3 643 686.7 659 684.8L675 683L675 901L659 901C643 901 611 901 578.8 901C546.7 901 514.3 901 482.2 901C450 901 418 901 385.8 901C353.7 901 321.3 901 289.2 901C257 901 225 901 192.8 901C160.7 901 128.3 901 96.2 901C64 901 32 901 16 901L0 901Z" fill="#bc0f25"></path><path d="M0 689L16 695.5C32 702 64 715 96.2 712.7C128.3 710.3 160.7 692.7 192.8 695.3C225 698 257 721 289.2 731.5C321.3 742 353.7 740 385.8 736C418 732 450 726 482.2 729.2C514.3 732.3 546.7 744.7 578.8 751C611 757.3 643 757.7 659 757.8L675 758L675 901L659 901C643 901 611 901 578.8 901C546.7 901 514.3 901 482.2 901C450 901 418 901 385.8 901C353.7 901 321.3 901 289.2 901C257 901 225 901 192.8 901C160.7 901 128.3 901 96.2 901C64 901 32 901 16 901L0 901Z" fill="#951223"></path><path d="M0 778L16 770.3C32 762.7 64 747.3 96.2 749C128.3 750.7 160.7 769.3 192.8 773.8C225 778.3 257 768.7 289.2 767.2C321.3 765.7 353.7 772.3 385.8 774.8C418 777.3 450 775.7 482.2 773.7C514.3 771.7 546.7 769.3 578.8 764.5C611 759.7 643 752.3 659 748.7L675 745L675 901L659 901C643 901 611 901 578.8 901C546.7 901 514.3 901 482.2 901C450 901 418 901 385.8 901C353.7 901 321.3 901 289.2 901C257 901 225 901 192.8 901C160.7 901 128.3 901 96.2 901C64 901 32 901 16 901L0 901Z" fill="#6f131e"></path><path d="M0 808L16 809.3C32 810.7 64 813.3 96.2 820.3C128.3 827.3 160.7 838.7 192.8 842.5C225 846.3 257 842.7 289.2 839.8C321.3 837 353.7 835 385.8 835.7C418 836.3 450 839.7 482.2 843.2C514.3 846.7 546.7 850.3 578.8 844.3C611 838.3 643 822.7 659 814.8L675 807L675 901L659 901C643 901 611 901 578.8 901C546.7 901 514.3 901 482.2 901C450 901 418 901 385.8 901C353.7 901 321.3 901 289.2 901C257 901 225 901 192.8 901C160.7 901 128.3 901 96.2 901C64 901 32 901 16 901L0 901Z" fill="#4a1218"></path></svg>