<svg id="visual" viewBox="0 0 675 900" width="675" height="900" xmlns="http://www.w3.org/2000/svg" xmlns:xlink="http://www.w3.org/1999/xlink" version="1.1"><rect x="0" y="0" width="675" height="900" fill="#060001"></rect><path d="M0 580L16 571.8C32 563.7 64 547.3 96.2 542.7C128.3 538 160.7 545 192.8 564.3C225 583.7 257 615.3 289.2 628.7C321.3 642 353.7 637 385.8 633.2C418 629.3 450 626.7 482.2 615C514.3 603.3 546.7 582.7 578.8 575.5C611 568.3 643 574.7 659 577.8L675 581L675 901L659 901C643 901 611 901 578.8 901C546.7 901 514.3 901 482.2 901C450 901 418 901 385.8 901C353.7 901 321.3 901 289.2 901C257 901 225 901 192.8 901C160.7 901 128.3 901 96.2 901C64 901 32 901 16 901L0 901Z" fill="#e30e24"></path><path d="M0 646L16 642.5C32 639 64 632 96.2 641.2C128.3 650.3 160.7 675.7 192.8 687.2C225 698.7 257 696.3 289.2 682.5C321.3 668.7 353.7 643.3 385.8 642C418 640.7 450 663.3 482.2 674C514.3 684.7 546.7 683.3 578.8 681.5C611 679.7 643 677.3 659 676.2L675 675L675 901L659 901C643 901 611 901 578.8 901C546.7 901 514.3 901 482.2 901C450 901 418 901 385.8 901C353.7 901 321.3 901 289.2 901C257 901 225 901 192.8 901C160.7 901 128.3 901 96.2 901C64 901 32 901 16 901L0 901Z" fill="#bc0f25"></path><path d="M0 695L16 703C32 711 64 727 96.2 734.2C128.3 741.3 160.7 739.7 192.8 735.3C225 731 257 724 289.2 728.5C321.3 733 353.7 749 385.8 743C418 737 450 709 482.2 704.8C514.3 700.7 546.7 720.3 578.8 721.8C611 723.3 643 706.7 659 698.3L675 690L675 901L659 901C643 901 611 901 578.8 901C546.7 901 514.3 901 482.2 901C450 901 418 901 385.8 901C353.7 901 321.3 901 289.2 901C257 901 225 901 192.8 901C160.7 901 128.3 901 96.2 901C64 901 32 901 16 901L0 901Z" fill="#951223"></path><path d="M0 788L16 779.2C32 770.3 64 752.7 96.2 756.5C128.3 760.3 160.7 785.7 192.8 793C225 800.3 257 789.7 289.2 776C321.3 762.3 353.7 745.7 385.8 736.7C418 727.7 450 726.3 482.2 737.2C514.3 748 546.7 771 578.8 780C611 789 643 784 659 781.5L675 779L675 901L659 901C643 901 611 901 578.8 901C546.7 901 514.3 901 482.2 901C450 901 418 901 385.8 901C353.7 901 321.3 901 289.2 901C257 901 225 901 192.8 901C160.7 901 128.3 901 96.2 901C64 901 32 901 16 901L0 901Z" fill="#6f131e"></path><path d="M0 838L16 832C32 826 64 814 96.2 811.7C128.3 809.3 160.7 816.7 192.8 821C225 825.3 257 826.7 289.2 825.7C321.3 824.7 353.7 821.3 385.8 825.8C418 830.3 450 842.7 482.2 839.3C514.3 836 546.7 817 578.8 807C611 797 643 796 659 795.5L675 795L675 901L659 901C643 901 611 901 578.8 901C546.7 901 514.3 901 482.2 901C450 901 418 901 385.8 901C353.7 901 321.3 901 289.2 901C257 901 225 901 192.8 901C160.7 901 128.3 901 96.2 901C64 901 32 901 16 901L0 901Z" fill="#4a1218"></path></svg>