<svg id="visual" viewBox="0 0 675 900" width="675" height="900" xmlns="http://www.w3.org/2000/svg" xmlns:xlink="http://www.w3.org/1999/xlink" version="1.1"><rect x="0" y="0" width="675" height="900" fill="#060001"></rect><path d="M0 620L16 621.3C32 622.7 64 625.3 96.2 624C128.3 622.7 160.7 617.3 192.8 624.8C225 632.3 257 652.7 289.2 641.2C321.3 629.7 353.7 586.3 385.8 562C418 537.7 450 532.3 482.2 529.3C514.3 526.3 546.7 525.7 578.8 534.2C611 542.7 643 560.3 659 569.2L675 578L675 901L659 901C643 901 611 901 578.8 901C546.7 901 514.3 901 482.2 901C450 901 418 901 385.8 901C353.7 901 321.3 901 289.2 901C257 901 225 901 192.8 901C160.7 901 128.3 901 96.2 901C64 901 32 901 16 901L0 901Z" fill="#e30e24"></path><path d="M0 626L16 635.5C32 645 64 664 96.2 674.8C128.3 685.7 160.7 688.3 192.8 693.8C225 699.3 257 707.7 289.2 708.3C321.3 709 353.7 702 385.8 684.8C418 667.7 450 640.3 482.2 622.8C514.3 605.3 546.7 597.7 578.8 594.3C611 591 643 592 659 592.5L675 593L675 901L659 901C643 901 611 901 578.8 901C546.7 901 514.3 901 482.2 901C450 901 418 901 385.8 901C353.7 901 321.3 901 289.2 901C257 901 225 901 192.8 901C160.7 901 128.3 901 96.2 901C64 901 32 901 16 901L0 901Z" fill="#bc0f25"></path><path d="M0 676L16 677.2C32 678.3 64 680.7 96.2 687.3C128.3 694 160.7 705 192.8 717C225 729 257 742 289.2 748C321.3 754 353.7 753 385.8 750.3C418 747.7 450 743.3 482.2 731.7C514.3 720 546.7 701 578.8 702C611 703 643 724 659 734.5L675 745L675 901L659 901C643 901 611 901 578.8 901C546.7 901 514.3 901 482.2 901C450 901 418 901 385.8 901C353.7 901 321.3 901 289.2 901C257 901 225 901 192.8 901C160.7 901 128.3 901 96.2 901C64 901 32 901 16 901L0 901Z" fill="#951223"></path><path d="M0 804L16 799.2C32 794.3 64 784.7 96.2 781.3C128.3 778 160.7 781 192.8 785C225 789 257 794 289.2 790.7C321.3 787.3 353.7 775.7 385.8 762.7C418 749.7 450 735.3 482.2 743.5C514.3 751.7 546.7 782.3 578.8 790C611 797.7 643 782.3 659 774.7L675 767L675 901L659 901C643 901 611 901 578.8 901C546.7 901 514.3 901 482.2 901C450 901 418 901 385.8 901C353.7 901 321.3 901 289.2 901C257 901 225 901 192.8 901C160.7 901 128.3 901 96.2 901C64 901 32 901 16 901L0 901Z" fill="#6f131e"></path><path d="M0 787L16 794C32 801 64 815 96.2 825C128.3 835 160.7 841 192.8 841.5C225 842 257 837 289.2 830.5C321.3 824 353.7 816 385.8 814.7C418 813.3 450 818.7 482.2 820.8C514.3 823 546.7 822 578.8 822.8C611 823.7 643 826.3 659 827.7L675 829L675 901L659 901C643 901 611 901 578.8 901C546.7 901 514.3 901 482.2 901C450 901 418 901 385.8 901C353.7 901 321.3 901 289.2 901C257 901 225 901 192.8 901C160.7 901 128.3 901 96.2 901C64 901 32 901 16 901L0 901Z" fill="#4a1218"></path></svg>