<svg id="visual" viewBox="0 0 675 900" width="675" height="900" xmlns="http://www.w3.org/2000/svg" xmlns:xlink="http://www.w3.org/1999/xlink" version="1.1"><rect x="0" y="0" width="675" height="900" fill="#060001"></rect><path d="M0 634L16 622.5C32 611 64 588 96.2 573.8C128.3 559.7 160.7 554.3 192.8 562.3C225 570.3 257 591.7 289.2 612C321.3 632.3 353.7 651.7 385.8 654C418 656.3 450 641.7 482.2 634.8C514.3 628 546.7 629 578.8 618C611 607 643 584 659 572.5L675 561L675 901L659 901C643 901 611 901 578.8 901C546.7 901 514.3 901 482.2 901C450 901 418 901 385.8 901C353.7 901 321.3 901 289.2 901C257 901 225 901 192.8 901C160.7 901 128.3 901 96.2 901C64 901 32 901 16 901L0 901Z" fill="#e30e24"></path><path d="M0 710L16 698.8C32 687.7 64 665.3 96.2 663.2C128.3 661 160.7 679 192.8 682C225 685 257 673 289.2 675.3C321.3 677.7 353.7 694.3 385.8 690.2C418 686 450 661 482.2 647C514.3 633 546.7 630 578.8 640.8C611 651.7 643 676.3 659 688.7L675 701L675 901L659 901C643 901 611 901 578.8 901C546.7 901 514.3 901 482.2 901C450 901 418 901 385.8 901C353.7 901 321.3 901 289.2 901C257 901 225 901 192.8 901C160.7 901 128.3 901 96.2 901C64 901 32 901 16 901L0 901Z" fill="#bc0f25"></path><path d="M0 731L16 718.5C32 706 64 681 96.2 676.7C128.3 672.3 160.7 688.7 192.8 691C225 693.3 257 681.7 289.2 675.8C321.3 670 353.7 670 385.8 683.7C418 697.3 450 724.7 482.2 728.5C514.3 732.3 546.7 712.7 578.8 709.2C611 705.7 643 718.3 659 724.7L675 731L675 901L659 901C643 901 611 901 578.8 901C546.7 901 514.3 901 482.2 901C450 901 418 901 385.8 901C353.7 901 321.3 901 289.2 901C257 901 225 901 192.8 901C160.7 901 128.3 901 96.2 901C64 901 32 901 16 901L0 901Z" fill="#951223"></path><path d="M0 780L16 782.7C32 785.3 64 790.7 96.2 784.2C128.3 777.7 160.7 759.3 192.8 758C225 756.7 257 772.3 289.2 776.7C321.3 781 353.7 774 385.8 774.8C418 775.7 450 784.3 482.2 780.8C514.3 777.3 546.7 761.7 578.8 751.8C611 742 643 738 659 736L675 734L675 901L659 901C643 901 611 901 578.8 901C546.7 901 514.3 901 482.2 901C450 901 418 901 385.8 901C353.7 901 321.3 901 289.2 901C257 901 225 901 192.8 901C160.7 901 128.3 901 96.2 901C64 901 32 901 16 901L0 901Z" fill="#6f131e"></path><path d="M0 853L16 848.5C32 844 64 835 96.2 830.3C128.3 825.7 160.7 825.3 192.8 829.5C225 833.7 257 842.3 289.2 845C321.3 847.7 353.7 844.3 385.8 844.8C418 845.3 450 849.7 482.2 843.8C514.3 838 546.7 822 578.8 821.3C611 820.7 643 835.3 659 842.7L675 850L675 901L659 901C643 901 611 901 578.8 901C546.7 901 514.3 901 482.2 901C450 901 418 901 385.8 901C353.7 901 321.3 901 289.2 901C257 901 225 901 192.8 901C160.7 901 128.3 901 96.2 901C64 901 32 901 16 901L0 901Z" fill="#4a1218"></path></svg>