<svg id="visual" viewBox="0 0 900 600" width="900" height="600" xmlns="http://www.w3.org/2000/svg" xmlns:xlink="http://www.w3.org/1999/xlink" version="1.1"><path d="M0 97L13.7 87C27.3 77 54.7 57 82 50C109.3 43 136.7 49 163.8 58C191 67 218 79 245.2 87C272.3 95 299.7 99 327 95C354.3 91 381.7 79 409 75C436.3 71 463.7 75 491 80C518.3 85 545.7 91 573 94C600.3 97 627.7 97 654.8 95C682 93 709 89 736.2 87C763.3 85 790.7 85 818 84C845.3 83 872.7 81 886.3 80L900 79L900 0L886.3 0C872.7 0 845.3 0 818 0C790.7 0 763.3 0 736.2 0C709 0 682 0 654.8 0C627.7 0 600.3 0 573 0C545.7 0 518.3 0 491 0C463.7 0 436.3 0 409 0C381.7 0 354.3 0 327 0C299.7 0 272.3 0 245.2 0C218 0 191 0 163.8 0C136.7 0 109.3 0 82 0C54.7 0 27.3 0 13.7 0L0 0Z" fill="#e30e24"></path><path d="M0 283L13.7 284C27.3 285 54.7 287 82 266C109.3 245 136.7 201 163.8 186C191 171 218 185 245.2 208C272.3 231 299.7 263 327 278C354.3 293 381.7 291 409 271C436.3 251 463.7 213 491 197C518.3 181 545.7 187 573 195C600.3 203 627.7 213 654.8 232C682 251 709 279 736.2 286C763.3 293 790.7 279 818 261C845.3 243 872.7 221 886.3 210L900 199L900 77L886.3 78C872.7 79 845.3 81 818 82C790.7 83 763.3 83 736.2 85C709 87 682 91 654.8 93C627.7 95 600.3 95 573 92C545.7 89 518.3 83 491 78C463.7 73 436.3 69 409 73C381.7 77 354.3 89 327 93C299.7 97 272.3 93 245.2 85C218 77 191 65 163.8 56C136.7 47 109.3 41 82 48C54.7 55 27.3 75 13.7 85L0 95Z" fill="#bc0f25"></path><path d="M0 409L13.7 412C27.3 415 54.7 421 82 413C109.3 405 136.7 383 163.8 385C191 387 218 413 245.2 425C272.3 437 299.7 435 327 438C354.3 441 381.7 449 409 455C436.3 461 463.7 465 491 456C518.3 447 545.7 425 573 415C600.3 405 627.7 407 654.8 414C682 421 709 433 736.2 425C763.3 417 790.7 389 818 395C845.3 401 872.7 441 886.3 461L900 481L900 197L886.3 208C872.7 219 845.3 241 818 259C790.7 277 763.3 291 736.2 284C709 277 682 249 654.8 230C627.7 211 600.3 201 573 193C545.7 185 518.3 179 491 195C463.7 211 436.3 249 409 269C381.7 289 354.3 291 327 276C299.7 261 272.3 229 245.2 206C218 183 191 169 163.8 184C136.7 199 109.3 243 82 264C54.7 285 27.3 283 13.7 282L0 281Z" fill="#951223"></path><path d="M0 493L13.7 495C27.3 497 54.7 501 82 508C109.3 515 136.7 525 163.8 525C191 525 218 515 245.2 507C272.3 499 299.7 493 327 500C354.3 507 381.7 527 409 533C436.3 539 463.7 531 491 529C518.3 527 545.7 531 573 525C600.3 519 627.7 503 654.8 501C682 499 709 511 736.2 515C763.3 519 790.7 515 818 517C845.3 519 872.7 527 886.3 531L900 535L900 479L886.3 459C872.7 439 845.3 399 818 393C790.7 387 763.3 415 736.2 423C709 431 682 419 654.8 412C627.7 405 600.3 403 573 413C545.7 423 518.3 445 491 454C463.7 463 436.3 459 409 453C381.7 447 354.3 439 327 436C299.7 433 272.3 435 245.2 423C218 411 191 385 163.8 383C136.7 381 109.3 403 82 411C54.7 419 27.3 413 13.7 410L0 407Z" fill="#6f131e"></path><path d="M0 601L13.7 601C27.3 601 54.7 601 82 601C109.3 601 136.7 601 163.8 601C191 601 218 601 245.2 601C272.3 601 299.7 601 327 601C354.3 601 381.7 601 409 601C436.3 601 463.7 601 491 601C518.3 601 545.7 601 573 601C600.3 601 627.7 601 654.8 601C682 601 709 601 736.2 601C763.3 601 790.7 601 818 601C845.3 601 872.7 601 886.3 601L900 601L900 533L886.3 529C872.7 525 845.3 517 818 515C790.7 513 763.3 517 736.2 513C709 509 682 497 654.8 499C627.7 501 600.3 517 573 523C545.7 529 518.3 525 491 527C463.7 529 436.3 537 409 531C381.7 525 354.3 505 327 498C299.7 491 272.3 497 245.2 505C218 513 191 523 163.8 523C136.7 523 109.3 513 82 506C54.7 499 27.3 495 13.7 493L0 491Z" fill="#4a1218"></path></svg>