<svg id="visual" viewBox="0 0 900 600" width="900" height="600" xmlns="http://www.w3.org/2000/svg" xmlns:xlink="http://www.w3.org/1999/xlink" version="1.1"><path d="M0 163L13.7 155C27.3 147 54.7 131 82 124C109.3 117 136.7 119 163.8 121C191 123 218 125 245.2 130C272.3 135 299.7 143 327 141C354.3 139 381.7 127 409 122C436.3 117 463.7 119 491 115C518.3 111 545.7 101 573 106C600.3 111 627.7 131 654.8 139C682 147 709 143 736.2 137C763.3 131 790.7 123 818 113C845.3 103 872.7 91 886.3 85L900 79L900 0L886.3 0C872.7 0 845.3 0 818 0C790.7 0 763.3 0 736.2 0C709 0 682 0 654.8 0C627.7 0 600.3 0 573 0C545.7 0 518.3 0 491 0C463.7 0 436.3 0 409 0C381.7 0 354.3 0 327 0C299.7 0 272.3 0 245.2 0C218 0 191 0 163.8 0C136.7 0 109.3 0 82 0C54.7 0 27.3 0 13.7 0L0 0Z" fill="#e30e24"></path><path d="M0 211L13.7 207C27.3 203 54.7 195 82 194C109.3 193 136.7 199 163.8 202C191 205 218 205 245.2 204C272.3 203 299.7 201 327 201C354.3 201 381.7 203 409 210C436.3 217 463.7 229 491 225C518.3 221 545.7 201 573 207C600.3 213 627.7 245 654.8 255C682 265 709 253 736.2 234C763.3 215 790.7 189 818 181C845.3 173 872.7 183 886.3 188L900 193L900 77L886.3 83C872.7 89 845.3 101 818 111C790.7 121 763.3 129 736.2 135C709 141 682 145 654.8 137C627.7 129 600.3 109 573 104C545.7 99 518.3 109 491 113C463.7 117 436.3 115 409 120C381.7 125 354.3 137 327 139C299.7 141 272.3 133 245.2 128C218 123 191 121 163.8 119C136.7 117 109.3 115 82 122C54.7 129 27.3 145 13.7 153L0 161Z" fill="#bc0f25"></path><path d="M0 247L13.7 252C27.3 257 54.7 267 82 274C109.3 281 136.7 285 163.8 280C191 275 218 261 245.2 255C272.3 249 299.7 251 327 253C354.3 255 381.7 257 409 261C436.3 265 463.7 271 491 271C518.3 271 545.7 265 573 274C600.3 283 627.7 307 654.8 321C682 335 709 339 736.2 319C763.3 299 790.7 255 818 247C845.3 239 872.7 267 886.3 281L900 295L900 191L886.3 186C872.7 181 845.3 171 818 179C790.7 187 763.3 213 736.2 232C709 251 682 263 654.8 253C627.7 243 600.3 211 573 205C545.7 199 518.3 219 491 223C463.7 227 436.3 215 409 208C381.7 201 354.3 199 327 199C299.7 199 272.3 201 245.2 202C218 203 191 203 163.8 200C136.7 197 109.3 191 82 192C54.7 193 27.3 201 13.7 205L0 209Z" fill="#951223"></path><path d="M0 511L13.7 490C27.3 469 54.7 427 82 423C109.3 419 136.7 453 163.8 458C191 463 218 439 245.2 424C272.3 409 299.7 403 327 420C354.3 437 381.7 477 409 493C436.3 509 463.7 501 491 481C518.3 461 545.7 429 573 426C600.3 423 627.7 449 654.8 470C682 491 709 507 736.2 484C763.3 461 790.7 399 818 376C845.3 353 872.7 369 886.3 377L900 385L900 293L886.3 279C872.7 265 845.3 237 818 245C790.7 253 763.3 297 736.2 317C709 337 682 333 654.8 319C627.7 305 600.3 281 573 272C545.7 263 518.3 269 491 269C463.7 269 436.3 263 409 259C381.7 255 354.3 253 327 251C299.7 249 272.3 247 245.2 253C218 259 191 273 163.8 278C136.7 283 109.3 279 82 272C54.7 265 27.3 255 13.7 250L0 245Z" fill="#6f131e"></path><path d="M0 601L13.7 601C27.3 601 54.7 601 82 601C109.3 601 136.7 601 163.8 601C191 601 218 601 245.2 601C272.3 601 299.7 601 327 601C354.3 601 381.7 601 409 601C436.3 601 463.7 601 491 601C518.3 601 545.7 601 573 601C600.3 601 627.7 601 654.8 601C682 601 709 601 736.2 601C763.3 601 790.7 601 818 601C845.3 601 872.7 601 886.3 601L900 601L900 383L886.3 375C872.7 367 845.3 351 818 374C790.7 397 763.3 459 736.2 482C709 505 682 489 654.8 468C627.7 447 600.3 421 573 424C545.7 427 518.3 459 491 479C463.7 499 436.3 507 409 491C381.7 475 354.3 435 327 418C299.7 401 272.3 407 245.2 422C218 437 191 461 163.8 456C136.7 451 109.3 417 82 421C54.7 425 27.3 467 13.7 488L0 509Z" fill="#4a1218"></path></svg>