<svg id="visual" viewBox="0 0 675 900" width="675" height="900" xmlns="http://www.w3.org/2000/svg" xmlns:xlink="http://www.w3.org/1999/xlink" version="1.1"><g stroke-width="1" stroke-linejoin="bevel"><path d="M294 449L240 444L289 498Z" fill="#861321" stroke="#861321"></path><path d="M294 449L262 392L240 444Z" fill="#761320" stroke="#761320"></path><path d="M240 444L216 550L289 498Z" fill="#951223" stroke="#951223"></path><path d="M262 392L214 390L240 444Z" fill="#761320" stroke="#761320"></path><path d="M240 444L158 488L216 550Z" fill="#67131d" stroke="#67131d"></path><path d="M214 390L158 488L240 444Z" fill="#c40f25" stroke="#c40f25"></path><path d="M382 517L374 422L294 449Z" fill="#e30e24" stroke="#e30e24"></path><path d="M294 449L377 383L262 392Z" fill="#951223" stroke="#951223"></path><path d="M300 604L382 517L289 498Z" fill="#d30e25" stroke="#d30e25"></path><path d="M289 498L382 517L294 449Z" fill="#861321" stroke="#861321"></path><path d="M214 390L134 485L158 488Z" fill="#861321" stroke="#861321"></path><path d="M158 488L87 554L216 550Z" fill="#951223" stroke="#951223"></path><path d="M216 550L300 604L289 498Z" fill="#b41025" stroke="#b41025"></path><path d="M454 398L377 383L374 422Z" fill="#c40f25" stroke="#c40f25"></path><path d="M374 422L377 383L294 449Z" fill="#d30e25" stroke="#d30e25"></path><path d="M262 392L240 309L214 390Z" fill="#4a1218" stroke="#4a1218"></path><path d="M137 620L240 613L216 550Z" fill="#d30e25" stroke="#d30e25"></path><path d="M216 550L240 613L300 604Z" fill="#67131d" stroke="#67131d"></path><path d="M341 319L240 309L262 392Z" fill="#c40f25" stroke="#c40f25"></path><path d="M214 390L159 338L134 485Z" fill="#67131d" stroke="#67131d"></path><path d="M240 309L159 338L214 390Z" fill="#4a1218" stroke="#4a1218"></path><path d="M377 383L341 319L262 392Z" fill="#761320" stroke="#761320"></path><path d="M59 489L87 554L134 485Z" fill="#c40f25" stroke="#c40f25"></path><path d="M134 485L87 554L158 488Z" fill="#a41124" stroke="#a41124"></path><path d="M87 554L137 620L216 550Z" fill="#a41124" stroke="#a41124"></path><path d="M240 613L296 670L300 604Z" fill="#e30e24" stroke="#e30e24"></path><path d="M412 634L458 531L382 517Z" fill="#b41025" stroke="#b41025"></path><path d="M196 666L296 670L240 613Z" fill="#a41124" stroke="#a41124"></path><path d="M240 309L147 307L159 338Z" fill="#951223" stroke="#951223"></path><path d="M45 383L59 489L134 485Z" fill="#861321" stroke="#861321"></path><path d="M412 634L382 517L300 604Z" fill="#67131d" stroke="#67131d"></path><path d="M489 435L454 398L374 422Z" fill="#4a1218" stroke="#4a1218"></path><path d="M489 435L374 422L382 517Z" fill="#59131b" stroke="#59131b"></path><path d="M377 383L484 279L341 319Z" fill="#c40f25" stroke="#c40f25"></path><path d="M45 383L134 485L159 338Z" fill="#a41124" stroke="#a41124"></path><path d="M137 620L196 666L240 613Z" fill="#761320" stroke="#761320"></path><path d="M362 234L315 265L341 319Z" fill="#761320" stroke="#761320"></path><path d="M341 319L315 265L240 309Z" fill="#e30e24" stroke="#e30e24"></path><path d="M188 186L112 262L147 307Z" fill="#951223" stroke="#951223"></path><path d="M381 686L412 634L300 604Z" fill="#59131b" stroke="#59131b"></path><path d="M458 531L489 435L382 517Z" fill="#761320" stroke="#761320"></path><path d="M87 554L65 590L137 620Z" fill="#761320" stroke="#761320"></path><path d="M137 620L112 656L196 666Z" fill="#59131b" stroke="#59131b"></path><path d="M0 544L65 590L87 554Z" fill="#c40f25" stroke="#c40f25"></path><path d="M416 705L437 633L412 634Z" fill="#c40f25" stroke="#c40f25"></path><path d="M412 634L437 633L458 531Z" fill="#a41124" stroke="#a41124"></path><path d="M458 531L507 479L489 435Z" fill="#d30e25" stroke="#d30e25"></path><path d="M147 307L45 383L159 338Z" fill="#59131b" stroke="#59131b"></path><path d="M59 489L0 544L87 554Z" fill="#861321" stroke="#861321"></path><path d="M437 633L493 540L458 531Z" fill="#a41124" stroke="#a41124"></path><path d="M65 590L112 656L137 620Z" fill="#e30e24" stroke="#e30e24"></path><path d="M493 540L507 479L458 531Z" fill="#59131b" stroke="#59131b"></path><path d="M296 670L381 686L300 604Z" fill="#4a1218" stroke="#4a1218"></path><path d="M330 754L381 686L296 670Z" fill="#c40f25" stroke="#c40f25"></path><path d="M185 776L228 716L196 666Z" fill="#861321" stroke="#861321"></path><path d="M196 666L228 716L296 670Z" fill="#b41025" stroke="#b41025"></path><path d="M484 279L362 234L341 319Z" fill="#861321" stroke="#861321"></path><path d="M188 186L147 307L240 309Z" fill="#761320" stroke="#761320"></path><path d="M484 279L377 383L454 398Z" fill="#59131b" stroke="#59131b"></path><path d="M223 191L240 309L315 265Z" fill="#e30e24" stroke="#e30e24"></path><path d="M147 307L95 270L45 383Z" fill="#4a1218" stroke="#4a1218"></path><path d="M112 262L95 270L147 307Z" fill="#d30e25" stroke="#d30e25"></path><path d="M0 358L0 482L45 383Z" fill="#4a1218" stroke="#4a1218"></path><path d="M45 383L0 482L59 489Z" fill="#67131d" stroke="#67131d"></path><path d="M0 482L0 544L59 489Z" fill="#4a1218" stroke="#4a1218"></path><path d="M65 590L38 691L112 656Z" fill="#861321" stroke="#861321"></path><path d="M437 633L523 573L493 540Z" fill="#b41025" stroke="#b41025"></path><path d="M493 540L583 560L507 479Z" fill="#761320" stroke="#761320"></path><path d="M562 640L523 573L437 633Z" fill="#761320" stroke="#761320"></path><path d="M387 743L416 705L381 686Z" fill="#951223" stroke="#951223"></path><path d="M381 686L416 705L412 634Z" fill="#67131d" stroke="#67131d"></path><path d="M362 234L288 190L315 265Z" fill="#761320" stroke="#761320"></path><path d="M288 190L223 191L315 265Z" fill="#c40f25" stroke="#c40f25"></path><path d="M112 262L78 253L95 270Z" fill="#e30e24" stroke="#e30e24"></path><path d="M0 544L0 572L65 590Z" fill="#c40f25" stroke="#c40f25"></path><path d="M188 186L78 253L112 262Z" fill="#4a1218" stroke="#4a1218"></path><path d="M0 317L0 358L45 383Z" fill="#67131d" stroke="#67131d"></path><path d="M0 317L45 383L95 270Z" fill="#761320" stroke="#761320"></path><path d="M228 716L330 754L296 670Z" fill="#761320" stroke="#761320"></path><path d="M547 341L454 398L489 435Z" fill="#951223" stroke="#951223"></path><path d="M547 341L484 279L454 398Z" fill="#67131d" stroke="#67131d"></path><path d="M362 234L325 158L288 190Z" fill="#e30e24" stroke="#e30e24"></path><path d="M547 341L489 435L623 408Z" fill="#761320" stroke="#761320"></path><path d="M210 113L188 186L223 191Z" fill="#c40f25" stroke="#c40f25"></path><path d="M223 191L188 186L240 309Z" fill="#e30e24" stroke="#e30e24"></path><path d="M330 754L387 743L381 686Z" fill="#c40f25" stroke="#c40f25"></path><path d="M562 640L583 560L523 573Z" fill="#861321" stroke="#861321"></path><path d="M78 253L0 317L95 270Z" fill="#e30e24" stroke="#e30e24"></path><path d="M623 408L489 435L507 479Z" fill="#59131b" stroke="#59131b"></path><path d="M95 742L185 776L196 666Z" fill="#761320" stroke="#761320"></path><path d="M228 716L218 805L330 754Z" fill="#951223" stroke="#951223"></path><path d="M95 742L196 666L112 656Z" fill="#4a1218" stroke="#4a1218"></path><path d="M0 652L38 691L65 590Z" fill="#a41124" stroke="#a41124"></path><path d="M394 121L325 158L362 234Z" fill="#861321" stroke="#861321"></path><path d="M289 105L210 113L223 191Z" fill="#67131d" stroke="#67131d"></path><path d="M529 258L472 227L484 279Z" fill="#d30e25" stroke="#d30e25"></path><path d="M484 279L472 227L362 234Z" fill="#a41124" stroke="#a41124"></path><path d="M38 691L95 742L112 656Z" fill="#4a1218" stroke="#4a1218"></path><path d="M0 572L0 652L65 590Z" fill="#861321" stroke="#861321"></path><path d="M562 640L437 633L532 738Z" fill="#761320" stroke="#761320"></path><path d="M523 573L583 560L493 540Z" fill="#d30e25" stroke="#d30e25"></path><path d="M95 742L148 786L185 776Z" fill="#b41025" stroke="#b41025"></path><path d="M185 776L218 805L228 716Z" fill="#a41124" stroke="#a41124"></path><path d="M148 786L218 805L185 776Z" fill="#861321" stroke="#861321"></path><path d="M398 846L476 787L387 743Z" fill="#67131d" stroke="#67131d"></path><path d="M547 341L529 258L484 279Z" fill="#c40f25" stroke="#c40f25"></path><path d="M532 738L437 633L416 705Z" fill="#951223" stroke="#951223"></path><path d="M675 526L613 528L675 575Z" fill="#951223" stroke="#951223"></path><path d="M583 560L613 528L507 479Z" fill="#951223" stroke="#951223"></path><path d="M547 341L564 268L529 258Z" fill="#b41025" stroke="#b41025"></path><path d="M0 137L0 228L78 253Z" fill="#a41124" stroke="#a41124"></path><path d="M78 253L0 228L0 317Z" fill="#d30e25" stroke="#d30e25"></path><path d="M623 295L564 268L547 341Z" fill="#b41025" stroke="#b41025"></path><path d="M473 154L362 234L472 227Z" fill="#d30e25" stroke="#d30e25"></path><path d="M394 121L289 105L325 158Z" fill="#67131d" stroke="#67131d"></path><path d="M289 105L223 191L288 190Z" fill="#b41025" stroke="#b41025"></path><path d="M188 186L137 114L78 253Z" fill="#c40f25" stroke="#c40f25"></path><path d="M613 528L628 481L507 479Z" fill="#c40f25" stroke="#c40f25"></path><path d="M628 481L623 408L507 479Z" fill="#e30e24" stroke="#e30e24"></path><path d="M394 121L362 234L473 154Z" fill="#67131d" stroke="#67131d"></path><path d="M325 158L289 105L288 190Z" fill="#861321" stroke="#861321"></path><path d="M473 154L472 227L543 168Z" fill="#b41025" stroke="#b41025"></path><path d="M476 787L532 738L416 705Z" fill="#67131d" stroke="#67131d"></path><path d="M562 640L592 668L583 560Z" fill="#c40f25" stroke="#c40f25"></path><path d="M476 787L416 705L387 743Z" fill="#c40f25" stroke="#c40f25"></path><path d="M234 76L137 114L210 113Z" fill="#59131b" stroke="#59131b"></path><path d="M210 113L137 114L188 186Z" fill="#4a1218" stroke="#4a1218"></path><path d="M543 168L472 227L529 258Z" fill="#861321" stroke="#861321"></path><path d="M398 846L387 743L330 754Z" fill="#a41124" stroke="#a41124"></path><path d="M532 738L592 668L562 640Z" fill="#59131b" stroke="#59131b"></path><path d="M613 528L675 526L628 481Z" fill="#d30e25" stroke="#d30e25"></path><path d="M289 900L314 858L218 805Z" fill="#b41025" stroke="#b41025"></path><path d="M218 805L314 858L330 754Z" fill="#67131d" stroke="#67131d"></path><path d="M289 105L234 76L210 113Z" fill="#c40f25" stroke="#c40f25"></path><path d="M203 0L234 76L328 0Z" fill="#67131d" stroke="#67131d"></path><path d="M314 858L398 846L330 754Z" fill="#59131b" stroke="#59131b"></path><path d="M675 407L623 295L623 408Z" fill="#4a1218" stroke="#4a1218"></path><path d="M623 408L623 295L547 341Z" fill="#951223" stroke="#951223"></path><path d="M564 268L543 168L529 258Z" fill="#861321" stroke="#861321"></path><path d="M631 804L580 729L532 738Z" fill="#e30e24" stroke="#e30e24"></path><path d="M532 738L580 729L592 668Z" fill="#c40f25" stroke="#c40f25"></path><path d="M501 828L532 738L476 787Z" fill="#951223" stroke="#951223"></path><path d="M38 691L0 785L95 742Z" fill="#d30e25" stroke="#d30e25"></path><path d="M95 742L65 862L148 786Z" fill="#b41025" stroke="#b41025"></path><path d="M214 900L289 900L218 805Z" fill="#c40f25" stroke="#c40f25"></path><path d="M0 652L0 785L38 691Z" fill="#4a1218" stroke="#4a1218"></path><path d="M612 182L543 168L564 268Z" fill="#951223" stroke="#951223"></path><path d="M473 154L465 78L394 121Z" fill="#761320" stroke="#761320"></path><path d="M675 575L613 528L583 560Z" fill="#59131b" stroke="#59131b"></path><path d="M628 481L675 410L623 408Z" fill="#c40f25" stroke="#c40f25"></path><path d="M675 575L583 560L592 668Z" fill="#e30e24" stroke="#e30e24"></path><path d="M675 526L675 410L628 481Z" fill="#59131b" stroke="#59131b"></path><path d="M675 410L675 407L623 408Z" fill="#951223" stroke="#951223"></path><path d="M451 900L437 851L398 846Z" fill="#67131d" stroke="#67131d"></path><path d="M398 846L437 851L476 787Z" fill="#e30e24" stroke="#e30e24"></path><path d="M623 295L632 263L564 268Z" fill="#951223" stroke="#951223"></path><path d="M675 271L632 263L623 295Z" fill="#4a1218" stroke="#4a1218"></path><path d="M675 661L675 575L592 668Z" fill="#761320" stroke="#761320"></path><path d="M36 111L0 137L78 253Z" fill="#861321" stroke="#861321"></path><path d="M36 111L78 253L137 114Z" fill="#861321" stroke="#861321"></path><path d="M42 50L36 111L137 114Z" fill="#a41124" stroke="#a41124"></path><path d="M0 785L0 807L95 742Z" fill="#c40f25" stroke="#c40f25"></path><path d="M437 851L501 828L476 787Z" fill="#861321" stroke="#861321"></path><path d="M314 858L369 900L398 846Z" fill="#c40f25" stroke="#c40f25"></path><path d="M214 900L218 805L147 900Z" fill="#d30e25" stroke="#d30e25"></path><path d="M147 900L218 805L148 786Z" fill="#951223" stroke="#951223"></path><path d="M0 807L65 862L95 742Z" fill="#761320" stroke="#761320"></path><path d="M523 109L473 154L543 168Z" fill="#a41124" stroke="#a41124"></path><path d="M523 109L465 78L473 154Z" fill="#67131d" stroke="#67131d"></path><path d="M394 121L328 0L289 105Z" fill="#e30e24" stroke="#e30e24"></path><path d="M289 900L369 900L314 858Z" fill="#861321" stroke="#861321"></path><path d="M437 851L496 900L501 828Z" fill="#59131b" stroke="#59131b"></path><path d="M612 182L523 109L543 168Z" fill="#67131d" stroke="#67131d"></path><path d="M65 862L147 900L148 786Z" fill="#861321" stroke="#861321"></path><path d="M675 214L612 182L632 263Z" fill="#761320" stroke="#761320"></path><path d="M632 263L612 182L564 268Z" fill="#a41124" stroke="#a41124"></path><path d="M675 722L675 661L592 668Z" fill="#761320" stroke="#761320"></path><path d="M675 722L592 668L580 729Z" fill="#4a1218" stroke="#4a1218"></path><path d="M675 407L675 271L623 295Z" fill="#861321" stroke="#861321"></path><path d="M386 0L413 36L431 0Z" fill="#951223" stroke="#951223"></path><path d="M465 78L413 36L394 121Z" fill="#761320" stroke="#761320"></path><path d="M234 76L188 0L137 114Z" fill="#67131d" stroke="#67131d"></path><path d="M369 900L451 900L398 846Z" fill="#761320" stroke="#761320"></path><path d="M631 804L675 722L580 729Z" fill="#d30e25" stroke="#d30e25"></path><path d="M328 0L234 76L289 105Z" fill="#c40f25" stroke="#c40f25"></path><path d="M413 36L328 0L394 121Z" fill="#c40f25" stroke="#c40f25"></path><path d="M65 0L42 50L137 114Z" fill="#b41025" stroke="#b41025"></path><path d="M36 111L0 52L0 137Z" fill="#e30e24" stroke="#e30e24"></path><path d="M203 0L188 0L234 76Z" fill="#59131b" stroke="#59131b"></path><path d="M65 862L55 900L147 900Z" fill="#951223" stroke="#951223"></path><path d="M0 900L55 900L65 862Z" fill="#b41025" stroke="#b41025"></path><path d="M631 804L532 738L501 828Z" fill="#59131b" stroke="#59131b"></path><path d="M591 38L514 0L523 109Z" fill="#4a1218" stroke="#4a1218"></path><path d="M675 271L675 214L632 263Z" fill="#59131b" stroke="#59131b"></path><path d="M431 0L413 36L465 78Z" fill="#d30e25" stroke="#d30e25"></path><path d="M413 36L386 0L328 0Z" fill="#b41025" stroke="#b41025"></path><path d="M431 0L465 78L514 0Z" fill="#761320" stroke="#761320"></path><path d="M451 900L496 900L437 851Z" fill="#d30e25" stroke="#d30e25"></path><path d="M561 900L631 804L501 828Z" fill="#e30e24" stroke="#e30e24"></path><path d="M0 0L0 52L42 50Z" fill="#59131b" stroke="#59131b"></path><path d="M42 50L0 52L36 111Z" fill="#761320" stroke="#761320"></path><path d="M514 0L465 78L523 109Z" fill="#c40f25" stroke="#c40f25"></path><path d="M0 807L0 900L65 862Z" fill="#a41124" stroke="#a41124"></path><path d="M188 0L65 0L137 114Z" fill="#67131d" stroke="#67131d"></path><path d="M496 900L561 900L501 828Z" fill="#761320" stroke="#761320"></path><path d="M591 38L523 109L612 182Z" fill="#d30e25" stroke="#d30e25"></path><path d="M65 0L0 0L42 50Z" fill="#67131d" stroke="#67131d"></path><path d="M675 214L675 117L612 182Z" fill="#a41124" stroke="#a41124"></path><path d="M675 117L591 38L612 182Z" fill="#b41025" stroke="#b41025"></path><path d="M561 900L675 840L631 804Z" fill="#b41025" stroke="#b41025"></path><path d="M631 804L675 840L675 722Z" fill="#d30e25" stroke="#d30e25"></path><path d="M675 117L675 85L591 38Z" fill="#861321" stroke="#861321"></path><path d="M561 900L675 900L675 840Z" fill="#67131d" stroke="#67131d"></path><path d="M675 85L636 0L591 38Z" fill="#861321" stroke="#861321"></path><path d="M591 38L636 0L514 0Z" fill="#67131d" stroke="#67131d"></path><path d="M675 85L675 0L636 0Z" fill="#59131b" stroke="#59131b"></path></g></svg>