<svg id="visual" viewBox="0 0 675 900" width="675" height="900" xmlns="http://www.w3.org/2000/svg" xmlns:xlink="http://www.w3.org/1999/xlink" version="1.1"><g stroke-width="1" stroke-linejoin="bevel"><path d="M378 490L414 463L376 399Z" fill="#c40f25" stroke="#c40f25"></path><path d="M414 463L433 435L376 399Z" fill="#d30e25" stroke="#d30e25"></path><path d="M376 399L300 401L378 490Z" fill="#d30e25" stroke="#d30e25"></path><path d="M300 401L283 424L378 490Z" fill="#e30e24" stroke="#e30e24"></path><path d="M229 376L250 451L283 424Z" fill="#67131d" stroke="#67131d"></path><path d="M283 424L303 555L378 490Z" fill="#761320" stroke="#761320"></path><path d="M433 435L464 360L376 399Z" fill="#59131b" stroke="#59131b"></path><path d="M278 300L229 376L300 401Z" fill="#67131d" stroke="#67131d"></path><path d="M470 560L485 503L414 463Z" fill="#761320" stroke="#761320"></path><path d="M414 463L485 503L433 435Z" fill="#d30e25" stroke="#d30e25"></path><path d="M433 435L523 431L464 360Z" fill="#c40f25" stroke="#c40f25"></path><path d="M250 451L303 555L283 424Z" fill="#761320" stroke="#761320"></path><path d="M470 560L489 531L485 503Z" fill="#67131d" stroke="#67131d"></path><path d="M470 560L414 463L378 490Z" fill="#b41025" stroke="#b41025"></path><path d="M389 607L470 560L378 490Z" fill="#4a1218" stroke="#4a1218"></path><path d="M606 543L523 431L485 503Z" fill="#c40f25" stroke="#c40f25"></path><path d="M485 503L523 431L433 435Z" fill="#b41025" stroke="#b41025"></path><path d="M278 300L300 401L376 399Z" fill="#67131d" stroke="#67131d"></path><path d="M300 401L229 376L283 424Z" fill="#b41025" stroke="#b41025"></path><path d="M303 555L389 607L378 490Z" fill="#d30e25" stroke="#d30e25"></path><path d="M394 267L278 300L376 399Z" fill="#951223" stroke="#951223"></path><path d="M467 274L394 267L464 360Z" fill="#b41025" stroke="#b41025"></path><path d="M464 360L394 267L376 399Z" fill="#861321" stroke="#861321"></path><path d="M250 451L237 564L303 555Z" fill="#4a1218" stroke="#4a1218"></path><path d="M303 555L298 613L389 607Z" fill="#67131d" stroke="#67131d"></path><path d="M111 500L237 564L250 451Z" fill="#d30e25" stroke="#d30e25"></path><path d="M237 564L298 613L303 555Z" fill="#59131b" stroke="#59131b"></path><path d="M470 560L486 599L489 531Z" fill="#951223" stroke="#951223"></path><path d="M489 531L606 543L485 503Z" fill="#761320" stroke="#761320"></path><path d="M389 607L486 599L470 560Z" fill="#a41124" stroke="#a41124"></path><path d="M528 300L467 274L464 360Z" fill="#59131b" stroke="#59131b"></path><path d="M204 260L183 374L229 376Z" fill="#861321" stroke="#861321"></path><path d="M229 376L169 423L250 451Z" fill="#a41124" stroke="#a41124"></path><path d="M467 274L431 251L394 267Z" fill="#b41025" stroke="#b41025"></path><path d="M394 267L357 226L278 300Z" fill="#861321" stroke="#861321"></path><path d="M523 431L550 347L464 360Z" fill="#a41124" stroke="#a41124"></path><path d="M572 320L550 347L633 409Z" fill="#4a1218" stroke="#4a1218"></path><path d="M183 374L169 423L229 376Z" fill="#861321" stroke="#861321"></path><path d="M550 347L528 300L464 360Z" fill="#e30e24" stroke="#e30e24"></path><path d="M548 197L431 166L431 251Z" fill="#4a1218" stroke="#4a1218"></path><path d="M431 251L357 226L394 267Z" fill="#67131d" stroke="#67131d"></path><path d="M278 300L204 260L229 376Z" fill="#59131b" stroke="#59131b"></path><path d="M399 157L337 218L357 226Z" fill="#4a1218" stroke="#4a1218"></path><path d="M357 226L337 218L278 300Z" fill="#a41124" stroke="#a41124"></path><path d="M633 409L550 347L523 431Z" fill="#4a1218" stroke="#4a1218"></path><path d="M550 347L572 320L528 300Z" fill="#c40f25" stroke="#c40f25"></path><path d="M548 197L431 251L467 274Z" fill="#4a1218" stroke="#4a1218"></path><path d="M120 569L196 604L237 564Z" fill="#a41124" stroke="#a41124"></path><path d="M237 564L196 604L298 613Z" fill="#4a1218" stroke="#4a1218"></path><path d="M336 697L336 681L208 707Z" fill="#a41124" stroke="#a41124"></path><path d="M298 613L336 681L389 607Z" fill="#59131b" stroke="#59131b"></path><path d="M428 686L499 651L486 599Z" fill="#b41025" stroke="#b41025"></path><path d="M428 686L486 599L389 607Z" fill="#67131d" stroke="#67131d"></path><path d="M486 599L606 543L489 531Z" fill="#a41124" stroke="#a41124"></path><path d="M336 681L428 686L389 607Z" fill="#4a1218" stroke="#4a1218"></path><path d="M337 218L204 260L278 300Z" fill="#b41025" stroke="#b41025"></path><path d="M76 445L111 500L169 423Z" fill="#c40f25" stroke="#c40f25"></path><path d="M629 597L606 543L486 599Z" fill="#951223" stroke="#951223"></path><path d="M208 707L336 681L298 613Z" fill="#c40f25" stroke="#c40f25"></path><path d="M336 681L336 697L428 686Z" fill="#67131d" stroke="#67131d"></path><path d="M606 543L629 482L523 431Z" fill="#4a1218" stroke="#4a1218"></path><path d="M629 482L633 409L523 431Z" fill="#951223" stroke="#951223"></path><path d="M76 445L169 423L62 355Z" fill="#59131b" stroke="#59131b"></path><path d="M169 423L111 500L250 451Z" fill="#67131d" stroke="#67131d"></path><path d="M336 697L428 713L428 686Z" fill="#d30e25" stroke="#d30e25"></path><path d="M428 686L428 713L499 651Z" fill="#4a1218" stroke="#4a1218"></path><path d="M111 500L120 569L237 564Z" fill="#e30e24" stroke="#e30e24"></path><path d="M196 604L208 707L298 613Z" fill="#951223" stroke="#951223"></path><path d="M548 197L467 274L528 300Z" fill="#4a1218" stroke="#4a1218"></path><path d="M431 251L431 166L357 226Z" fill="#761320" stroke="#761320"></path><path d="M337 218L192 198L204 260Z" fill="#d30e25" stroke="#d30e25"></path><path d="M431 166L399 157L357 226Z" fill="#67131d" stroke="#67131d"></path><path d="M139 258L120 296L204 260Z" fill="#d30e25" stroke="#d30e25"></path><path d="M204 260L120 296L183 374Z" fill="#e30e24" stroke="#e30e24"></path><path d="M675 335L587 245L572 320Z" fill="#761320" stroke="#761320"></path><path d="M572 320L587 245L528 300Z" fill="#861321" stroke="#861321"></path><path d="M62 355L169 423L183 374Z" fill="#a41124" stroke="#a41124"></path><path d="M59 550L68 573L120 569Z" fill="#b41025" stroke="#b41025"></path><path d="M192 198L139 258L204 260Z" fill="#761320" stroke="#761320"></path><path d="M562 691L629 597L499 651Z" fill="#d30e25" stroke="#d30e25"></path><path d="M499 651L629 597L486 599Z" fill="#4a1218" stroke="#4a1218"></path><path d="M606 543L675 533L629 482Z" fill="#d30e25" stroke="#d30e25"></path><path d="M629 482L675 440L633 409Z" fill="#59131b" stroke="#59131b"></path><path d="M675 533L675 440L629 482Z" fill="#4a1218" stroke="#4a1218"></path><path d="M633 409L675 360L572 320Z" fill="#951223" stroke="#951223"></path><path d="M587 245L548 197L528 300Z" fill="#951223" stroke="#951223"></path><path d="M397 41L325 57L399 157Z" fill="#861321" stroke="#861321"></path><path d="M308 146L192 198L337 218Z" fill="#d30e25" stroke="#d30e25"></path><path d="M399 157L308 146L337 218Z" fill="#59131b" stroke="#59131b"></path><path d="M137 661L208 707L196 604Z" fill="#c40f25" stroke="#c40f25"></path><path d="M336 697L346 761L428 713Z" fill="#761320" stroke="#761320"></path><path d="M527 778L562 691L499 651Z" fill="#e30e24" stroke="#e30e24"></path><path d="M675 440L675 360L633 409Z" fill="#b41025" stroke="#b41025"></path><path d="M675 616L675 533L629 597Z" fill="#67131d" stroke="#67131d"></path><path d="M629 597L675 533L606 543Z" fill="#951223" stroke="#951223"></path><path d="M296 776L346 761L336 697Z" fill="#e30e24" stroke="#e30e24"></path><path d="M428 713L527 778L499 651Z" fill="#761320" stroke="#761320"></path><path d="M120 569L137 661L196 604Z" fill="#4a1218" stroke="#4a1218"></path><path d="M68 573L137 661L120 569Z" fill="#4a1218" stroke="#4a1218"></path><path d="M675 360L675 335L572 320Z" fill="#c40f25" stroke="#c40f25"></path><path d="M587 245L587 188L548 197Z" fill="#4a1218" stroke="#4a1218"></path><path d="M67 322L62 355L120 296Z" fill="#67131d" stroke="#67131d"></path><path d="M120 296L62 355L183 374Z" fill="#67131d" stroke="#67131d"></path><path d="M73 187L67 322L120 296Z" fill="#4a1218" stroke="#4a1218"></path><path d="M73 187L120 296L139 258Z" fill="#e30e24" stroke="#e30e24"></path><path d="M208 707L225 739L336 697Z" fill="#67131d" stroke="#67131d"></path><path d="M139 750L225 739L208 707Z" fill="#861321" stroke="#861321"></path><path d="M59 550L111 500L76 445Z" fill="#c40f25" stroke="#c40f25"></path><path d="M59 550L120 569L111 500Z" fill="#b41025" stroke="#b41025"></path><path d="M0 525L59 550L76 445Z" fill="#761320" stroke="#761320"></path><path d="M675 226L587 188L587 245Z" fill="#67131d" stroke="#67131d"></path><path d="M548 197L549 149L431 166Z" fill="#d30e25" stroke="#d30e25"></path><path d="M225 739L296 776L336 697Z" fill="#d30e25" stroke="#d30e25"></path><path d="M587 188L549 149L548 197Z" fill="#761320" stroke="#761320"></path><path d="M399 157L325 57L308 146Z" fill="#861321" stroke="#861321"></path><path d="M675 660L675 616L629 597Z" fill="#4a1218" stroke="#4a1218"></path><path d="M199 123L129 181L192 198Z" fill="#4a1218" stroke="#4a1218"></path><path d="M192 198L129 181L139 258Z" fill="#951223" stroke="#951223"></path><path d="M308 146L199 123L192 198Z" fill="#d30e25" stroke="#d30e25"></path><path d="M237 72L199 123L308 146Z" fill="#951223" stroke="#951223"></path><path d="M431 820L428 713L346 761Z" fill="#e30e24" stroke="#e30e24"></path><path d="M431 820L527 778L428 713Z" fill="#b41025" stroke="#b41025"></path><path d="M562 691L621 717L629 597Z" fill="#d30e25" stroke="#d30e25"></path><path d="M527 778L621 717L562 691Z" fill="#d30e25" stroke="#d30e25"></path><path d="M68 573L106 704L137 661Z" fill="#b41025" stroke="#b41025"></path><path d="M137 661L139 750L208 707Z" fill="#761320" stroke="#761320"></path><path d="M227 844L289 845L296 776Z" fill="#4a1218" stroke="#4a1218"></path><path d="M89 716L106 704L0 619Z" fill="#b41025" stroke="#b41025"></path><path d="M621 717L675 660L629 597Z" fill="#67131d" stroke="#67131d"></path><path d="M587 188L623 92L549 149Z" fill="#e30e24" stroke="#e30e24"></path><path d="M675 335L675 226L587 245Z" fill="#951223" stroke="#951223"></path><path d="M0 357L0 411L62 355Z" fill="#59131b" stroke="#59131b"></path><path d="M62 355L0 411L76 445Z" fill="#67131d" stroke="#67131d"></path><path d="M59 550L0 619L68 573Z" fill="#67131d" stroke="#67131d"></path><path d="M0 357L62 355L67 322Z" fill="#861321" stroke="#861321"></path><path d="M371 848L431 820L346 761Z" fill="#761320" stroke="#761320"></path><path d="M0 411L0 525L76 445Z" fill="#861321" stroke="#861321"></path><path d="M0 267L0 357L67 322Z" fill="#b41025" stroke="#b41025"></path><path d="M106 704L139 750L137 661Z" fill="#59131b" stroke="#59131b"></path><path d="M296 776L371 848L346 761Z" fill="#67131d" stroke="#67131d"></path><path d="M415 49L399 157L431 166Z" fill="#761320" stroke="#761320"></path><path d="M0 619L106 704L68 573Z" fill="#761320" stroke="#761320"></path><path d="M106 704L89 716L139 750Z" fill="#59131b" stroke="#59131b"></path><path d="M45 132L73 187L129 181Z" fill="#951223" stroke="#951223"></path><path d="M129 181L73 187L139 258Z" fill="#a41124" stroke="#a41124"></path><path d="M155 93L129 181L199 123Z" fill="#a41124" stroke="#a41124"></path><path d="M325 57L237 72L308 146Z" fill="#d30e25" stroke="#d30e25"></path><path d="M534 38L431 166L549 149Z" fill="#951223" stroke="#951223"></path><path d="M534 38L415 49L431 166Z" fill="#a41124" stroke="#a41124"></path><path d="M289 845L371 848L296 776Z" fill="#59131b" stroke="#59131b"></path><path d="M540 860L584 818L527 778Z" fill="#951223" stroke="#951223"></path><path d="M415 49L397 41L399 157Z" fill="#67131d" stroke="#67131d"></path><path d="M325 57L297 0L237 72Z" fill="#861321" stroke="#861321"></path><path d="M227 844L296 776L225 739Z" fill="#d30e25" stroke="#d30e25"></path><path d="M0 525L0 619L59 550Z" fill="#951223" stroke="#951223"></path><path d="M73 187L0 267L67 322Z" fill="#e30e24" stroke="#e30e24"></path><path d="M237 72L155 93L199 123Z" fill="#951223" stroke="#951223"></path><path d="M73 187L0 231L0 267Z" fill="#d30e25" stroke="#d30e25"></path><path d="M139 750L227 844L225 739Z" fill="#e30e24" stroke="#e30e24"></path><path d="M339 900L388 900L371 848Z" fill="#951223" stroke="#951223"></path><path d="M225 900L227 844L150 900Z" fill="#59131b" stroke="#59131b"></path><path d="M45 132L0 231L73 187Z" fill="#951223" stroke="#951223"></path><path d="M527 778L584 818L621 717Z" fill="#761320" stroke="#761320"></path><path d="M621 717L675 757L675 660Z" fill="#59131b" stroke="#59131b"></path><path d="M540 860L527 778L431 820Z" fill="#951223" stroke="#951223"></path><path d="M675 128L623 92L587 188Z" fill="#a41124" stroke="#a41124"></path><path d="M412 0L376 0L397 41Z" fill="#59131b" stroke="#59131b"></path><path d="M675 785L675 757L621 717Z" fill="#c40f25" stroke="#c40f25"></path><path d="M623 92L534 38L549 149Z" fill="#59131b" stroke="#59131b"></path><path d="M675 226L675 128L587 188Z" fill="#861321" stroke="#861321"></path><path d="M412 0L397 41L415 49Z" fill="#4a1218" stroke="#4a1218"></path><path d="M397 41L376 0L325 57Z" fill="#e30e24" stroke="#e30e24"></path><path d="M177 0L103 62L155 93Z" fill="#67131d" stroke="#67131d"></path><path d="M534 38L412 0L415 49Z" fill="#a41124" stroke="#a41124"></path><path d="M415 900L431 820L371 848Z" fill="#951223" stroke="#951223"></path><path d="M495 900L540 860L431 820Z" fill="#861321" stroke="#861321"></path><path d="M584 818L675 785L621 717Z" fill="#4a1218" stroke="#4a1218"></path><path d="M376 0L297 0L325 57Z" fill="#67131d" stroke="#67131d"></path><path d="M103 62L45 132L155 93Z" fill="#861321" stroke="#861321"></path><path d="M155 93L45 132L129 181Z" fill="#b41025" stroke="#b41025"></path><path d="M675 900L675 785L584 818Z" fill="#4a1218" stroke="#4a1218"></path><path d="M339 900L371 848L289 845Z" fill="#b41025" stroke="#b41025"></path><path d="M225 900L339 900L289 845Z" fill="#c40f25" stroke="#c40f25"></path><path d="M388 900L415 900L371 848Z" fill="#c40f25" stroke="#c40f25"></path><path d="M0 619L0 712L89 716Z" fill="#59131b" stroke="#59131b"></path><path d="M89 716L86 830L139 750Z" fill="#c40f25" stroke="#c40f25"></path><path d="M190 0L155 93L237 72Z" fill="#4a1218" stroke="#4a1218"></path><path d="M0 712L0 734L89 716Z" fill="#67131d" stroke="#67131d"></path><path d="M227 844L225 900L289 845Z" fill="#4a1218" stroke="#4a1218"></path><path d="M415 900L495 900L431 820Z" fill="#861321" stroke="#861321"></path><path d="M540 860L573 900L584 818Z" fill="#59131b" stroke="#59131b"></path><path d="M637 0L534 38L623 92Z" fill="#d30e25" stroke="#d30e25"></path><path d="M637 0L538 0L534 38Z" fill="#951223" stroke="#951223"></path><path d="M534 38L538 0L412 0Z" fill="#a41124" stroke="#a41124"></path><path d="M125 863L227 844L139 750Z" fill="#c40f25" stroke="#c40f25"></path><path d="M0 734L86 830L89 716Z" fill="#d30e25" stroke="#d30e25"></path><path d="M297 0L190 0L237 72Z" fill="#861321" stroke="#861321"></path><path d="M190 0L177 0L155 93Z" fill="#67131d" stroke="#67131d"></path><path d="M86 830L125 863L139 750Z" fill="#c40f25" stroke="#c40f25"></path><path d="M0 112L45 132L103 62Z" fill="#4a1218" stroke="#4a1218"></path><path d="M0 112L0 128L45 132Z" fill="#4a1218" stroke="#4a1218"></path><path d="M45 132L0 128L0 231Z" fill="#761320" stroke="#761320"></path><path d="M675 128L675 52L623 92Z" fill="#c40f25" stroke="#c40f25"></path><path d="M495 900L573 900L540 860Z" fill="#e30e24" stroke="#e30e24"></path><path d="M37 0L0 112L103 62Z" fill="#d30e25" stroke="#d30e25"></path><path d="M125 863L150 900L227 844Z" fill="#d30e25" stroke="#d30e25"></path><path d="M44 900L150 900L125 863Z" fill="#951223" stroke="#951223"></path><path d="M675 52L637 0L623 92Z" fill="#b41025" stroke="#b41025"></path><path d="M675 52L675 0L637 0Z" fill="#d30e25" stroke="#d30e25"></path><path d="M0 734L0 845L86 830Z" fill="#d30e25" stroke="#d30e25"></path><path d="M86 830L44 900L125 863Z" fill="#e30e24" stroke="#e30e24"></path><path d="M573 900L675 900L584 818Z" fill="#67131d" stroke="#67131d"></path><path d="M177 0L37 0L103 62Z" fill="#951223" stroke="#951223"></path><path d="M0 845L44 900L86 830Z" fill="#a41124" stroke="#a41124"></path><path d="M37 0L0 0L0 112Z" fill="#b41025" stroke="#b41025"></path><path d="M0 845L0 900L44 900Z" fill="#e30e24" stroke="#e30e24"></path></g></svg>