<svg id="visual" viewBox="0 0 900 600" width="900" height="600" xmlns="http://www.w3.org/2000/svg" xmlns:xlink="http://www.w3.org/1999/xlink" version="1.1"><rect x="0" y="0" width="900" height="600" fill="#060001"></rect><path d="M0 367L18.8 374.2C37.7 381.3 75.3 395.7 112.8 399.7C150.3 403.7 187.7 397.3 225.2 404.7C262.7 412 300.3 433 337.8 430.7C375.3 428.3 412.7 402.7 450.2 404.5C487.7 406.3 525.3 435.7 562.8 441.8C600.3 448 637.7 431 675.2 429.2C712.7 427.3 750.3 440.7 787.8 442.7C825.3 444.7 862.7 435.3 881.3 430.7L900 426L900 601L881.3 601C862.7 601 825.3 601 787.8 601C750.3 601 712.7 601 675.2 601C637.7 601 600.3 601 562.8 601C525.3 601 487.7 601 450.2 601C412.7 601 375.3 601 337.8 601C300.3 601 262.7 601 225.2 601C187.7 601 150.3 601 112.8 601C75.3 601 37.7 601 18.8 601L0 601Z" fill="#e30e24"></path><path d="M0 446L18.8 450.8C37.7 455.7 75.3 465.3 112.8 475C150.3 484.7 187.7 494.3 225.2 483.5C262.7 472.7 300.3 441.3 337.8 428.7C375.3 416 412.7 422 450.2 437.7C487.7 453.3 525.3 478.7 562.8 490.2C600.3 501.7 637.7 499.3 675.2 487.2C712.7 475 750.3 453 787.8 437.2C825.3 421.3 862.7 411.7 881.3 406.8L900 402L900 601L881.3 601C862.7 601 825.3 601 787.8 601C750.3 601 712.7 601 675.2 601C637.7 601 600.3 601 562.8 601C525.3 601 487.7 601 450.2 601C412.7 601 375.3 601 337.8 601C300.3 601 262.7 601 225.2 601C187.7 601 150.3 601 112.8 601C75.3 601 37.7 601 18.8 601L0 601Z" fill="#d20f24"></path><path d="M0 518L18.8 505.3C37.7 492.7 75.3 467.3 112.8 459.2C150.3 451 187.7 460 225.2 464.2C262.7 468.3 300.3 467.7 337.8 474.7C375.3 481.7 412.7 496.3 450.2 499.5C487.7 502.7 525.3 494.3 562.8 485.8C600.3 477.3 637.7 468.7 675.2 464.5C712.7 460.3 750.3 460.7 787.8 459.7C825.3 458.7 862.7 456.3 881.3 455.2L900 454L900 601L881.3 601C862.7 601 825.3 601 787.8 601C750.3 601 712.7 601 675.2 601C637.7 601 600.3 601 562.8 601C525.3 601 487.7 601 450.2 601C412.7 601 375.3 601 337.8 601C300.3 601 262.7 601 225.2 601C187.7 601 150.3 601 112.8 601C75.3 601 37.7 601 18.8 601L0 601Z" fill="#c01024"></path><path d="M0 533L18.8 528.8C37.7 524.7 75.3 516.3 112.8 508.5C150.3 500.7 187.7 493.3 225.2 487.8C262.7 482.3 300.3 478.7 337.8 484.7C375.3 490.7 412.7 506.3 450.2 504.2C487.7 502 525.3 482 562.8 481.7C600.3 481.3 637.7 500.7 675.2 508C712.7 515.3 750.3 510.7 787.8 505C825.3 499.3 862.7 492.7 881.3 489.3L900 486L900 601L881.3 601C862.7 601 825.3 601 787.8 601C750.3 601 712.7 601 675.2 601C637.7 601 600.3 601 562.8 601C525.3 601 487.7 601 450.2 601C412.7 601 375.3 601 337.8 601C300.3 601 262.7 601 225.2 601C187.7 601 150.3 601 112.8 601C75.3 601 37.7 601 18.8 601L0 601Z" fill="#af1123"></path><path d="M0 538L18.8 536C37.7 534 75.3 530 112.8 528C150.3 526 187.7 526 225.2 519C262.7 512 300.3 498 337.8 497.3C375.3 496.7 412.7 509.3 450.2 511C487.7 512.7 525.3 503.3 562.8 500.7C600.3 498 637.7 502 675.2 508.8C712.7 515.7 750.3 525.3 787.8 523.2C825.3 521 862.7 507 881.3 500L900 493L900 601L881.3 601C862.7 601 825.3 601 787.8 601C750.3 601 712.7 601 675.2 601C637.7 601 600.3 601 562.8 601C525.3 601 487.7 601 450.2 601C412.7 601 375.3 601 337.8 601C300.3 601 262.7 601 225.2 601C187.7 601 150.3 601 112.8 601C75.3 601 37.7 601 18.8 601L0 601Z" fill="#9e1222"></path><path d="M0 546L18.8 540.5C37.7 535 75.3 524 112.8 522.8C150.3 521.7 187.7 530.3 225.2 537.7C262.7 545 300.3 551 337.8 547.8C375.3 544.7 412.7 532.3 450.2 526.2C487.7 520 525.3 520 562.8 520C600.3 520 637.7 520 675.2 522C712.7 524 750.3 528 787.8 531.7C825.3 535.3 862.7 538.7 881.3 540.3L900 542L900 601L881.3 601C862.7 601 825.3 601 787.8 601C750.3 601 712.7 601 675.2 601C637.7 601 600.3 601 562.8 601C525.3 601 487.7 601 450.2 601C412.7 601 375.3 601 337.8 601C300.3 601 262.7 601 225.2 601C187.7 601 150.3 601 112.8 601C75.3 601 37.7 601 18.8 601L0 601Z" fill="#8d1320"></path><path d="M0 548L18.8 548.7C37.7 549.3 75.3 550.7 112.8 555C150.3 559.3 187.7 566.7 225.2 571.2C262.7 575.7 300.3 577.3 337.8 577.5C375.3 577.7 412.7 576.3 450.2 574.3C487.7 572.3 525.3 569.7 562.8 568.5C600.3 567.3 637.7 567.7 675.2 563.7C712.7 559.7 750.3 551.3 787.8 549.5C825.3 547.7 862.7 552.3 881.3 554.7L900 557L900 601L881.3 601C862.7 601 825.3 601 787.8 601C750.3 601 712.7 601 675.2 601C637.7 601 600.3 601 562.8 601C525.3 601 487.7 601 450.2 601C412.7 601 375.3 601 337.8 601C300.3 601 262.7 601 225.2 601C187.7 601 150.3 601 112.8 601C75.3 601 37.7 601 18.8 601L0 601Z" fill="#7c131e"></path></svg>