<svg id="visual" viewBox="0 0 900 600" width="900" height="600" xmlns="http://www.w3.org/2000/svg" xmlns:xlink="http://www.w3.org/1999/xlink" version="1.1"><rect x="0" y="0" width="900" height="600" fill="#180608"></rect><defs><linearGradient id="grad1_0" x1="33.3%" y1="0%" x2="100%" y2="100%"><stop offset="20%" stop-color="#e30e24" stop-opacity="1"></stop><stop offset="80%" stop-color="#e30e24" stop-opacity="1"></stop></linearGradient></defs><defs><linearGradient id="grad1_1" x1="33.3%" y1="0%" x2="100%" y2="100%"><stop offset="20%" stop-color="#e30e24" stop-opacity="1"></stop><stop offset="80%" stop-color="#180608" stop-opacity="1"></stop></linearGradient></defs><defs><linearGradient id="grad2_0" x1="0%" y1="0%" x2="66.7%" y2="100%"><stop offset="20%" stop-color="#e30e24" stop-opacity="1"></stop><stop offset="80%" stop-color="#e30e24" stop-opacity="1"></stop></linearGradient></defs><defs><linearGradient id="grad2_1" x1="0%" y1="0%" x2="66.7%" y2="100%"><stop offset="20%" stop-color="#180608" stop-opacity="1"></stop><stop offset="80%" stop-color="#e30e24" stop-opacity="1"></stop></linearGradient></defs><g transform="translate(900, 0)"><path d="M0 486.7C-63.9 480.6 -127.9 474.5 -186.3 449.7C-244.7 424.9 -297.5 381.5 -330.9 330.9C-364.3 280.3 -378.2 222.4 -401 166.1C-423.7 109.7 -455.2 54.9 -486.7 0L0 0Z" fill="#791223"></path><path d="M0 243.4C-32 240.3 -63.9 237.2 -93.1 224.8C-122.3 212.5 -148.8 190.8 -165.5 165.5C-182.2 140.2 -189.1 111.2 -200.5 83C-211.8 54.9 -227.6 27.4 -243.4 0L0 0Z" fill="#e30e24"></path></g><g transform="translate(0, 600)"><path d="M0 -486.7C48.1 -446.8 96.2 -406.8 161.9 -390.8C227.6 -374.8 310.9 -382.7 344.2 -344.2C377.4 -305.7 360.6 -220.8 376 -155.8C391.4 -90.7 439.1 -45.3 486.7 0L0 0Z" fill="#791223"></path><path d="M0 -243.4C24 -223.4 48.1 -203.4 80.9 -195.4C113.8 -187.4 155.5 -191.3 172.1 -172.1C188.7 -152.9 180.3 -110.4 188 -77.9C195.7 -45.3 219.5 -22.7 243.4 0L0 0Z" fill="#e30e24"></path></g></svg>