<svg id="visual" viewBox="0 0 900 600" width="900" height="600" xmlns="http://www.w3.org/2000/svg" xmlns:xlink="http://www.w3.org/1999/xlink" version="1.1"><rect x="0" y="0" width="900" height="600" fill="#180608"></rect><defs><linearGradient id="grad1_0" x1="33.3%" y1="0%" x2="100%" y2="100%"><stop offset="20%" stop-color="#e30e24" stop-opacity="1"></stop><stop offset="80%" stop-color="#e30e24" stop-opacity="1"></stop></linearGradient></defs><defs><linearGradient id="grad1_1" x1="33.3%" y1="0%" x2="100%" y2="100%"><stop offset="20%" stop-color="#e30e24" stop-opacity="1"></stop><stop offset="80%" stop-color="#180608" stop-opacity="1"></stop></linearGradient></defs><defs><linearGradient id="grad2_0" x1="0%" y1="0%" x2="66.7%" y2="100%"><stop offset="20%" stop-color="#e30e24" stop-opacity="1"></stop><stop offset="80%" stop-color="#e30e24" stop-opacity="1"></stop></linearGradient></defs><defs><linearGradient id="grad2_1" x1="0%" y1="0%" x2="66.7%" y2="100%"><stop offset="20%" stop-color="#180608" stop-opacity="1"></stop><stop offset="80%" stop-color="#e30e24" stop-opacity="1"></stop></linearGradient></defs><g transform="translate(900, 0)"><path d="M0 486.7C-62.2 475.3 -124.3 463.8 -182.9 441.6C-241.5 419.4 -296.5 386.5 -342.9 342.9C-389.4 299.4 -427.2 245.2 -449.7 186.3C-472.2 127.3 -479.5 63.7 -486.7 0L0 0Z" fill="#791223"></path><path d="M0 243.4C-31.1 237.6 -62.2 231.9 -91.5 220.8C-120.8 209.7 -148.3 193.3 -171.5 171.5C-194.7 149.7 -213.6 122.6 -224.8 93.1C-236.1 63.7 -239.7 31.8 -243.4 0L0 0Z" fill="#e30e24"></path></g><g transform="translate(0, 600)"><path d="M0 -486.7C69.3 -485 138.6 -483.3 186.3 -449.7C233.9 -416.1 259.8 -350.6 304.8 -304.8C349.7 -258.9 413.7 -232.7 447.2 -185.2C480.7 -137.7 483.7 -68.9 486.7 0L0 0Z" fill="#791223"></path><path d="M0 -243.4C34.7 -242.5 69.3 -241.7 93.1 -224.8C116.9 -208 129.9 -175.3 152.4 -152.4C174.9 -129.5 206.8 -116.4 223.6 -92.6C240.3 -68.9 241.9 -34.4 243.4 0L0 0Z" fill="#e30e24"></path></g></svg>