<svg id="visual" viewBox="0 0 675 900" width="675" height="900" xmlns="http://www.w3.org/2000/svg" xmlns:xlink="http://www.w3.org/1999/xlink" version="1.1"><path d="M0 118L10.2 113.5C20.3 109 40.7 100 61.2 94C81.7 88 102.3 85 122.8 82C143.3 79 163.7 76 184 76C204.3 76 224.7 79 245.2 88C265.7 97 286.3 112 306.8 119.5C327.3 127 347.7 127 368.2 113.5C388.7 100 409.3 73 429.8 59.5C450.3 46 470.7 46 491 47.5C511.3 49 531.7 52 552.2 61C572.7 70 593.3 85 613.8 92.5C634.3 100 654.7 100 664.8 100L675 100L675 0L664.8 0C654.7 0 634.3 0 613.8 0C593.3 0 572.7 0 552.2 0C531.7 0 511.3 0 491 0C470.7 0 450.3 0 429.8 0C409.3 0 388.7 0 368.2 0C347.7 0 327.3 0 306.8 0C286.3 0 265.7 0 245.2 0C224.7 0 204.3 0 184 0C163.7 0 143.3 0 122.8 0C102.3 0 81.7 0 61.2 0C40.7 0 20.3 0 10.2 0L0 0Z" fill="#e30e24"></path><path d="M0 487L10.2 455.5C20.3 424 40.7 361 61.2 329.5C81.7 298 102.3 298 122.8 289C143.3 280 163.7 262 184 266.5C204.3 271 224.7 298 245.2 334C265.7 370 286.3 415 306.8 409C327.3 403 347.7 346 368.2 316C388.7 286 409.3 283 429.8 286C450.3 289 470.7 298 491 304C511.3 310 531.7 313 552.2 326.5C572.7 340 593.3 364 613.8 352C634.3 340 654.7 292 664.8 268L675 244L675 98L664.8 98C654.7 98 634.3 98 613.8 90.5C593.3 83 572.7 68 552.2 59C531.7 50 511.3 47 491 45.5C470.7 44 450.3 44 429.8 57.5C409.3 71 388.7 98 368.2 111.5C347.7 125 327.3 125 306.8 117.5C286.3 110 265.7 95 245.2 86C224.7 77 204.3 74 184 74C163.7 74 143.3 77 122.8 80C102.3 83 81.7 86 61.2 92C40.7 98 20.3 107 10.2 111.5L0 116Z" fill="#c40f25"></path><path d="M0 622L10.2 617.5C20.3 613 40.7 604 61.2 590.5C81.7 577 102.3 559 122.8 554.5C143.3 550 163.7 559 184 557.5C204.3 556 224.7 544 245.2 550C265.7 556 286.3 580 306.8 577C327.3 574 347.7 544 368.2 526C388.7 508 409.3 502 429.8 512.5C450.3 523 470.7 550 491 550C511.3 550 531.7 523 552.2 517C572.7 511 593.3 526 613.8 542.5C634.3 559 654.7 577 664.8 586L675 595L675 242L664.8 266C654.7 290 634.3 338 613.8 350C593.3 362 572.7 338 552.2 324.5C531.7 311 511.3 308 491 302C470.7 296 450.3 287 429.8 284C409.3 281 388.7 284 368.2 314C347.7 344 327.3 401 306.8 407C286.3 413 265.7 368 245.2 332C224.7 296 204.3 269 184 264.5C163.7 260 143.3 278 122.8 287C102.3 296 81.7 296 61.2 327.5C40.7 359 20.3 422 10.2 453.5L0 485Z" fill="#a41124"></path><path d="M0 712L10.2 709C20.3 706 40.7 700 61.2 692.5C81.7 685 102.3 676 122.8 673C143.3 670 163.7 673 184 670C204.3 667 224.7 658 245.2 661C265.7 664 286.3 679 306.8 673C327.3 667 347.7 640 368.2 626.5C388.7 613 409.3 613 429.8 619C450.3 625 470.7 637 491 638.5C511.3 640 531.7 631 552.2 632.5C572.7 634 593.3 646 613.8 662.5C634.3 679 654.7 700 664.8 710.5L675 721L675 593L664.8 584C654.7 575 634.3 557 613.8 540.5C593.3 524 572.7 509 552.2 515C531.7 521 511.3 548 491 548C470.7 548 450.3 521 429.8 510.5C409.3 500 388.7 506 368.2 524C347.7 542 327.3 572 306.8 575C286.3 578 265.7 554 245.2 548C224.7 542 204.3 554 184 555.5C163.7 557 143.3 548 122.8 552.5C102.3 557 81.7 575 61.2 588.5C40.7 602 20.3 611 10.2 615.5L0 620Z" fill="#861321"></path><path d="M0 775L10.2 778C20.3 781 40.7 787 61.2 800.5C81.7 814 102.3 835 122.8 830.5C143.3 826 163.7 796 184 787C204.3 778 224.7 790 245.2 796C265.7 802 286.3 802 306.8 802C327.3 802 347.7 802 368.2 800.5C388.7 799 409.3 796 429.8 788.5C450.3 781 470.7 769 491 776.5C511.3 784 531.7 811 552.2 824.5C572.7 838 593.3 838 613.8 835C634.3 832 654.7 826 664.8 823L675 820L675 719L664.8 708.5C654.7 698 634.3 677 613.8 660.5C593.3 644 572.7 632 552.2 630.5C531.7 629 511.3 638 491 636.5C470.7 635 450.3 623 429.8 617C409.3 611 388.7 611 368.2 624.5C347.7 638 327.3 665 306.8 671C286.3 677 265.7 662 245.2 659C224.7 656 204.3 665 184 668C163.7 671 143.3 668 122.8 671C102.3 674 81.7 683 61.2 690.5C40.7 698 20.3 704 10.2 707L0 710Z" fill="#67131d"></path><path d="M0 901L10.2 901C20.3 901 40.7 901 61.2 901C81.7 901 102.3 901 122.8 901C143.3 901 163.7 901 184 901C204.3 901 224.7 901 245.2 901C265.7 901 286.3 901 306.8 901C327.3 901 347.7 901 368.2 901C388.7 901 409.3 901 429.8 901C450.3 901 470.7 901 491 901C511.3 901 531.7 901 552.2 901C572.7 901 593.3 901 613.8 901C634.3 901 654.7 901 664.8 901L675 901L675 818L664.8 821C654.7 824 634.3 830 613.8 833C593.3 836 572.7 836 552.2 822.5C531.7 809 511.3 782 491 774.5C470.7 767 450.3 779 429.8 786.5C409.3 794 388.7 797 368.2 798.5C347.7 800 327.3 800 306.8 800C286.3 800 265.7 800 245.2 794C224.7 788 204.3 776 184 785C163.7 794 143.3 824 122.8 828.5C102.3 833 81.7 812 61.2 798.5C40.7 785 20.3 779 10.2 776L0 773Z" fill="#4a1218"></path></svg>