<svg id="visual" viewBox="0 0 675 900" width="675" height="900" xmlns="http://www.w3.org/2000/svg" xmlns:xlink="http://www.w3.org/1999/xlink" version="1.1"><path d="M0 199L10.2 191.5C20.3 184 40.7 169 61.2 152.5C81.7 136 102.3 118 122.8 122.5C143.3 127 163.7 154 184 161.5C204.3 169 224.7 157 245.2 151C265.7 145 286.3 145 306.8 152.5C327.3 160 347.7 175 368.2 172C388.7 169 409.3 148 429.8 133C450.3 118 470.7 109 491 107.5C511.3 106 531.7 112 552.2 112C572.7 112 593.3 106 613.8 115C634.3 124 654.7 148 664.8 160L675 172L675 0L664.8 0C654.7 0 634.3 0 613.8 0C593.3 0 572.7 0 552.2 0C531.7 0 511.3 0 491 0C470.7 0 450.3 0 429.8 0C409.3 0 388.7 0 368.2 0C347.7 0 327.3 0 306.8 0C286.3 0 265.7 0 245.2 0C224.7 0 204.3 0 184 0C163.7 0 143.3 0 122.8 0C102.3 0 81.7 0 61.2 0C40.7 0 20.3 0 10.2 0L0 0Z" fill="#e30e24"></path><path d="M0 253L10.2 253C20.3 253 40.7 253 61.2 244C81.7 235 102.3 217 122.8 224.5C143.3 232 163.7 265 184 274C204.3 283 224.7 268 245.2 253C265.7 238 286.3 223 306.8 220C327.3 217 347.7 226 368.2 227.5C388.7 229 409.3 223 429.8 217C450.3 211 470.7 205 491 200.5C511.3 196 531.7 193 552.2 187C572.7 181 593.3 172 613.8 190C634.3 208 654.7 253 664.8 275.5L675 298L675 170L664.8 158C654.7 146 634.3 122 613.8 113C593.3 104 572.7 110 552.2 110C531.7 110 511.3 104 491 105.5C470.7 107 450.3 116 429.8 131C409.3 146 388.7 167 368.2 170C347.7 173 327.3 158 306.8 150.5C286.3 143 265.7 143 245.2 149C224.7 155 204.3 167 184 159.5C163.7 152 143.3 125 122.8 120.5C102.3 116 81.7 134 61.2 150.5C40.7 167 20.3 182 10.2 189.5L0 197Z" fill="#c40f25"></path><path d="M0 442L10.2 434.5C20.3 427 40.7 412 61.2 394C81.7 376 102.3 355 122.8 359.5C143.3 364 163.7 394 184 409C204.3 424 224.7 424 245.2 397C265.7 370 286.3 316 306.8 305.5C327.3 295 347.7 328 368.2 343C388.7 358 409.3 355 429.8 340C450.3 325 470.7 298 491 280C511.3 262 531.7 253 552.2 244C572.7 235 593.3 226 613.8 244C634.3 262 654.7 307 664.8 329.5L675 352L675 296L664.8 273.5C654.7 251 634.3 206 613.8 188C593.3 170 572.7 179 552.2 185C531.7 191 511.3 194 491 198.5C470.7 203 450.3 209 429.8 215C409.3 221 388.7 227 368.2 225.5C347.7 224 327.3 215 306.8 218C286.3 221 265.7 236 245.2 251C224.7 266 204.3 281 184 272C163.7 263 143.3 230 122.8 222.5C102.3 215 81.7 233 61.2 242C40.7 251 20.3 251 10.2 251L0 251Z" fill="#a41124"></path><path d="M0 649L10.2 647.5C20.3 646 40.7 643 61.2 637C81.7 631 102.3 622 122.8 611.5C143.3 601 163.7 589 184 593.5C204.3 598 224.7 619 245.2 619C265.7 619 286.3 598 306.8 584.5C327.3 571 347.7 565 368.2 563.5C388.7 562 409.3 565 429.8 547C450.3 529 470.7 490 491 494.5C511.3 499 531.7 547 552.2 574C572.7 601 593.3 607 613.8 605.5C634.3 604 654.7 595 664.8 590.5L675 586L675 350L664.8 327.5C654.7 305 634.3 260 613.8 242C593.3 224 572.7 233 552.2 242C531.7 251 511.3 260 491 278C470.7 296 450.3 323 429.8 338C409.3 353 388.7 356 368.2 341C347.7 326 327.3 293 306.8 303.5C286.3 314 265.7 368 245.2 395C224.7 422 204.3 422 184 407C163.7 392 143.3 362 122.8 357.5C102.3 353 81.7 374 61.2 392C40.7 410 20.3 425 10.2 432.5L0 440Z" fill="#861321"></path><path d="M0 856L10.2 854.5C20.3 853 40.7 850 61.2 850C81.7 850 102.3 853 122.8 841C143.3 829 163.7 802 184 797.5C204.3 793 224.7 811 245.2 817C265.7 823 286.3 817 306.8 814C327.3 811 347.7 811 368.2 806.5C388.7 802 409.3 793 429.8 785.5C450.3 778 470.7 772 491 770.5C511.3 769 531.7 772 552.2 773.5C572.7 775 593.3 775 613.8 782.5C634.3 790 654.7 805 664.8 812.5L675 820L675 584L664.8 588.5C654.7 593 634.3 602 613.8 603.5C593.3 605 572.7 599 552.2 572C531.7 545 511.3 497 491 492.5C470.7 488 450.3 527 429.8 545C409.3 563 388.7 560 368.2 561.5C347.7 563 327.3 569 306.8 582.5C286.3 596 265.7 617 245.2 617C224.7 617 204.3 596 184 591.5C163.7 587 143.3 599 122.8 609.5C102.3 620 81.7 629 61.2 635C40.7 641 20.3 644 10.2 645.5L0 647Z" fill="#67131d"></path><path d="M0 901L10.2 901C20.3 901 40.7 901 61.2 901C81.7 901 102.3 901 122.8 901C143.3 901 163.7 901 184 901C204.3 901 224.7 901 245.2 901C265.7 901 286.3 901 306.8 901C327.3 901 347.7 901 368.2 901C388.7 901 409.3 901 429.8 901C450.3 901 470.7 901 491 901C511.3 901 531.7 901 552.2 901C572.7 901 593.3 901 613.8 901C634.3 901 654.7 901 664.8 901L675 901L675 818L664.8 810.5C654.7 803 634.3 788 613.8 780.5C593.3 773 572.7 773 552.2 771.5C531.7 770 511.3 767 491 768.5C470.7 770 450.3 776 429.8 783.5C409.3 791 388.7 800 368.2 804.5C347.7 809 327.3 809 306.8 812C286.3 815 265.7 821 245.2 815C224.7 809 204.3 791 184 795.5C163.7 800 143.3 827 122.8 839C102.3 851 81.7 848 61.2 848C40.7 848 20.3 851 10.2 852.5L0 854Z" fill="#4a1218"></path></svg>