<svg width="498" height="498" viewBox="0 0 498 498" fill="none"
    xmlns="http://www.w3.org/2000/svg"><!--!Font Awesome Free 6.5.1 by @fontawesome - https://fontawesome.com License - https://fontawesome.com/license/free Copyright 2024 Fonticons, Inc.-->
    <g clip-path="url(#clip0_562_9216)">
        <path
            d="M362.137 90.6083C374.653 78.0925 374.653 57.8693 362.137 45.3535C349.621 32.8377 329.398 32.8377 316.882 45.3535L45.3532 316.882C32.8374 329.398 32.8374 349.622 45.3532 362.137C57.869 374.653 78.0923 374.653 90.6081 362.137L362.137 90.6083ZM452.647 181.118C465.163 168.602 465.163 148.379 452.647 135.863C440.131 123.347 419.908 123.347 407.392 135.863L135.863 407.392C123.347 419.908 123.347 440.131 135.863 452.647C148.379 465.163 168.602 465.163 181.118 452.647L452.647 181.118Z"
            fill="#e30e24" />
    </g>
    <defs>
        <clipPath id="clip0_562_9216">
            <rect width="192" height="512" fill="white" transform="translate(362.137 0.0986328) rotate(45)" />
        </clipPath>
    </defs>
</svg>