<svg id="visual" viewBox="0 0 900 600" width="900" height="600" xmlns="http://www.w3.org/2000/svg" xmlns:xlink="http://www.w3.org/1999/xlink" version="1.1"><g stroke-width="1" stroke-linejoin="bevel"><path d="M490 309L415 270L484 366Z" fill="#761320" stroke="#761320"></path><path d="M415 270L374 372L484 366Z" fill="#4a1218" stroke="#4a1218"></path><path d="M415 270L328 322L374 372Z" fill="#4a1218" stroke="#4a1218"></path><path d="M586 279L521 239L490 309Z" fill="#67131d" stroke="#67131d"></path><path d="M490 309L521 239L415 270Z" fill="#e30e24" stroke="#e30e24"></path><path d="M521 239L434 188L415 270Z" fill="#951223" stroke="#951223"></path><path d="M415 270L300 201L328 322Z" fill="#d30e25" stroke="#d30e25"></path><path d="M268 376L366 460L374 372Z" fill="#67131d" stroke="#67131d"></path><path d="M374 372L366 460L484 366Z" fill="#761320" stroke="#761320"></path><path d="M583 400L586 279L490 309Z" fill="#59131b" stroke="#59131b"></path><path d="M462 539L583 400L484 366Z" fill="#951223" stroke="#951223"></path><path d="M484 366L583 400L490 309Z" fill="#951223" stroke="#951223"></path><path d="M187 336L268 376L328 322Z" fill="#c40f25" stroke="#c40f25"></path><path d="M328 322L268 376L374 372Z" fill="#c40f25" stroke="#c40f25"></path><path d="M434 188L300 201L415 270Z" fill="#761320" stroke="#761320"></path><path d="M667 292L590 220L586 279Z" fill="#a41124" stroke="#a41124"></path><path d="M586 279L590 220L521 239Z" fill="#e30e24" stroke="#e30e24"></path><path d="M521 239L477 121L434 188Z" fill="#761320" stroke="#761320"></path><path d="M434 188L402 139L300 201Z" fill="#67131d" stroke="#67131d"></path><path d="M477 121L402 139L434 188Z" fill="#761320" stroke="#761320"></path><path d="M268 376L317 507L366 460Z" fill="#67131d" stroke="#67131d"></path><path d="M366 460L462 539L484 366Z" fill="#67131d" stroke="#67131d"></path><path d="M317 507L462 539L366 460Z" fill="#67131d" stroke="#67131d"></path><path d="M591 139L477 121L521 239Z" fill="#59131b" stroke="#59131b"></path><path d="M260 118L226 209L300 201Z" fill="#c40f25" stroke="#c40f25"></path><path d="M300 201L226 209L328 322Z" fill="#761320" stroke="#761320"></path><path d="M583 400L667 292L586 279Z" fill="#b41025" stroke="#b41025"></path><path d="M226 209L187 336L328 322Z" fill="#861321" stroke="#861321"></path><path d="M268 376L224 507L317 507Z" fill="#951223" stroke="#951223"></path><path d="M462 539L582 527L583 400Z" fill="#b41025" stroke="#b41025"></path><path d="M583 400L726 410L667 292Z" fill="#59131b" stroke="#59131b"></path><path d="M686 197L591 139L590 220Z" fill="#a41124" stroke="#a41124"></path><path d="M590 220L591 139L521 239Z" fill="#59131b" stroke="#59131b"></path><path d="M317 507L439 600L462 539Z" fill="#59131b" stroke="#59131b"></path><path d="M462 539L493 600L582 527Z" fill="#67131d" stroke="#67131d"></path><path d="M171 426L224 507L268 376Z" fill="#b41025" stroke="#b41025"></path><path d="M317 507L266 600L439 600Z" fill="#67131d" stroke="#67131d"></path><path d="M332 0L260 118L402 139Z" fill="#861321" stroke="#861321"></path><path d="M402 139L260 118L300 201Z" fill="#c40f25" stroke="#c40f25"></path><path d="M439 600L493 600L462 539Z" fill="#67131d" stroke="#67131d"></path><path d="M187 336L171 426L268 376Z" fill="#761320" stroke="#761320"></path><path d="M667 292L686 197L590 220Z" fill="#d30e25" stroke="#d30e25"></path><path d="M661 600L674 514L582 527Z" fill="#4a1218" stroke="#4a1218"></path><path d="M582 527L674 514L583 400Z" fill="#761320" stroke="#761320"></path><path d="M667 292L814 238L686 197Z" fill="#e30e24" stroke="#e30e24"></path><path d="M674 514L726 410L583 400Z" fill="#59131b" stroke="#59131b"></path><path d="M493 600L581 600L582 527Z" fill="#951223" stroke="#951223"></path><path d="M260 118L191 131L226 209Z" fill="#c40f25" stroke="#c40f25"></path><path d="M226 209L63 278L187 336Z" fill="#e30e24" stroke="#e30e24"></path><path d="M187 336L92 403L171 426Z" fill="#d30e25" stroke="#d30e25"></path><path d="M204 600L266 600L224 507Z" fill="#67131d" stroke="#67131d"></path><path d="M224 507L266 600L317 507Z" fill="#4a1218" stroke="#4a1218"></path><path d="M495 0L434 0L477 121Z" fill="#761320" stroke="#761320"></path><path d="M477 121L434 0L402 139Z" fill="#c40f25" stroke="#c40f25"></path><path d="M260 118L196 0L191 131Z" fill="#d30e25" stroke="#d30e25"></path><path d="M495 0L477 121L591 139Z" fill="#67131d" stroke="#67131d"></path><path d="M602 0L495 0L591 139Z" fill="#861321" stroke="#861321"></path><path d="M434 0L332 0L402 139Z" fill="#761320" stroke="#761320"></path><path d="M63 278L92 403L187 336Z" fill="#e30e24" stroke="#e30e24"></path><path d="M131 534L204 600L224 507Z" fill="#b41025" stroke="#b41025"></path><path d="M131 534L224 507L171 426Z" fill="#b41025" stroke="#b41025"></path><path d="M581 600L661 600L582 527Z" fill="#761320" stroke="#761320"></path><path d="M674 514L777 412L726 410Z" fill="#951223" stroke="#951223"></path><path d="M839 462L777 412L674 514Z" fill="#e30e24" stroke="#e30e24"></path><path d="M726 410L811 292L667 292Z" fill="#d30e25" stroke="#d30e25"></path><path d="M92 403L131 534L171 426Z" fill="#c40f25" stroke="#c40f25"></path><path d="M74 202L63 278L226 209Z" fill="#67131d" stroke="#67131d"></path><path d="M724 92L602 0L591 139Z" fill="#c40f25" stroke="#c40f25"></path><path d="M784 94L724 92L686 197Z" fill="#67131d" stroke="#67131d"></path><path d="M686 197L724 92L591 139Z" fill="#d30e25" stroke="#d30e25"></path><path d="M191 131L74 202L226 209Z" fill="#a41124" stroke="#a41124"></path><path d="M92 77L74 202L191 131Z" fill="#861321" stroke="#861321"></path><path d="M777 412L811 292L726 410Z" fill="#c40f25" stroke="#c40f25"></path><path d="M811 292L814 238L667 292Z" fill="#4a1218" stroke="#4a1218"></path><path d="M131 534L130 600L204 600Z" fill="#e30e24" stroke="#e30e24"></path><path d="M0 600L130 600L131 534Z" fill="#4a1218" stroke="#4a1218"></path><path d="M0 510L131 534L92 403Z" fill="#67131d" stroke="#67131d"></path><path d="M332 0L196 0L260 118Z" fill="#861321" stroke="#861321"></path><path d="M784 94L686 0L724 92Z" fill="#b41025" stroke="#b41025"></path><path d="M724 92L686 0L602 0Z" fill="#761320" stroke="#761320"></path><path d="M0 211L0 302L63 278Z" fill="#951223" stroke="#951223"></path><path d="M133 0L92 77L191 131Z" fill="#59131b" stroke="#59131b"></path><path d="M814 238L784 94L686 197Z" fill="#b41025" stroke="#b41025"></path><path d="M815 600L839 462L674 514Z" fill="#a41124" stroke="#a41124"></path><path d="M777 412L900 414L811 292Z" fill="#d30e25" stroke="#d30e25"></path><path d="M811 292L900 263L814 238Z" fill="#67131d" stroke="#67131d"></path><path d="M0 211L63 278L74 202Z" fill="#59131b" stroke="#59131b"></path><path d="M63 278L0 302L92 403Z" fill="#4a1218" stroke="#4a1218"></path><path d="M0 302L0 418L92 403Z" fill="#4a1218" stroke="#4a1218"></path><path d="M196 0L133 0L191 131Z" fill="#e30e24" stroke="#e30e24"></path><path d="M0 115L0 211L74 202Z" fill="#59131b" stroke="#59131b"></path><path d="M0 115L74 202L92 77Z" fill="#861321" stroke="#861321"></path><path d="M0 418L0 510L92 403Z" fill="#d30e25" stroke="#d30e25"></path><path d="M661 600L815 600L674 514Z" fill="#a41124" stroke="#a41124"></path><path d="M900 414L900 263L811 292Z" fill="#59131b" stroke="#59131b"></path><path d="M814 238L900 97L784 94Z" fill="#4a1218" stroke="#4a1218"></path><path d="M900 414L777 412L839 462Z" fill="#d30e25" stroke="#d30e25"></path><path d="M900 508L900 414L839 462Z" fill="#951223" stroke="#951223"></path><path d="M0 0L0 115L92 77Z" fill="#761320" stroke="#761320"></path><path d="M900 263L900 219L814 238Z" fill="#67131d" stroke="#67131d"></path><path d="M815 600L900 508L839 462Z" fill="#861321" stroke="#861321"></path><path d="M0 510L0 600L131 534Z" fill="#c40f25" stroke="#c40f25"></path><path d="M900 219L900 97L814 238Z" fill="#67131d" stroke="#67131d"></path><path d="M784 94L838 0L686 0Z" fill="#861321" stroke="#861321"></path><path d="M900 97L838 0L784 94Z" fill="#67131d" stroke="#67131d"></path><path d="M815 600L900 600L900 508Z" fill="#c40f25" stroke="#c40f25"></path><path d="M133 0L0 0L92 77Z" fill="#c40f25" stroke="#c40f25"></path><path d="M900 97L900 0L838 0Z" fill="#b41025" stroke="#b41025"></path></g></svg>