<svg id="visual" viewBox="0 0 900 600" width="900" height="600" xmlns="http://www.w3.org/2000/svg" xmlns:xlink="http://www.w3.org/1999/xlink" version="1.1"><g stroke-width="1" stroke-linejoin="bevel"><path d="M430 290L505 321L462 209Z" fill="#67131d" stroke="#67131d"></path><path d="M462 209L410 200L430 290Z" fill="#59131b" stroke="#59131b"></path><path d="M505 321L574 314L462 209Z" fill="#b41025" stroke="#b41025"></path><path d="M300 277L393 366L430 290Z" fill="#d30e25" stroke="#d30e25"></path><path d="M430 290L393 366L505 321Z" fill="#4a1218" stroke="#4a1218"></path><path d="M505 321L523 398L574 314Z" fill="#67131d" stroke="#67131d"></path><path d="M393 366L523 398L505 321Z" fill="#67131d" stroke="#67131d"></path><path d="M462 209L466 126L410 200Z" fill="#b41025" stroke="#b41025"></path><path d="M630 214L466 126L462 209Z" fill="#67131d" stroke="#67131d"></path><path d="M574 314L630 214L462 209Z" fill="#59131b" stroke="#59131b"></path><path d="M308 167L300 277L410 200Z" fill="#a41124" stroke="#a41124"></path><path d="M410 200L300 277L430 290Z" fill="#c40f25" stroke="#c40f25"></path><path d="M630 214L637 135L466 126Z" fill="#a41124" stroke="#a41124"></path><path d="M394 82L308 167L410 200Z" fill="#59131b" stroke="#59131b"></path><path d="M523 398L633 402L574 314Z" fill="#e30e24" stroke="#e30e24"></path><path d="M574 314L723 323L630 214Z" fill="#861321" stroke="#861321"></path><path d="M630 214L718 179L637 135Z" fill="#e30e24" stroke="#e30e24"></path><path d="M505 0L394 82L466 126Z" fill="#a41124" stroke="#a41124"></path><path d="M466 126L394 82L410 200Z" fill="#a41124" stroke="#a41124"></path><path d="M317 428L394 463L393 366Z" fill="#e30e24" stroke="#e30e24"></path><path d="M393 366L394 463L523 398Z" fill="#a41124" stroke="#a41124"></path><path d="M523 398L534 497L633 402Z" fill="#59131b" stroke="#59131b"></path><path d="M300 277L317 428L393 366Z" fill="#59131b" stroke="#59131b"></path><path d="M394 463L534 497L523 398Z" fill="#b41025" stroke="#b41025"></path><path d="M709 474L679 410L633 402Z" fill="#c40f25" stroke="#c40f25"></path><path d="M633 402L723 323L574 314Z" fill="#a41124" stroke="#a41124"></path><path d="M679 410L723 323L633 402Z" fill="#d30e25" stroke="#d30e25"></path><path d="M723 323L718 179L630 214Z" fill="#4a1218" stroke="#4a1218"></path><path d="M394 82L290 90L308 167Z" fill="#c40f25" stroke="#c40f25"></path><path d="M308 167L203 234L300 277Z" fill="#861321" stroke="#861321"></path><path d="M620 0L505 0L637 135Z" fill="#761320" stroke="#761320"></path><path d="M637 135L505 0L466 126Z" fill="#861321" stroke="#861321"></path><path d="M394 82L332 0L290 90Z" fill="#b41025" stroke="#b41025"></path><path d="M486 600L574 522L534 497Z" fill="#e30e24" stroke="#e30e24"></path><path d="M534 497L574 522L633 402Z" fill="#b41025" stroke="#b41025"></path><path d="M213 72L203 234L308 167Z" fill="#d30e25" stroke="#d30e25"></path><path d="M300 277L205 364L317 428Z" fill="#67131d" stroke="#67131d"></path><path d="M815 410L769 277L723 323Z" fill="#59131b" stroke="#59131b"></path><path d="M723 323L769 277L718 179Z" fill="#a41124" stroke="#a41124"></path><path d="M203 234L199 275L300 277Z" fill="#e30e24" stroke="#e30e24"></path><path d="M505 0L370 0L394 82Z" fill="#c40f25" stroke="#c40f25"></path><path d="M769 277L778 227L718 179Z" fill="#4a1218" stroke="#4a1218"></path><path d="M718 179L708 69L637 135Z" fill="#d30e25" stroke="#d30e25"></path><path d="M199 275L205 364L300 277Z" fill="#67131d" stroke="#67131d"></path><path d="M803 89L708 69L718 179Z" fill="#67131d" stroke="#67131d"></path><path d="M708 69L620 0L637 135Z" fill="#d30e25" stroke="#d30e25"></path><path d="M370 0L332 0L394 82Z" fill="#67131d" stroke="#67131d"></path><path d="M290 90L213 72L308 167Z" fill="#861321" stroke="#861321"></path><path d="M574 522L709 474L633 402Z" fill="#761320" stroke="#761320"></path><path d="M679 410L815 410L723 323Z" fill="#4a1218" stroke="#4a1218"></path><path d="M317 428L329 531L394 463Z" fill="#c40f25" stroke="#c40f25"></path><path d="M424 600L486 600L534 497Z" fill="#e30e24" stroke="#e30e24"></path><path d="M220 538L329 531L317 428Z" fill="#c40f25" stroke="#c40f25"></path><path d="M211 0L213 72L290 90Z" fill="#67131d" stroke="#67131d"></path><path d="M203 234L99 292L199 275Z" fill="#951223" stroke="#951223"></path><path d="M424 600L534 497L394 463Z" fill="#a41124" stroke="#a41124"></path><path d="M574 522L701 600L709 474Z" fill="#4a1218" stroke="#4a1218"></path><path d="M329 531L424 600L394 463Z" fill="#761320" stroke="#761320"></path><path d="M486 600L572 600L574 522Z" fill="#59131b" stroke="#59131b"></path><path d="M779 522L815 410L709 474Z" fill="#c40f25" stroke="#c40f25"></path><path d="M709 474L815 410L679 410Z" fill="#4a1218" stroke="#4a1218"></path><path d="M769 277L900 233L778 227Z" fill="#e30e24" stroke="#e30e24"></path><path d="M778 227L803 89L718 179Z" fill="#59131b" stroke="#59131b"></path><path d="M708 69L737 0L620 0Z" fill="#761320" stroke="#761320"></path><path d="M900 233L803 89L778 227Z" fill="#4a1218" stroke="#4a1218"></path><path d="M771 0L737 0L708 69Z" fill="#e30e24" stroke="#e30e24"></path><path d="M205 364L220 538L317 428Z" fill="#951223" stroke="#951223"></path><path d="M329 531L282 600L424 600Z" fill="#861321" stroke="#861321"></path><path d="M332 0L211 0L290 90Z" fill="#a41124" stroke="#a41124"></path><path d="M80 227L99 292L203 234Z" fill="#861321" stroke="#861321"></path><path d="M199 275L99 292L205 364Z" fill="#d30e25" stroke="#d30e25"></path><path d="M205 364L139 518L220 538Z" fill="#d30e25" stroke="#d30e25"></path><path d="M80 227L203 234L96 109Z" fill="#a41124" stroke="#a41124"></path><path d="M803 89L771 0L708 69Z" fill="#a41124" stroke="#a41124"></path><path d="M701 600L779 522L709 474Z" fill="#761320" stroke="#761320"></path><path d="M220 538L282 600L329 531Z" fill="#d30e25" stroke="#d30e25"></path><path d="M572 600L701 600L574 522Z" fill="#e30e24" stroke="#e30e24"></path><path d="M96 109L203 234L213 72Z" fill="#b41025" stroke="#b41025"></path><path d="M900 321L769 277L815 410Z" fill="#b41025" stroke="#b41025"></path><path d="M900 321L900 233L769 277Z" fill="#4a1218" stroke="#4a1218"></path><path d="M803 89L900 0L771 0Z" fill="#861321" stroke="#861321"></path><path d="M90 0L96 109L213 72Z" fill="#c40f25" stroke="#c40f25"></path><path d="M900 366L900 321L815 410Z" fill="#59131b" stroke="#59131b"></path><path d="M0 280L77 365L99 292Z" fill="#67131d" stroke="#67131d"></path><path d="M99 292L77 365L205 364Z" fill="#b41025" stroke="#b41025"></path><path d="M900 509L900 366L815 410Z" fill="#b41025" stroke="#b41025"></path><path d="M77 365L139 518L205 364Z" fill="#4a1218" stroke="#4a1218"></path><path d="M220 538L191 600L282 600Z" fill="#b41025" stroke="#b41025"></path><path d="M139 518L191 600L220 538Z" fill="#d30e25" stroke="#d30e25"></path><path d="M900 233L900 99L803 89Z" fill="#c40f25" stroke="#c40f25"></path><path d="M701 600L809 600L779 522Z" fill="#b41025" stroke="#b41025"></path><path d="M779 522L900 509L815 410Z" fill="#4a1218" stroke="#4a1218"></path><path d="M0 218L0 280L80 227Z" fill="#d30e25" stroke="#d30e25"></path><path d="M211 0L90 0L213 72Z" fill="#951223" stroke="#951223"></path><path d="M809 600L900 509L779 522Z" fill="#b41025" stroke="#b41025"></path><path d="M0 514L121 600L139 518Z" fill="#861321" stroke="#861321"></path><path d="M80 227L0 280L99 292Z" fill="#b41025" stroke="#b41025"></path><path d="M0 218L80 227L96 109Z" fill="#d30e25" stroke="#d30e25"></path><path d="M0 68L0 218L96 109Z" fill="#b41025" stroke="#b41025"></path><path d="M900 99L900 0L803 89Z" fill="#4a1218" stroke="#4a1218"></path><path d="M139 518L121 600L191 600Z" fill="#d30e25" stroke="#d30e25"></path><path d="M0 401L139 518L77 365Z" fill="#59131b" stroke="#59131b"></path><path d="M0 280L0 401L77 365Z" fill="#861321" stroke="#861321"></path><path d="M90 0L0 68L96 109Z" fill="#861321" stroke="#861321"></path><path d="M809 600L900 600L900 509Z" fill="#951223" stroke="#951223"></path><path d="M0 401L0 514L139 518Z" fill="#4a1218" stroke="#4a1218"></path><path d="M90 0L0 0L0 68Z" fill="#a41124" stroke="#a41124"></path><path d="M0 514L0 600L121 600Z" fill="#c40f25" stroke="#c40f25"></path></g></svg>