<svg id="visual" viewBox="0 0 900 600" width="900" height="600" xmlns="http://www.w3.org/2000/svg" xmlns:xlink="http://www.w3.org/1999/xlink" version="1.1"><g stroke-width="1" stroke-linejoin="bevel"><path d="M413 298L481 324L503 234Z" fill="#d30e25" stroke="#d30e25"></path><path d="M503 234L368 165L413 298Z" fill="#67131d" stroke="#67131d"></path><path d="M425 135L368 165L503 234Z" fill="#761320" stroke="#761320"></path><path d="M374 411L482 415L481 324Z" fill="#67131d" stroke="#67131d"></path><path d="M481 324L619 281L503 234Z" fill="#59131b" stroke="#59131b"></path><path d="M299 231L320 303L413 298Z" fill="#e30e24" stroke="#e30e24"></path><path d="M413 298L374 411L481 324Z" fill="#d30e25" stroke="#d30e25"></path><path d="M625 374L619 281L481 324Z" fill="#e30e24" stroke="#e30e24"></path><path d="M503 234L539 117L425 135Z" fill="#861321" stroke="#861321"></path><path d="M320 303L374 411L413 298Z" fill="#67131d" stroke="#67131d"></path><path d="M368 165L299 231L413 298Z" fill="#c40f25" stroke="#c40f25"></path><path d="M607 165L539 117L503 234Z" fill="#67131d" stroke="#67131d"></path><path d="M619 281L607 165L503 234Z" fill="#951223" stroke="#951223"></path><path d="M482 415L625 374L481 324Z" fill="#67131d" stroke="#67131d"></path><path d="M425 135L338 110L368 165Z" fill="#a41124" stroke="#a41124"></path><path d="M368 165L338 110L299 231Z" fill="#67131d" stroke="#67131d"></path><path d="M368 0L338 110L425 135Z" fill="#4a1218" stroke="#4a1218"></path><path d="M197 363L264 382L320 303Z" fill="#b41025" stroke="#b41025"></path><path d="M320 303L264 382L374 411Z" fill="#861321" stroke="#861321"></path><path d="M708 162L615 99L607 165Z" fill="#a41124" stroke="#a41124"></path><path d="M607 165L615 99L539 117Z" fill="#59131b" stroke="#59131b"></path><path d="M539 117L504 0L425 135Z" fill="#59131b" stroke="#59131b"></path><path d="M708 162L607 165L619 281Z" fill="#a41124" stroke="#a41124"></path><path d="M361 497L508 513L482 415Z" fill="#59131b" stroke="#59131b"></path><path d="M482 415L588 527L625 374Z" fill="#e30e24" stroke="#e30e24"></path><path d="M361 497L482 415L374 411Z" fill="#761320" stroke="#761320"></path><path d="M264 382L361 497L374 411Z" fill="#c40f25" stroke="#c40f25"></path><path d="M695 427L726 313L625 374Z" fill="#761320" stroke="#761320"></path><path d="M625 374L726 313L619 281Z" fill="#b41025" stroke="#b41025"></path><path d="M726 313L708 162L619 281Z" fill="#b41025" stroke="#b41025"></path><path d="M614 0L539 117L615 99Z" fill="#67131d" stroke="#67131d"></path><path d="M614 0L504 0L539 117Z" fill="#861321" stroke="#861321"></path><path d="M338 110L195 202L299 231Z" fill="#59131b" stroke="#59131b"></path><path d="M170 291L197 363L320 303Z" fill="#b41025" stroke="#b41025"></path><path d="M174 134L195 202L338 110Z" fill="#761320" stroke="#761320"></path><path d="M674 506L695 427L625 374Z" fill="#4a1218" stroke="#4a1218"></path><path d="M170 291L320 303L299 231Z" fill="#67131d" stroke="#67131d"></path><path d="M264 382L267 534L361 497Z" fill="#951223" stroke="#951223"></path><path d="M522 600L588 527L508 513Z" fill="#a41124" stroke="#a41124"></path><path d="M508 513L588 527L482 415Z" fill="#a41124" stroke="#a41124"></path><path d="M504 0L368 0L425 135Z" fill="#4a1218" stroke="#4a1218"></path><path d="M195 202L170 291L299 231Z" fill="#59131b" stroke="#59131b"></path><path d="M829 235L723 109L708 162Z" fill="#c40f25" stroke="#c40f25"></path><path d="M708 162L723 109L615 99Z" fill="#a41124" stroke="#a41124"></path><path d="M695 427L760 360L726 313Z" fill="#a41124" stroke="#a41124"></path><path d="M726 313L806 290L708 162Z" fill="#d30e25" stroke="#d30e25"></path><path d="M673 0L614 0L615 99Z" fill="#59131b" stroke="#59131b"></path><path d="M588 527L674 506L625 374Z" fill="#67131d" stroke="#67131d"></path><path d="M695 427L828 470L760 360Z" fill="#b41025" stroke="#b41025"></path><path d="M293 0L174 134L338 110Z" fill="#861321" stroke="#861321"></path><path d="M88 169L107 320L170 291Z" fill="#c40f25" stroke="#c40f25"></path><path d="M368 0L293 0L338 110Z" fill="#59131b" stroke="#59131b"></path><path d="M164 472L267 534L264 382Z" fill="#a41124" stroke="#a41124"></path><path d="M361 497L427 600L508 513Z" fill="#951223" stroke="#951223"></path><path d="M308 600L427 600L361 497Z" fill="#59131b" stroke="#59131b"></path><path d="M588 527L563 600L674 506Z" fill="#c40f25" stroke="#c40f25"></path><path d="M427 600L522 600L508 513Z" fill="#951223" stroke="#951223"></path><path d="M522 600L563 600L588 527Z" fill="#c40f25" stroke="#c40f25"></path><path d="M723 109L673 0L615 99Z" fill="#861321" stroke="#861321"></path><path d="M900 393L806 290L760 360Z" fill="#59131b" stroke="#59131b"></path><path d="M760 360L806 290L726 313Z" fill="#4a1218" stroke="#4a1218"></path><path d="M170 291L107 320L197 363Z" fill="#d30e25" stroke="#d30e25"></path><path d="M197 363L164 472L264 382Z" fill="#d30e25" stroke="#d30e25"></path><path d="M88 169L170 291L195 202Z" fill="#951223" stroke="#951223"></path><path d="M134 460L164 472L197 363Z" fill="#861321" stroke="#861321"></path><path d="M185 600L308 600L267 534Z" fill="#4a1218" stroke="#4a1218"></path><path d="M267 534L308 600L361 497Z" fill="#b41025" stroke="#b41025"></path><path d="M107 320L114 383L197 363Z" fill="#951223" stroke="#951223"></path><path d="M806 290L829 235L708 162Z" fill="#861321" stroke="#861321"></path><path d="M723 109L822 69L673 0Z" fill="#951223" stroke="#951223"></path><path d="M114 383L134 460L197 363Z" fill="#59131b" stroke="#59131b"></path><path d="M164 472L185 600L267 534Z" fill="#67131d" stroke="#67131d"></path><path d="M293 0L190 0L174 134Z" fill="#861321" stroke="#861321"></path><path d="M174 134L88 169L195 202Z" fill="#a41124" stroke="#a41124"></path><path d="M90 108L88 169L174 134Z" fill="#d30e25" stroke="#d30e25"></path><path d="M107 320L0 392L114 383Z" fill="#761320" stroke="#761320"></path><path d="M190 0L90 108L174 134Z" fill="#b41025" stroke="#b41025"></path><path d="M829 235L822 69L723 109Z" fill="#4a1218" stroke="#4a1218"></path><path d="M739 600L828 470L674 506Z" fill="#59131b" stroke="#59131b"></path><path d="M674 506L828 470L695 427Z" fill="#59131b" stroke="#59131b"></path><path d="M806 290L900 261L829 235Z" fill="#a41124" stroke="#a41124"></path><path d="M563 600L739 600L674 506Z" fill="#761320" stroke="#761320"></path><path d="M92 600L185 600L164 472Z" fill="#d30e25" stroke="#d30e25"></path><path d="M900 393L900 261L806 290Z" fill="#59131b" stroke="#59131b"></path><path d="M829 235L900 115L822 69Z" fill="#951223" stroke="#951223"></path><path d="M900 261L900 206L829 235Z" fill="#e30e24" stroke="#e30e24"></path><path d="M828 470L900 393L760 360Z" fill="#951223" stroke="#951223"></path><path d="M900 503L900 393L828 470Z" fill="#d30e25" stroke="#d30e25"></path><path d="M190 0L97 0L90 108Z" fill="#861321" stroke="#861321"></path><path d="M900 0L829 0L822 69Z" fill="#951223" stroke="#951223"></path><path d="M822 69L829 0L673 0Z" fill="#a41124" stroke="#a41124"></path><path d="M739 600L783 600L828 470Z" fill="#4a1218" stroke="#4a1218"></path><path d="M114 383L0 464L134 460Z" fill="#e30e24" stroke="#e30e24"></path><path d="M134 460L92 600L164 472Z" fill="#951223" stroke="#951223"></path><path d="M0 203L0 314L107 320Z" fill="#b41025" stroke="#b41025"></path><path d="M0 203L107 320L88 169Z" fill="#d30e25" stroke="#d30e25"></path><path d="M0 203L88 169L0 115Z" fill="#e30e24" stroke="#e30e24"></path><path d="M900 206L900 115L829 235Z" fill="#761320" stroke="#761320"></path><path d="M0 115L88 169L90 108Z" fill="#59131b" stroke="#59131b"></path><path d="M0 314L0 392L107 320Z" fill="#861321" stroke="#861321"></path><path d="M0 0L0 115L90 108Z" fill="#67131d" stroke="#67131d"></path><path d="M0 464L92 600L134 460Z" fill="#761320" stroke="#761320"></path><path d="M783 600L900 503L828 470Z" fill="#d30e25" stroke="#d30e25"></path><path d="M0 392L0 464L114 383Z" fill="#d30e25" stroke="#d30e25"></path><path d="M900 115L900 0L822 69Z" fill="#b41025" stroke="#b41025"></path><path d="M97 0L0 0L90 108Z" fill="#951223" stroke="#951223"></path><path d="M783 600L900 600L900 503Z" fill="#e30e24" stroke="#e30e24"></path><path d="M0 464L0 600L92 600Z" fill="#67131d" stroke="#67131d"></path></g></svg>