<svg id="visual" viewBox="0 0 900 600" width="900" height="600" xmlns="http://www.w3.org/2000/svg" xmlns:xlink="http://www.w3.org/1999/xlink" version="1.1"><g stroke-width="1" stroke-linejoin="bevel"><path d="M499 318L511 366L586 278Z" fill="#d30e25" stroke="#d30e25"></path><path d="M586 278L538 237L499 318Z" fill="#861321" stroke="#861321"></path><path d="M511 366L627 428L586 278Z" fill="#d30e25" stroke="#d30e25"></path><path d="M627 428L669 380L586 278Z" fill="#67131d" stroke="#67131d"></path><path d="M710 238L590 202L586 278Z" fill="#e30e24" stroke="#e30e24"></path><path d="M586 278L590 202L538 237Z" fill="#861321" stroke="#861321"></path><path d="M669 380L714 289L586 278Z" fill="#e30e24" stroke="#e30e24"></path><path d="M390 278L405 394L499 318Z" fill="#951223" stroke="#951223"></path><path d="M499 318L405 394L511 366Z" fill="#a41124" stroke="#a41124"></path><path d="M511 366L490 492L627 428Z" fill="#951223" stroke="#951223"></path><path d="M481 107L423 229L538 237Z" fill="#d30e25" stroke="#d30e25"></path><path d="M538 237L423 229L499 318Z" fill="#761320" stroke="#761320"></path><path d="M423 229L390 278L499 318Z" fill="#a41124" stroke="#a41124"></path><path d="M405 394L490 492L511 366Z" fill="#67131d" stroke="#67131d"></path><path d="M714 289L710 238L586 278Z" fill="#b41025" stroke="#b41025"></path><path d="M490 492L620 497L627 428Z" fill="#c40f25" stroke="#c40f25"></path><path d="M775 463L769 391L669 380Z" fill="#761320" stroke="#761320"></path><path d="M669 380L769 391L714 289Z" fill="#861321" stroke="#861321"></path><path d="M775 463L669 380L627 428Z" fill="#b41025" stroke="#b41025"></path><path d="M714 289L813 211L710 238Z" fill="#59131b" stroke="#59131b"></path><path d="M620 497L683 524L627 428Z" fill="#59131b" stroke="#59131b"></path><path d="M668 600L683 524L620 497Z" fill="#b41025" stroke="#b41025"></path><path d="M763 80L668 124L710 238Z" fill="#c40f25" stroke="#c40f25"></path><path d="M710 238L668 124L590 202Z" fill="#a41124" stroke="#a41124"></path><path d="M590 202L481 107L538 237Z" fill="#951223" stroke="#951223"></path><path d="M405 394L395 498L490 492Z" fill="#4a1218" stroke="#4a1218"></path><path d="M490 492L564 600L620 497Z" fill="#59131b" stroke="#59131b"></path><path d="M297 418L395 498L405 394Z" fill="#4a1218" stroke="#4a1218"></path><path d="M611 74L481 107L590 202Z" fill="#59131b" stroke="#59131b"></path><path d="M298 228L307 272L390 278Z" fill="#c40f25" stroke="#c40f25"></path><path d="M683 524L775 463L627 428Z" fill="#861321" stroke="#861321"></path><path d="M298 228L390 278L423 229Z" fill="#c40f25" stroke="#c40f25"></path><path d="M390 278L307 272L405 394Z" fill="#67131d" stroke="#67131d"></path><path d="M668 124L611 74L590 202Z" fill="#d30e25" stroke="#d30e25"></path><path d="M512 600L564 600L490 492Z" fill="#761320" stroke="#761320"></path><path d="M307 272L297 418L405 394Z" fill="#951223" stroke="#951223"></path><path d="M373 600L512 600L395 498Z" fill="#861321" stroke="#861321"></path><path d="M395 498L512 600L490 492Z" fill="#861321" stroke="#861321"></path><path d="M370 85L298 228L423 229Z" fill="#b41025" stroke="#b41025"></path><path d="M307 272L196 303L297 418Z" fill="#67131d" stroke="#67131d"></path><path d="M900 305L834 304L900 422Z" fill="#761320" stroke="#761320"></path><path d="M769 391L834 304L714 289Z" fill="#761320" stroke="#761320"></path><path d="M834 304L813 211L714 289Z" fill="#59131b" stroke="#59131b"></path><path d="M668 124L709 0L611 74Z" fill="#861321" stroke="#861321"></path><path d="M564 600L668 600L620 497Z" fill="#59131b" stroke="#59131b"></path><path d="M683 524L793 600L775 463Z" fill="#c40f25" stroke="#c40f25"></path><path d="M380 0L370 85L481 107Z" fill="#861321" stroke="#861321"></path><path d="M481 107L370 85L423 229Z" fill="#67131d" stroke="#67131d"></path><path d="M297 418L306 525L395 498Z" fill="#67131d" stroke="#67131d"></path><path d="M813 211L763 80L710 238Z" fill="#d30e25" stroke="#d30e25"></path><path d="M306 525L373 600L395 498Z" fill="#951223" stroke="#951223"></path><path d="M598 0L535 0L611 74Z" fill="#c40f25" stroke="#c40f25"></path><path d="M611 74L535 0L481 107Z" fill="#b41025" stroke="#b41025"></path><path d="M709 0L598 0L611 74Z" fill="#861321" stroke="#861321"></path><path d="M900 422L834 304L769 391Z" fill="#c40f25" stroke="#c40f25"></path><path d="M834 304L900 197L813 211Z" fill="#d30e25" stroke="#d30e25"></path><path d="M813 211L900 119L763 80Z" fill="#4a1218" stroke="#4a1218"></path><path d="M900 422L769 391L775 463Z" fill="#761320" stroke="#761320"></path><path d="M900 511L900 422L775 463Z" fill="#861321" stroke="#861321"></path><path d="M668 600L793 600L683 524Z" fill="#a41124" stroke="#a41124"></path><path d="M191 203L196 303L298 228Z" fill="#4a1218" stroke="#4a1218"></path><path d="M298 228L196 303L307 272Z" fill="#761320" stroke="#761320"></path><path d="M297 418L171 465L306 525Z" fill="#a41124" stroke="#a41124"></path><path d="M763 80L709 0L668 124Z" fill="#4a1218" stroke="#4a1218"></path><path d="M306 525L309 600L373 600Z" fill="#861321" stroke="#861321"></path><path d="M187 600L309 600L306 525Z" fill="#c40f25" stroke="#c40f25"></path><path d="M900 305L900 197L834 304Z" fill="#761320" stroke="#761320"></path><path d="M763 80L792 0L709 0Z" fill="#67131d" stroke="#67131d"></path><path d="M370 85L263 105L298 228Z" fill="#4a1218" stroke="#4a1218"></path><path d="M276 0L263 105L370 85Z" fill="#67131d" stroke="#67131d"></path><path d="M535 0L380 0L481 107Z" fill="#951223" stroke="#951223"></path><path d="M196 303L191 412L297 418Z" fill="#d30e25" stroke="#d30e25"></path><path d="M263 105L191 203L298 228Z" fill="#a41124" stroke="#a41124"></path><path d="M73 384L171 465L191 412Z" fill="#b41025" stroke="#b41025"></path><path d="M793 600L900 511L775 463Z" fill="#59131b" stroke="#59131b"></path><path d="M900 197L900 119L813 211Z" fill="#951223" stroke="#951223"></path><path d="M900 119L792 0L763 80Z" fill="#d30e25" stroke="#d30e25"></path><path d="M73 384L191 412L196 303Z" fill="#e30e24" stroke="#e30e24"></path><path d="M191 412L171 465L297 418Z" fill="#a41124" stroke="#a41124"></path><path d="M380 0L276 0L370 85Z" fill="#d30e25" stroke="#d30e25"></path><path d="M173 70L128 226L191 203Z" fill="#59131b" stroke="#59131b"></path><path d="M793 600L900 600L900 511Z" fill="#761320" stroke="#761320"></path><path d="M173 70L191 203L263 105Z" fill="#b41025" stroke="#b41025"></path><path d="M191 203L128 226L196 303Z" fill="#b41025" stroke="#b41025"></path><path d="M136 528L187 600L171 465Z" fill="#c40f25" stroke="#c40f25"></path><path d="M171 465L187 600L306 525Z" fill="#a41124" stroke="#a41124"></path><path d="M276 0L173 70L263 105Z" fill="#59131b" stroke="#59131b"></path><path d="M73 384L136 528L171 465Z" fill="#c40f25" stroke="#c40f25"></path><path d="M900 119L900 0L792 0Z" fill="#b41025" stroke="#b41025"></path><path d="M0 322L72 321L0 177Z" fill="#d30e25" stroke="#d30e25"></path><path d="M128 226L72 321L196 303Z" fill="#761320" stroke="#761320"></path><path d="M72 321L73 384L196 303Z" fill="#951223" stroke="#951223"></path><path d="M276 0L160 0L173 70Z" fill="#861321" stroke="#861321"></path><path d="M173 70L76 71L128 226Z" fill="#4a1218" stroke="#4a1218"></path><path d="M0 470L99 600L136 528Z" fill="#59131b" stroke="#59131b"></path><path d="M136 528L99 600L187 600Z" fill="#4a1218" stroke="#4a1218"></path><path d="M160 0L76 71L173 70Z" fill="#c40f25" stroke="#c40f25"></path><path d="M0 177L72 321L128 226Z" fill="#951223" stroke="#951223"></path><path d="M72 321L0 322L73 384Z" fill="#67131d" stroke="#67131d"></path><path d="M73 384L0 470L136 528Z" fill="#59131b" stroke="#59131b"></path><path d="M0 322L0 397L73 384Z" fill="#59131b" stroke="#59131b"></path><path d="M0 397L0 470L73 384Z" fill="#67131d" stroke="#67131d"></path><path d="M76 71L0 177L128 226Z" fill="#67131d" stroke="#67131d"></path><path d="M160 0L82 0L76 71Z" fill="#67131d" stroke="#67131d"></path><path d="M76 71L0 65L0 177Z" fill="#a41124" stroke="#a41124"></path><path d="M0 0L0 65L76 71Z" fill="#a41124" stroke="#a41124"></path><path d="M0 470L0 600L99 600Z" fill="#951223" stroke="#951223"></path><path d="M82 0L0 0L76 71Z" fill="#59131b" stroke="#59131b"></path></g></svg>