<svg id="visual" viewBox="0 0 900 600" width="900" height="600" xmlns="http://www.w3.org/2000/svg" xmlns:xlink="http://www.w3.org/1999/xlink" version="1.1"><path d="M0 109L13.7 106C27.3 103 54.7 97 82 87C109.3 77 136.7 63 163.8 58C191 53 218 57 245.2 68C272.3 79 299.7 97 327 106C354.3 115 381.7 115 409 110C436.3 105 463.7 95 491 87C518.3 79 545.7 73 573 70C600.3 67 627.7 67 654.8 70C682 73 709 79 736.2 83C763.3 87 790.7 89 818 90C845.3 91 872.7 91 886.3 91L900 91L900 0L886.3 0C872.7 0 845.3 0 818 0C790.7 0 763.3 0 736.2 0C709 0 682 0 654.8 0C627.7 0 600.3 0 573 0C545.7 0 518.3 0 491 0C463.7 0 436.3 0 409 0C381.7 0 354.3 0 327 0C299.7 0 272.3 0 245.2 0C218 0 191 0 163.8 0C136.7 0 109.3 0 82 0C54.7 0 27.3 0 13.7 0L0 0Z" fill="#e30e24"></path><path d="M0 193L13.7 194C27.3 195 54.7 197 82 199C109.3 201 136.7 203 163.8 213C191 223 218 241 245.2 264C272.3 287 299.7 315 327 308C354.3 301 381.7 259 409 261C436.3 263 463.7 309 491 304C518.3 299 545.7 243 573 237C600.3 231 627.7 275 654.8 282C682 289 709 259 736.2 253C763.3 247 790.7 265 818 272C845.3 279 872.7 275 886.3 273L900 271L900 89L886.3 89C872.7 89 845.3 89 818 88C790.7 87 763.3 85 736.2 81C709 77 682 71 654.8 68C627.7 65 600.3 65 573 68C545.7 71 518.3 77 491 85C463.7 93 436.3 103 409 108C381.7 113 354.3 113 327 104C299.7 95 272.3 77 245.2 66C218 55 191 51 163.8 56C136.7 61 109.3 75 82 85C54.7 95 27.3 101 13.7 104L0 107Z" fill="#bc0f25"></path><path d="M0 331L13.7 335C27.3 339 54.7 347 82 351C109.3 355 136.7 355 163.8 364C191 373 218 391 245.2 399C272.3 407 299.7 405 327 391C354.3 377 381.7 351 409 354C436.3 357 463.7 389 491 389C518.3 389 545.7 357 573 349C600.3 341 627.7 357 654.8 353C682 349 709 325 736.2 333C763.3 341 790.7 381 818 400C845.3 419 872.7 417 886.3 416L900 415L900 269L886.3 271C872.7 273 845.3 277 818 270C790.7 263 763.3 245 736.2 251C709 257 682 287 654.8 280C627.7 273 600.3 229 573 235C545.7 241 518.3 297 491 302C463.7 307 436.3 261 409 259C381.7 257 354.3 299 327 306C299.7 313 272.3 285 245.2 262C218 239 191 221 163.8 211C136.7 201 109.3 199 82 197C54.7 195 27.3 193 13.7 192L0 191Z" fill="#951223"></path><path d="M0 517L13.7 524C27.3 531 54.7 545 82 551C109.3 557 136.7 555 163.8 551C191 547 218 541 245.2 539C272.3 537 299.7 539 327 533C354.3 527 381.7 513 409 509C436.3 505 463.7 511 491 518C518.3 525 545.7 533 573 530C600.3 527 627.7 513 654.8 513C682 513 709 527 736.2 531C763.3 535 790.7 529 818 531C845.3 533 872.7 543 886.3 548L900 553L900 413L886.3 414C872.7 415 845.3 417 818 398C790.7 379 763.3 339 736.2 331C709 323 682 347 654.8 351C627.7 355 600.3 339 573 347C545.7 355 518.3 387 491 387C463.7 387 436.3 355 409 352C381.7 349 354.3 375 327 389C299.7 403 272.3 405 245.2 397C218 389 191 371 163.8 362C136.7 353 109.3 353 82 349C54.7 345 27.3 337 13.7 333L0 329Z" fill="#6f131e"></path><path d="M0 601L13.7 601C27.3 601 54.7 601 82 601C109.3 601 136.7 601 163.8 601C191 601 218 601 245.2 601C272.3 601 299.7 601 327 601C354.3 601 381.7 601 409 601C436.3 601 463.7 601 491 601C518.3 601 545.7 601 573 601C600.3 601 627.7 601 654.8 601C682 601 709 601 736.2 601C763.3 601 790.7 601 818 601C845.3 601 872.7 601 886.3 601L900 601L900 551L886.3 546C872.7 541 845.3 531 818 529C790.7 527 763.3 533 736.2 529C709 525 682 511 654.8 511C627.7 511 600.3 525 573 528C545.7 531 518.3 523 491 516C463.7 509 436.3 503 409 507C381.7 511 354.3 525 327 531C299.7 537 272.3 535 245.2 537C218 539 191 545 163.8 549C136.7 553 109.3 555 82 549C54.7 543 27.3 529 13.7 522L0 515Z" fill="#4a1218"></path></svg>