<svg id="visual" viewBox="0 0 675 900" width="675" height="900" xmlns="http://www.w3.org/2000/svg" xmlns:xlink="http://www.w3.org/1999/xlink" version="1.1"><path d="M0 82L10.2 77.5C20.3 73 40.7 64 61.2 61C81.7 58 102.3 61 122.8 62.5C143.3 64 163.7 64 184 61C204.3 58 224.7 52 245.2 55C265.7 58 286.3 70 306.8 71.5C327.3 73 347.7 64 368.2 59.5C388.7 55 409.3 55 429.8 55C450.3 55 470.7 55 491 65.5C511.3 76 531.7 97 552.2 103C572.7 109 593.3 100 613.8 101.5C634.3 103 654.7 115 664.8 121L675 127L675 0L664.8 0C654.7 0 634.3 0 613.8 0C593.3 0 572.7 0 552.2 0C531.7 0 511.3 0 491 0C470.7 0 450.3 0 429.8 0C409.3 0 388.7 0 368.2 0C347.7 0 327.3 0 306.8 0C286.3 0 265.7 0 245.2 0C224.7 0 204.3 0 184 0C163.7 0 143.3 0 122.8 0C102.3 0 81.7 0 61.2 0C40.7 0 20.3 0 10.2 0L0 0Z" fill="#e30e24"></path><path d="M0 181L10.2 172C20.3 163 40.7 145 61.2 146.5C81.7 148 102.3 169 122.8 178C143.3 187 163.7 184 184 175C204.3 166 224.7 151 245.2 152.5C265.7 154 286.3 172 306.8 184C327.3 196 347.7 202 368.2 211C388.7 220 409.3 232 429.8 215.5C450.3 199 470.7 154 491 143.5C511.3 133 531.7 157 552.2 179.5C572.7 202 593.3 223 613.8 227.5C634.3 232 654.7 220 664.8 214L675 208L675 125L664.8 119C654.7 113 634.3 101 613.8 99.5C593.3 98 572.7 107 552.2 101C531.7 95 511.3 74 491 63.5C470.7 53 450.3 53 429.8 53C409.3 53 388.7 53 368.2 57.5C347.7 62 327.3 71 306.8 69.5C286.3 68 265.7 56 245.2 53C224.7 50 204.3 56 184 59C163.7 62 143.3 62 122.8 60.5C102.3 59 81.7 56 61.2 59C40.7 62 20.3 71 10.2 75.5L0 80Z" fill="#c40f25"></path><path d="M0 424L10.2 422.5C20.3 421 40.7 418 61.2 430C81.7 442 102.3 469 122.8 463C143.3 457 163.7 418 184 412C204.3 406 224.7 433 245.2 428.5C265.7 424 286.3 388 306.8 385C327.3 382 347.7 412 368.2 439C388.7 466 409.3 490 429.8 458.5C450.3 427 470.7 340 491 328C511.3 316 531.7 379 552.2 398.5C572.7 418 593.3 394 613.8 418C634.3 442 654.7 514 664.8 550L675 586L675 206L664.8 212C654.7 218 634.3 230 613.8 225.5C593.3 221 572.7 200 552.2 177.5C531.7 155 511.3 131 491 141.5C470.7 152 450.3 197 429.8 213.5C409.3 230 388.7 218 368.2 209C347.7 200 327.3 194 306.8 182C286.3 170 265.7 152 245.2 150.5C224.7 149 204.3 164 184 173C163.7 182 143.3 185 122.8 176C102.3 167 81.7 146 61.2 144.5C40.7 143 20.3 161 10.2 170L0 179Z" fill="#a41124"></path><path d="M0 505L10.2 514C20.3 523 40.7 541 61.2 562C81.7 583 102.3 607 122.8 598C143.3 589 163.7 547 184 536.5C204.3 526 224.7 547 245.2 541C265.7 535 286.3 502 306.8 490C327.3 478 347.7 487 368.2 503.5C388.7 520 409.3 544 429.8 523C450.3 502 470.7 436 491 431.5C511.3 427 531.7 484 552.2 503.5C572.7 523 593.3 505 613.8 523C634.3 541 654.7 595 664.8 622L675 649L675 584L664.8 548C654.7 512 634.3 440 613.8 416C593.3 392 572.7 416 552.2 396.5C531.7 377 511.3 314 491 326C470.7 338 450.3 425 429.8 456.5C409.3 488 388.7 464 368.2 437C347.7 410 327.3 380 306.8 383C286.3 386 265.7 422 245.2 426.5C224.7 431 204.3 404 184 410C163.7 416 143.3 455 122.8 461C102.3 467 81.7 440 61.2 428C40.7 416 20.3 419 10.2 420.5L0 422Z" fill="#861321"></path><path d="M0 703L10.2 706C20.3 709 40.7 715 61.2 728.5C81.7 742 102.3 763 122.8 740.5C143.3 718 163.7 652 184 655C204.3 658 224.7 730 245.2 727C265.7 724 286.3 646 306.8 610C327.3 574 347.7 580 368.2 599.5C388.7 619 409.3 652 429.8 647.5C450.3 643 470.7 601 491 595C511.3 589 531.7 619 552.2 626.5C572.7 634 593.3 619 613.8 638.5C634.3 658 654.7 712 664.8 739L675 766L675 647L664.8 620C654.7 593 634.3 539 613.8 521C593.3 503 572.7 521 552.2 501.5C531.7 482 511.3 425 491 429.5C470.7 434 450.3 500 429.8 521C409.3 542 388.7 518 368.2 501.5C347.7 485 327.3 476 306.8 488C286.3 500 265.7 533 245.2 539C224.7 545 204.3 524 184 534.5C163.7 545 143.3 587 122.8 596C102.3 605 81.7 581 61.2 560C40.7 539 20.3 521 10.2 512L0 503Z" fill="#67131d"></path><path d="M0 901L10.2 901C20.3 901 40.7 901 61.2 901C81.7 901 102.3 901 122.8 901C143.3 901 163.7 901 184 901C204.3 901 224.7 901 245.2 901C265.7 901 286.3 901 306.8 901C327.3 901 347.7 901 368.2 901C388.7 901 409.3 901 429.8 901C450.3 901 470.7 901 491 901C511.3 901 531.7 901 552.2 901C572.7 901 593.3 901 613.8 901C634.3 901 654.7 901 664.8 901L675 901L675 764L664.8 737C654.7 710 634.3 656 613.8 636.5C593.3 617 572.7 632 552.2 624.5C531.7 617 511.3 587 491 593C470.7 599 450.3 641 429.8 645.5C409.3 650 388.7 617 368.2 597.5C347.7 578 327.3 572 306.8 608C286.3 644 265.7 722 245.2 725C224.7 728 204.3 656 184 653C163.7 650 143.3 716 122.8 738.5C102.3 761 81.7 740 61.2 726.5C40.7 713 20.3 707 10.2 704L0 701Z" fill="#4a1218"></path></svg>