<svg id="visual" viewBox="0 0 675 900" width="675" height="900" xmlns="http://www.w3.org/2000/svg" xmlns:xlink="http://www.w3.org/1999/xlink" version="1.1"><path d="M0 280L10.2 256C20.3 232 40.7 184 61.2 157C81.7 130 102.3 124 122.8 146.5C143.3 169 163.7 220 184 227.5C204.3 235 224.7 199 245.2 211C265.7 223 286.3 283 306.8 307C327.3 331 347.7 319 368.2 284.5C388.7 250 409.3 193 429.8 194.5C450.3 196 470.7 256 491 296.5C511.3 337 531.7 358 552.2 353.5C572.7 349 593.3 319 613.8 323.5C634.3 328 654.7 367 664.8 386.5L675 406L675 0L664.8 0C654.7 0 634.3 0 613.8 0C593.3 0 572.7 0 552.2 0C531.7 0 511.3 0 491 0C470.7 0 450.3 0 429.8 0C409.3 0 388.7 0 368.2 0C347.7 0 327.3 0 306.8 0C286.3 0 265.7 0 245.2 0C224.7 0 204.3 0 184 0C163.7 0 143.3 0 122.8 0C102.3 0 81.7 0 61.2 0C40.7 0 20.3 0 10.2 0L0 0Z" fill="#e30e24"></path><path d="M0 415L10.2 392.5C20.3 370 40.7 325 61.2 301C81.7 277 102.3 274 122.8 287.5C143.3 301 163.7 331 184 337C204.3 343 224.7 325 245.2 331C265.7 337 286.3 367 306.8 389.5C327.3 412 347.7 427 368.2 409C388.7 391 409.3 340 429.8 329.5C450.3 319 470.7 349 491 385C511.3 421 531.7 463 552.2 475C572.7 487 593.3 469 613.8 463C634.3 457 654.7 463 664.8 466L675 469L675 404L664.8 384.5C654.7 365 634.3 326 613.8 321.5C593.3 317 572.7 347 552.2 351.5C531.7 356 511.3 335 491 294.5C470.7 254 450.3 194 429.8 192.5C409.3 191 388.7 248 368.2 282.5C347.7 317 327.3 329 306.8 305C286.3 281 265.7 221 245.2 209C224.7 197 204.3 233 184 225.5C163.7 218 143.3 167 122.8 144.5C102.3 122 81.7 128 61.2 155C40.7 182 20.3 230 10.2 254L0 278Z" fill="#c40f25"></path><path d="M0 532L10.2 524.5C20.3 517 40.7 502 61.2 476.5C81.7 451 102.3 415 122.8 413.5C143.3 412 163.7 445 184 449.5C204.3 454 224.7 430 245.2 451C265.7 472 286.3 538 306.8 562C327.3 586 347.7 568 368.2 535C388.7 502 409.3 454 429.8 440.5C450.3 427 470.7 448 491 487C511.3 526 531.7 583 552.2 601C572.7 619 593.3 598 613.8 587.5C634.3 577 654.7 577 664.8 577L675 577L675 467L664.8 464C654.7 461 634.3 455 613.8 461C593.3 467 572.7 485 552.2 473C531.7 461 511.3 419 491 383C470.7 347 450.3 317 429.8 327.5C409.3 338 388.7 389 368.2 407C347.7 425 327.3 410 306.8 387.5C286.3 365 265.7 335 245.2 329C224.7 323 204.3 341 184 335C163.7 329 143.3 299 122.8 285.5C102.3 272 81.7 275 61.2 299C40.7 323 20.3 368 10.2 390.5L0 413Z" fill="#a41124"></path><path d="M0 640L10.2 629.5C20.3 619 40.7 598 61.2 574C81.7 550 102.3 523 122.8 517C143.3 511 163.7 526 184 521.5C204.3 517 224.7 493 245.2 518.5C265.7 544 286.3 619 306.8 649C327.3 679 347.7 664 368.2 632.5C388.7 601 409.3 553 429.8 541C450.3 529 470.7 553 491 589C511.3 625 531.7 673 552.2 691C572.7 709 593.3 697 613.8 689.5C634.3 682 654.7 679 664.8 677.5L675 676L675 575L664.8 575C654.7 575 634.3 575 613.8 585.5C593.3 596 572.7 617 552.2 599C531.7 581 511.3 524 491 485C470.7 446 450.3 425 429.8 438.5C409.3 452 388.7 500 368.2 533C347.7 566 327.3 584 306.8 560C286.3 536 265.7 470 245.2 449C224.7 428 204.3 452 184 447.5C163.7 443 143.3 410 122.8 411.5C102.3 413 81.7 449 61.2 474.5C40.7 500 20.3 515 10.2 522.5L0 530Z" fill="#861321"></path><path d="M0 820L10.2 826C20.3 832 40.7 844 61.2 838C81.7 832 102.3 808 122.8 806.5C143.3 805 163.7 826 184 826C204.3 826 224.7 805 245.2 797.5C265.7 790 286.3 796 306.8 808C327.3 820 347.7 838 368.2 833.5C388.7 829 409.3 802 429.8 796C450.3 790 470.7 805 491 818.5C511.3 832 531.7 844 552.2 841C572.7 838 593.3 820 613.8 814C634.3 808 654.7 814 664.8 817L675 820L675 674L664.8 675.5C654.7 677 634.3 680 613.8 687.5C593.3 695 572.7 707 552.2 689C531.7 671 511.3 623 491 587C470.7 551 450.3 527 429.8 539C409.3 551 388.7 599 368.2 630.5C347.7 662 327.3 677 306.8 647C286.3 617 265.7 542 245.2 516.5C224.7 491 204.3 515 184 519.5C163.7 524 143.3 509 122.8 515C102.3 521 81.7 548 61.2 572C40.7 596 20.3 617 10.2 627.5L0 638Z" fill="#67131d"></path><path d="M0 901L10.2 901C20.3 901 40.7 901 61.2 901C81.7 901 102.3 901 122.8 901C143.3 901 163.7 901 184 901C204.3 901 224.7 901 245.2 901C265.7 901 286.3 901 306.8 901C327.3 901 347.7 901 368.2 901C388.7 901 409.3 901 429.8 901C450.3 901 470.7 901 491 901C511.3 901 531.7 901 552.2 901C572.7 901 593.3 901 613.8 901C634.3 901 654.7 901 664.8 901L675 901L675 818L664.8 815C654.7 812 634.3 806 613.8 812C593.3 818 572.7 836 552.2 839C531.7 842 511.3 830 491 816.5C470.7 803 450.3 788 429.8 794C409.3 800 388.7 827 368.2 831.5C347.7 836 327.3 818 306.8 806C286.3 794 265.7 788 245.2 795.5C224.7 803 204.3 824 184 824C163.7 824 143.3 803 122.8 804.5C102.3 806 81.7 830 61.2 836C40.7 842 20.3 830 10.2 824L0 818Z" fill="#4a1218"></path></svg>