<svg id="visual" viewBox="0 0 675 900" width="675" height="900" xmlns="http://www.w3.org/2000/svg" xmlns:xlink="http://www.w3.org/1999/xlink" version="1.1"><path d="M0 100L10.2 101.5C20.3 103 40.7 106 61.2 106C81.7 106 102.3 103 122.8 101.5C143.3 100 163.7 100 184 92.5C204.3 85 224.7 70 245.2 74.5C265.7 79 286.3 103 306.8 104.5C327.3 106 347.7 85 368.2 71.5C388.7 58 409.3 52 429.8 58C450.3 64 470.7 82 491 86.5C511.3 91 531.7 82 552.2 85C572.7 88 593.3 103 613.8 101.5C634.3 100 654.7 82 664.8 73L675 64L675 0L664.8 0C654.7 0 634.3 0 613.8 0C593.3 0 572.7 0 552.2 0C531.7 0 511.3 0 491 0C470.7 0 450.3 0 429.8 0C409.3 0 388.7 0 368.2 0C347.7 0 327.3 0 306.8 0C286.3 0 265.7 0 245.2 0C224.7 0 204.3 0 184 0C163.7 0 143.3 0 122.8 0C102.3 0 81.7 0 61.2 0C40.7 0 20.3 0 10.2 0L0 0Z" fill="#e30e24"></path><path d="M0 226L10.2 232C20.3 238 40.7 250 61.2 239.5C81.7 229 102.3 196 122.8 179.5C143.3 163 163.7 163 184 167.5C204.3 172 224.7 181 245.2 190C265.7 199 286.3 208 306.8 206.5C327.3 205 347.7 193 368.2 175C388.7 157 409.3 133 429.8 136C450.3 139 470.7 169 491 175C511.3 181 531.7 163 552.2 163C572.7 163 593.3 181 613.8 182.5C634.3 184 654.7 169 664.8 161.5L675 154L675 62L664.8 71C654.7 80 634.3 98 613.8 99.5C593.3 101 572.7 86 552.2 83C531.7 80 511.3 89 491 84.5C470.7 80 450.3 62 429.8 56C409.3 50 388.7 56 368.2 69.5C347.7 83 327.3 104 306.8 102.5C286.3 101 265.7 77 245.2 72.5C224.7 68 204.3 83 184 90.5C163.7 98 143.3 98 122.8 99.5C102.3 101 81.7 104 61.2 104C40.7 104 20.3 101 10.2 99.5L0 98Z" fill="#c40f25"></path><path d="M0 406L10.2 427C20.3 448 40.7 490 61.2 484C81.7 478 102.3 424 122.8 421C143.3 418 163.7 466 184 490C204.3 514 224.7 514 245.2 514C265.7 514 286.3 514 306.8 505C327.3 496 347.7 478 368.2 449.5C388.7 421 409.3 382 429.8 383.5C450.3 385 470.7 427 491 433C511.3 439 531.7 409 552.2 425.5C572.7 442 593.3 505 613.8 502C634.3 499 654.7 430 664.8 395.5L675 361L675 152L664.8 159.5C654.7 167 634.3 182 613.8 180.5C593.3 179 572.7 161 552.2 161C531.7 161 511.3 179 491 173C470.7 167 450.3 137 429.8 134C409.3 131 388.7 155 368.2 173C347.7 191 327.3 203 306.8 204.5C286.3 206 265.7 197 245.2 188C224.7 179 204.3 170 184 165.5C163.7 161 143.3 161 122.8 177.5C102.3 194 81.7 227 61.2 237.5C40.7 248 20.3 236 10.2 230L0 224Z" fill="#a41124"></path><path d="M0 532L10.2 548.5C20.3 565 40.7 598 61.2 587.5C81.7 577 102.3 523 122.8 517C143.3 511 163.7 553 184 584.5C204.3 616 224.7 637 245.2 644.5C265.7 652 286.3 646 306.8 634C327.3 622 347.7 604 368.2 577C388.7 550 409.3 514 429.8 517C450.3 520 470.7 562 491 560.5C511.3 559 531.7 514 552.2 523C572.7 532 593.3 595 613.8 599.5C634.3 604 654.7 550 664.8 523L675 496L675 359L664.8 393.5C654.7 428 634.3 497 613.8 500C593.3 503 572.7 440 552.2 423.5C531.7 407 511.3 437 491 431C470.7 425 450.3 383 429.8 381.5C409.3 380 388.7 419 368.2 447.5C347.7 476 327.3 494 306.8 503C286.3 512 265.7 512 245.2 512C224.7 512 204.3 512 184 488C163.7 464 143.3 416 122.8 419C102.3 422 81.7 476 61.2 482C40.7 488 20.3 446 10.2 425L0 404Z" fill="#861321"></path><path d="M0 694L10.2 709C20.3 724 40.7 754 61.2 731.5C81.7 709 102.3 634 122.8 617.5C143.3 601 163.7 643 184 682C204.3 721 224.7 757 245.2 761.5C265.7 766 286.3 739 306.8 739C327.3 739 347.7 766 368.2 749.5C388.7 733 409.3 673 429.8 674.5C450.3 676 470.7 739 491 733C511.3 727 531.7 652 552.2 649C572.7 646 593.3 715 613.8 728.5C634.3 742 654.7 700 664.8 679L675 658L675 494L664.8 521C654.7 548 634.3 602 613.8 597.5C593.3 593 572.7 530 552.2 521C531.7 512 511.3 557 491 558.5C470.7 560 450.3 518 429.8 515C409.3 512 388.7 548 368.2 575C347.7 602 327.3 620 306.8 632C286.3 644 265.7 650 245.2 642.5C224.7 635 204.3 614 184 582.5C163.7 551 143.3 509 122.8 515C102.3 521 81.7 575 61.2 585.5C40.7 596 20.3 563 10.2 546.5L0 530Z" fill="#67131d"></path><path d="M0 901L10.2 901C20.3 901 40.7 901 61.2 901C81.7 901 102.3 901 122.8 901C143.3 901 163.7 901 184 901C204.3 901 224.7 901 245.2 901C265.7 901 286.3 901 306.8 901C327.3 901 347.7 901 368.2 901C388.7 901 409.3 901 429.8 901C450.3 901 470.7 901 491 901C511.3 901 531.7 901 552.2 901C572.7 901 593.3 901 613.8 901C634.3 901 654.7 901 664.8 901L675 901L675 656L664.8 677C654.7 698 634.3 740 613.8 726.5C593.3 713 572.7 644 552.2 647C531.7 650 511.3 725 491 731C470.7 737 450.3 674 429.8 672.5C409.3 671 388.7 731 368.2 747.5C347.7 764 327.3 737 306.8 737C286.3 737 265.7 764 245.2 759.5C224.7 755 204.3 719 184 680C163.7 641 143.3 599 122.8 615.5C102.3 632 81.7 707 61.2 729.5C40.7 752 20.3 722 10.2 707L0 692Z" fill="#4a1218"></path></svg>