<svg id="visual" viewBox="0 0 675 900" width="675" height="900" xmlns="http://www.w3.org/2000/svg" xmlns:xlink="http://www.w3.org/1999/xlink" version="1.1"><rect x="0" y="0" width="675" height="900" fill="#180608"></rect><defs><linearGradient id="grad1_0" x1="0%" y1="0%" x2="100%" y2="100%"><stop offset="30%" stop-color="#e30e24" stop-opacity="1"></stop><stop offset="70%" stop-color="#e30e24" stop-opacity="1"></stop></linearGradient></defs><defs><linearGradient id="grad1_1" x1="0%" y1="0%" x2="100%" y2="100%"><stop offset="30%" stop-color="#e30e24" stop-opacity="1"></stop><stop offset="70%" stop-color="#180608" stop-opacity="1"></stop></linearGradient></defs><defs><linearGradient id="grad2_0" x1="0%" y1="0%" x2="100%" y2="100%"><stop offset="30%" stop-color="#e30e24" stop-opacity="1"></stop><stop offset="70%" stop-color="#e30e24" stop-opacity="1"></stop></linearGradient></defs><defs><linearGradient id="grad2_1" x1="0%" y1="0%" x2="100%" y2="100%"><stop offset="30%" stop-color="#180608" stop-opacity="1"></stop><stop offset="70%" stop-color="#e30e24" stop-opacity="1"></stop></linearGradient></defs><g transform="translate(675, 0)"><path d="M0 506.3C-71.7 504.1 -143.4 502 -193.7 467.7C-244.1 433.4 -273.2 367 -318.9 318.9C-364.6 270.8 -427 241.1 -461 191C-495 140.9 -500.6 70.4 -506.2 0L0 0Z" fill="#791223"></path><path d="M0 253.1C-35.8 252.1 -71.7 251 -96.9 233.9C-122.1 216.7 -136.6 183.5 -159.5 159.5C-182.3 135.4 -213.5 120.5 -230.5 95.5C-247.5 70.4 -250.3 35.2 -253.1 0L0 0Z" fill="#e30e24"></path></g><g transform="translate(0, 900)"><path d="M0 -506.2C70.7 -503.6 141.4 -500.9 193.7 -467.7C246.1 -434.5 280.1 -370.7 320.3 -320.3C360.5 -269.9 406.8 -232.9 438.8 -181.8C470.9 -130.6 488.6 -65.3 506.3 0L0 0Z" fill="#791223"></path><path d="M0 -253.1C35.3 -251.8 70.7 -250.5 96.9 -233.9C123 -217.2 140.1 -185.4 160.2 -160.2C180.3 -135 203.4 -116.5 219.4 -90.9C235.4 -65.3 244.3 -32.7 253.1 0L0 0Z" fill="#e30e24"></path></g></svg>