<svg id="visual" viewBox="0 0 675 900" width="675" height="900" xmlns="http://www.w3.org/2000/svg" xmlns:xlink="http://www.w3.org/1999/xlink" version="1.1"><rect x="0" y="0" width="675" height="900" fill="#180608"></rect><defs><linearGradient id="grad1_0" x1="0%" y1="0%" x2="100%" y2="100%"><stop offset="30%" stop-color="#e30e24" stop-opacity="1"></stop><stop offset="70%" stop-color="#e30e24" stop-opacity="1"></stop></linearGradient></defs><defs><linearGradient id="grad1_1" x1="0%" y1="0%" x2="100%" y2="100%"><stop offset="30%" stop-color="#e30e24" stop-opacity="1"></stop><stop offset="70%" stop-color="#180608" stop-opacity="1"></stop></linearGradient></defs><defs><linearGradient id="grad2_0" x1="0%" y1="0%" x2="100%" y2="100%"><stop offset="30%" stop-color="#e30e24" stop-opacity="1"></stop><stop offset="70%" stop-color="#e30e24" stop-opacity="1"></stop></linearGradient></defs><defs><linearGradient id="grad2_1" x1="0%" y1="0%" x2="100%" y2="100%"><stop offset="30%" stop-color="#180608" stop-opacity="1"></stop><stop offset="70%" stop-color="#e30e24" stop-opacity="1"></stop></linearGradient></defs><g transform="translate(675, 0)"><path d="M0 506.3C-74.2 506.7 -148.4 507.2 -193.7 467.7C-239.1 428.3 -255.5 348.9 -300.5 300.5C-345.6 252.1 -419.2 234.7 -458.2 189.8C-497.3 144.9 -501.8 72.4 -506.2 0L0 0Z" fill="#791223"></path><path d="M0 253.1C-37.1 253.4 -74.2 253.6 -96.9 233.9C-119.5 214.1 -127.7 174.5 -150.3 150.3C-172.8 126.1 -209.6 117.4 -229.1 94.9C-248.6 72.4 -250.9 36.2 -253.1 0L0 0Z" fill="#e30e24"></path></g><g transform="translate(0, 900)"><path d="M0 -506.2C64 -480 128 -453.8 172.2 -415.7C216.4 -377.7 240.7 -327.9 293.4 -293.4C346.2 -259 427.5 -240.1 467.7 -193.7C507.9 -147.4 507.1 -73.7 506.3 0L0 0Z" fill="#791223"></path><path d="M0 -253.1C32 -240 64 -226.9 86.1 -207.9C108.2 -188.9 120.3 -163.9 146.7 -146.7C173.1 -129.5 213.7 -120 233.9 -96.9C254 -73.7 253.5 -36.8 253.1 0L0 0Z" fill="#e30e24"></path></g></svg>