<svg id="visual" viewBox="0 0 675 900" width="675" height="900" xmlns="http://www.w3.org/2000/svg" xmlns:xlink="http://www.w3.org/1999/xlink" version="1.1"><rect x="0" y="0" width="675" height="900" fill="#180608"></rect><defs><linearGradient id="grad1_0" x1="0%" y1="0%" x2="100%" y2="100%"><stop offset="30%" stop-color="#e30e24" stop-opacity="1"></stop><stop offset="70%" stop-color="#e30e24" stop-opacity="1"></stop></linearGradient></defs><defs><linearGradient id="grad1_1" x1="0%" y1="0%" x2="100%" y2="100%"><stop offset="30%" stop-color="#e30e24" stop-opacity="1"></stop><stop offset="70%" stop-color="#180608" stop-opacity="1"></stop></linearGradient></defs><defs><linearGradient id="grad2_0" x1="0%" y1="0%" x2="100%" y2="100%"><stop offset="30%" stop-color="#e30e24" stop-opacity="1"></stop><stop offset="70%" stop-color="#e30e24" stop-opacity="1"></stop></linearGradient></defs><defs><linearGradient id="grad2_1" x1="0%" y1="0%" x2="100%" y2="100%"><stop offset="30%" stop-color="#180608" stop-opacity="1"></stop><stop offset="70%" stop-color="#e30e24" stop-opacity="1"></stop></linearGradient></defs><g transform="translate(675, 0)"><path d="M0 506.3C-59.5 481.3 -119.1 456.4 -179.9 434.2C-240.6 412 -302.7 392.6 -353.6 353.6C-404.4 314.5 -444.1 255.9 -467.7 193.7C-491.3 131.5 -498.8 65.8 -506.2 0L0 0Z" fill="#791223"></path><path d="M0 253.1C-29.8 240.7 -59.5 228.2 -89.9 217.1C-120.3 206 -151.3 196.3 -176.8 176.8C-202.2 157.3 -222.1 128 -233.9 96.9C-245.7 65.8 -249.4 32.9 -253.1 0L0 0Z" fill="#e30e24"></path></g><g transform="translate(0, 900)"><path d="M0 -506.2C62.9 -492.6 125.8 -479 189.4 -457.3C253.1 -435.7 317.4 -406.1 358 -358C398.5 -309.9 415.3 -243.4 436.1 -180.6C456.8 -117.9 481.5 -58.9 506.3 0L0 0Z" fill="#791223"></path><path d="M0 -253.1C31.5 -246.3 62.9 -239.5 94.7 -228.7C126.5 -217.8 158.7 -203 179 -179C199.3 -154.9 207.7 -121.7 218 -90.3C228.4 -58.9 240.8 -29.5 253.1 0L0 0Z" fill="#e30e24"></path></g></svg>