<svg id="visual" viewBox="0 0 900 600" width="900" height="600" xmlns="http://www.w3.org/2000/svg" xmlns:xlink="http://www.w3.org/1999/xlink" version="1.1"><g stroke-width="1" stroke-linejoin="bevel"><path d="M432 304L498 270L366 198Z" fill="#a41124" stroke="#a41124"></path><path d="M498 270L460 94L366 198Z" fill="#d30e25" stroke="#d30e25"></path><path d="M460 94L366 122L366 198Z" fill="#951223" stroke="#951223"></path><path d="M277 211L320 296L366 198Z" fill="#67131d" stroke="#67131d"></path><path d="M366 198L320 296L432 304Z" fill="#951223" stroke="#951223"></path><path d="M538 239L460 94L498 270Z" fill="#c40f25" stroke="#c40f25"></path><path d="M481 435L565 298L498 270Z" fill="#c40f25" stroke="#c40f25"></path><path d="M498 270L565 298L538 239Z" fill="#67131d" stroke="#67131d"></path><path d="M320 296L412 379L432 304Z" fill="#e30e24" stroke="#e30e24"></path><path d="M432 304L481 435L498 270Z" fill="#59131b" stroke="#59131b"></path><path d="M366 122L277 211L366 198Z" fill="#861321" stroke="#861321"></path><path d="M565 298L594 163L538 239Z" fill="#e30e24" stroke="#e30e24"></path><path d="M538 239L594 163L460 94Z" fill="#4a1218" stroke="#4a1218"></path><path d="M426 0L324 87L366 122Z" fill="#d30e25" stroke="#d30e25"></path><path d="M366 122L324 87L277 211Z" fill="#861321" stroke="#861321"></path><path d="M320 296L334 393L412 379Z" fill="#861321" stroke="#861321"></path><path d="M199 399L334 393L320 296Z" fill="#67131d" stroke="#67131d"></path><path d="M372 479L481 435L412 379Z" fill="#b41025" stroke="#b41025"></path><path d="M412 379L481 435L432 304Z" fill="#761320" stroke="#761320"></path><path d="M665 106L626 121L693 162Z" fill="#a41124" stroke="#a41124"></path><path d="M594 163L626 121L460 94Z" fill="#e30e24" stroke="#e30e24"></path><path d="M324 87L215 192L277 211Z" fill="#951223" stroke="#951223"></path><path d="M277 211L168 270L320 296Z" fill="#4a1218" stroke="#4a1218"></path><path d="M464 0L426 0L460 94Z" fill="#4a1218" stroke="#4a1218"></path><path d="M460 94L426 0L366 122Z" fill="#c40f25" stroke="#c40f25"></path><path d="M578 0L464 0L460 94Z" fill="#e30e24" stroke="#e30e24"></path><path d="M337 509L372 479L334 393Z" fill="#67131d" stroke="#67131d"></path><path d="M334 393L372 479L412 379Z" fill="#4a1218" stroke="#4a1218"></path><path d="M693 162L626 121L594 163Z" fill="#761320" stroke="#761320"></path><path d="M626 121L578 0L460 94Z" fill="#761320" stroke="#761320"></path><path d="M426 0L304 0L324 87Z" fill="#c40f25" stroke="#c40f25"></path><path d="M324 87L187 114L215 192Z" fill="#861321" stroke="#861321"></path><path d="M733 303L693 162L565 298Z" fill="#c40f25" stroke="#c40f25"></path><path d="M565 298L693 162L594 163Z" fill="#e30e24" stroke="#e30e24"></path><path d="M665 106L578 0L626 121Z" fill="#951223" stroke="#951223"></path><path d="M116 166L168 270L215 192Z" fill="#d30e25" stroke="#d30e25"></path><path d="M215 192L168 270L277 211Z" fill="#e30e24" stroke="#e30e24"></path><path d="M304 0L187 114L324 87Z" fill="#951223" stroke="#951223"></path><path d="M586 509L639 427L481 435Z" fill="#a41124" stroke="#a41124"></path><path d="M481 435L639 427L565 298Z" fill="#67131d" stroke="#67131d"></path><path d="M372 479L485 515L481 435Z" fill="#e30e24" stroke="#e30e24"></path><path d="M168 270L199 399L320 296Z" fill="#59131b" stroke="#59131b"></path><path d="M199 399L337 509L334 393Z" fill="#b41025" stroke="#b41025"></path><path d="M372 479L380 600L485 515Z" fill="#761320" stroke="#761320"></path><path d="M168 270L138 387L199 399Z" fill="#761320" stroke="#761320"></path><path d="M116 166L135 284L168 270Z" fill="#4a1218" stroke="#4a1218"></path><path d="M693 501L684 405L639 427Z" fill="#951223" stroke="#951223"></path><path d="M639 427L684 405L565 298Z" fill="#59131b" stroke="#59131b"></path><path d="M684 405L733 303L565 298Z" fill="#b41025" stroke="#b41025"></path><path d="M485 515L586 509L481 435Z" fill="#951223" stroke="#951223"></path><path d="M88 92L116 166L187 114Z" fill="#e30e24" stroke="#e30e24"></path><path d="M187 114L116 166L215 192Z" fill="#761320" stroke="#761320"></path><path d="M733 303L768 223L693 162Z" fill="#c40f25" stroke="#c40f25"></path><path d="M774 0L692 0L665 106Z" fill="#b41025" stroke="#b41025"></path><path d="M665 106L692 0L578 0Z" fill="#d30e25" stroke="#d30e25"></path><path d="M0 271L138 387L135 284Z" fill="#a41124" stroke="#a41124"></path><path d="M135 284L138 387L168 270Z" fill="#951223" stroke="#951223"></path><path d="M202 600L327 600L337 509Z" fill="#861321" stroke="#861321"></path><path d="M304 0L186 0L187 114Z" fill="#d30e25" stroke="#d30e25"></path><path d="M814 121L665 106L693 162Z" fill="#951223" stroke="#951223"></path><path d="M733 303L784 294L768 223Z" fill="#761320" stroke="#761320"></path><path d="M783 406L784 294L733 303Z" fill="#861321" stroke="#861321"></path><path d="M119 0L88 92L187 114Z" fill="#4a1218" stroke="#4a1218"></path><path d="M116 166L0 271L135 284Z" fill="#67131d" stroke="#67131d"></path><path d="M586 509L693 501L639 427Z" fill="#761320" stroke="#761320"></path><path d="M684 405L783 406L733 303Z" fill="#951223" stroke="#951223"></path><path d="M327 600L380 600L337 509Z" fill="#b41025" stroke="#b41025"></path><path d="M337 509L380 600L372 479Z" fill="#861321" stroke="#861321"></path><path d="M485 515L510 600L586 509Z" fill="#c40f25" stroke="#c40f25"></path><path d="M586 509L625 600L693 501Z" fill="#a41124" stroke="#a41124"></path><path d="M380 600L510 600L485 515Z" fill="#a41124" stroke="#a41124"></path><path d="M174 525L337 509L199 399Z" fill="#a41124" stroke="#a41124"></path><path d="M186 0L119 0L187 114Z" fill="#59131b" stroke="#59131b"></path><path d="M693 501L783 406L684 405Z" fill="#b41025" stroke="#b41025"></path><path d="M900 180L768 223L784 294Z" fill="#861321" stroke="#861321"></path><path d="M900 180L814 121L768 223Z" fill="#b41025" stroke="#b41025"></path><path d="M768 223L814 121L693 162Z" fill="#a41124" stroke="#a41124"></path><path d="M138 387L174 525L199 399Z" fill="#a41124" stroke="#a41124"></path><path d="M814 121L774 0L665 106Z" fill="#4a1218" stroke="#4a1218"></path><path d="M693 501L774 529L783 406Z" fill="#e30e24" stroke="#e30e24"></path><path d="M510 600L625 600L586 509Z" fill="#a41124" stroke="#a41124"></path><path d="M0 184L0 271L116 166Z" fill="#951223" stroke="#951223"></path><path d="M138 387L77 487L174 525Z" fill="#951223" stroke="#951223"></path><path d="M0 184L116 166L88 92Z" fill="#c40f25" stroke="#c40f25"></path><path d="M0 92L0 184L88 92Z" fill="#861321" stroke="#861321"></path><path d="M135 600L202 600L174 525Z" fill="#4a1218" stroke="#4a1218"></path><path d="M174 525L202 600L337 509Z" fill="#59131b" stroke="#59131b"></path><path d="M0 424L77 487L138 387Z" fill="#e30e24" stroke="#e30e24"></path><path d="M736 600L774 529L693 501Z" fill="#4a1218" stroke="#4a1218"></path><path d="M900 334L900 180L784 294Z" fill="#c40f25" stroke="#c40f25"></path><path d="M0 0L0 92L88 92Z" fill="#761320" stroke="#761320"></path><path d="M900 334L784 294L783 406Z" fill="#59131b" stroke="#59131b"></path><path d="M814 121L900 0L774 0Z" fill="#4a1218" stroke="#4a1218"></path><path d="M900 180L900 130L814 121Z" fill="#67131d" stroke="#67131d"></path><path d="M0 271L0 424L138 387Z" fill="#c40f25" stroke="#c40f25"></path><path d="M77 487L135 600L174 525Z" fill="#b41025" stroke="#b41025"></path><path d="M900 392L900 334L783 406Z" fill="#861321" stroke="#861321"></path><path d="M0 533L135 600L77 487Z" fill="#e30e24" stroke="#e30e24"></path><path d="M625 600L736 600L693 501Z" fill="#861321" stroke="#861321"></path><path d="M900 470L900 392L783 406Z" fill="#4a1218" stroke="#4a1218"></path><path d="M119 0L0 0L88 92Z" fill="#e30e24" stroke="#e30e24"></path><path d="M900 470L783 406L774 529Z" fill="#951223" stroke="#951223"></path><path d="M900 130L900 0L814 121Z" fill="#c40f25" stroke="#c40f25"></path><path d="M813 600L900 470L774 529Z" fill="#951223" stroke="#951223"></path><path d="M736 600L813 600L774 529Z" fill="#a41124" stroke="#a41124"></path><path d="M0 424L0 533L77 487Z" fill="#861321" stroke="#861321"></path><path d="M0 533L0 600L135 600Z" fill="#951223" stroke="#951223"></path><path d="M813 600L900 600L900 470Z" fill="#d30e25" stroke="#d30e25"></path></g></svg>