<svg id="visual" viewBox="0 0 900 600" width="900" height="600" xmlns="http://www.w3.org/2000/svg" xmlns:xlink="http://www.w3.org/1999/xlink" version="1.1"><rect x="0" y="0" width="900" height="600" fill="#180608"></rect><defs><linearGradient id="grad1_0" x1="33.3%" y1="0%" x2="100%" y2="100%"><stop offset="20%" stop-color="#e30e24" stop-opacity="1"></stop><stop offset="80%" stop-color="#e30e24" stop-opacity="1"></stop></linearGradient></defs><defs><linearGradient id="grad1_1" x1="33.3%" y1="0%" x2="100%" y2="100%"><stop offset="20%" stop-color="#e30e24" stop-opacity="1"></stop><stop offset="80%" stop-color="#180608" stop-opacity="1"></stop></linearGradient></defs><defs><linearGradient id="grad2_0" x1="0%" y1="0%" x2="66.7%" y2="100%"><stop offset="20%" stop-color="#e30e24" stop-opacity="1"></stop><stop offset="80%" stop-color="#e30e24" stop-opacity="1"></stop></linearGradient></defs><defs><linearGradient id="grad2_1" x1="0%" y1="0%" x2="66.7%" y2="100%"><stop offset="20%" stop-color="#180608" stop-opacity="1"></stop><stop offset="80%" stop-color="#e30e24" stop-opacity="1"></stop></linearGradient></defs><g transform="translate(900, 0)"><path d="M0 486.7C-61.7 471.4 -123.5 456 -178.3 430.5C-233.2 405.1 -281.2 369.6 -328.8 328.8C-376.4 288 -423.5 242 -449.7 186.3C-475.9 130.6 -481.3 65.3 -486.7 0L0 0Z" fill="#791223"></path><path d="M0 243.4C-30.9 235.7 -61.7 228 -89.2 215.3C-116.6 202.5 -140.6 184.8 -164.4 164.4C-188.2 144 -211.7 121 -224.8 93.1C-238 65.3 -240.7 32.6 -243.4 0L0 0Z" fill="#e30e24"></path></g><g transform="translate(0, 600)"><path d="M0 -486.7C49.4 -436.7 98.7 -386.6 148.9 -359.4C199 -332.2 249.8 -327.8 304.8 -304.8C359.7 -281.8 418.7 -240.2 449.7 -186.3C480.7 -132.4 483.7 -66.2 486.7 0L0 0Z" fill="#791223"></path><path d="M0 -243.4C24.7 -218.3 49.4 -193.3 74.4 -179.7C99.5 -166.1 124.9 -163.9 152.4 -152.4C179.8 -140.9 209.3 -120.1 224.8 -93.1C240.4 -66.2 241.9 -33.1 243.4 0L0 0Z" fill="#e30e24"></path></g></svg>