<svg id="visual" viewBox="0 0 900 600" width="900" height="600" xmlns="http://www.w3.org/2000/svg" xmlns:xlink="http://www.w3.org/1999/xlink" version="1.1"><rect x="0" y="0" width="900" height="600" fill="#180608"></rect><defs><linearGradient id="grad1_0" x1="33.3%" y1="0%" x2="100%" y2="100%"><stop offset="20%" stop-color="#e30e24" stop-opacity="1"></stop><stop offset="80%" stop-color="#e30e24" stop-opacity="1"></stop></linearGradient></defs><defs><linearGradient id="grad1_1" x1="33.3%" y1="0%" x2="100%" y2="100%"><stop offset="20%" stop-color="#e30e24" stop-opacity="1"></stop><stop offset="80%" stop-color="#180608" stop-opacity="1"></stop></linearGradient></defs><defs><linearGradient id="grad2_0" x1="0%" y1="0%" x2="66.7%" y2="100%"><stop offset="20%" stop-color="#e30e24" stop-opacity="1"></stop><stop offset="80%" stop-color="#e30e24" stop-opacity="1"></stop></linearGradient></defs><defs><linearGradient id="grad2_1" x1="0%" y1="0%" x2="66.7%" y2="100%"><stop offset="20%" stop-color="#180608" stop-opacity="1"></stop><stop offset="80%" stop-color="#e30e24" stop-opacity="1"></stop></linearGradient></defs><g transform="translate(900, 0)"><path d="M0 486.7C-63.2 479.9 -126.3 473 -186.3 449.7C-246.2 426.4 -302.9 386.7 -335.9 335.9C-368.8 285.1 -377.9 223.1 -399.1 165.3C-420.3 107.5 -453.5 53.7 -486.7 0L0 0Z" fill="#791223"></path><path d="M0 243.4C-31.6 239.9 -63.2 236.5 -93.1 224.8C-123.1 213.2 -151.5 193.3 -167.9 167.9C-184.4 142.5 -189 111.6 -199.6 82.7C-210.1 53.7 -226.8 26.9 -243.4 0L0 0Z" fill="#e30e24"></path></g><g transform="translate(0, 600)"><path d="M0 -486.7C43.2 -434.9 86.4 -383.1 152.7 -368.6C219 -354.2 308.4 -377 344.2 -344.2C380 -311.3 362.1 -222.8 376.9 -156.1C391.8 -89.5 439.3 -44.7 486.7 0L0 0Z" fill="#791223"></path><path d="M0 -243.4C21.6 -217.5 43.2 -191.6 76.3 -184.3C109.5 -177.1 154.2 -188.5 172.1 -172.1C190 -155.7 181.1 -111.4 188.5 -78.1C195.9 -44.7 219.6 -22.4 243.4 0L0 0Z" fill="#e30e24"></path></g></svg>