<svg id="visual" viewBox="0 0 900 600" width="900" height="600" xmlns="http://www.w3.org/2000/svg" xmlns:xlink="http://www.w3.org/1999/xlink" version="1.1"><rect x="0" y="0" width="900" height="600" fill="#180608"></rect><defs><linearGradient id="grad1_0" x1="33.3%" y1="0%" x2="100%" y2="100%"><stop offset="20%" stop-color="#e30e24" stop-opacity="1"></stop><stop offset="80%" stop-color="#e30e24" stop-opacity="1"></stop></linearGradient></defs><defs><linearGradient id="grad1_1" x1="33.3%" y1="0%" x2="100%" y2="100%"><stop offset="20%" stop-color="#e30e24" stop-opacity="1"></stop><stop offset="80%" stop-color="#180608" stop-opacity="1"></stop></linearGradient></defs><defs><linearGradient id="grad2_0" x1="0%" y1="0%" x2="66.7%" y2="100%"><stop offset="20%" stop-color="#e30e24" stop-opacity="1"></stop><stop offset="80%" stop-color="#e30e24" stop-opacity="1"></stop></linearGradient></defs><defs><linearGradient id="grad2_1" x1="0%" y1="0%" x2="66.7%" y2="100%"><stop offset="20%" stop-color="#180608" stop-opacity="1"></stop><stop offset="80%" stop-color="#e30e24" stop-opacity="1"></stop></linearGradient></defs><g transform="translate(900, 0)"><path d="M0 486.7C-49.3 450.1 -98.5 413.5 -164.6 397.3C-230.6 381 -313.4 385 -344.2 344.2C-374.9 303.3 -353.6 217.5 -368.6 152.7C-383.7 87.8 -435.2 43.9 -486.7 0L0 0Z" fill="#791223"></path><path d="M0 243.4C-24.6 225.1 -49.3 206.8 -82.3 198.6C-115.3 190.5 -156.7 192.5 -172.1 172.1C-187.5 151.7 -176.8 108.8 -184.3 76.3C-191.9 43.9 -217.6 22 -243.4 0L0 0Z" fill="#e30e24"></path></g><g transform="translate(0, 600)"><path d="M0 -486.7C66.9 -483.7 133.7 -480.7 186.3 -449.7C238.8 -418.7 277 -359.8 308.3 -308.3C339.6 -256.8 364.1 -212.8 392.6 -162.6C421.2 -112.5 454 -56.2 486.7 0L0 0Z" fill="#791223"></path><path d="M0 -243.4C33.4 -241.9 66.9 -240.3 93.1 -224.8C119.4 -209.4 138.5 -179.9 154.1 -154.1C169.8 -128.4 182 -106.4 196.3 -81.3C210.6 -56.2 227 -28.1 243.4 0L0 0Z" fill="#e30e24"></path></g></svg>