<svg id="visual" viewBox="0 0 675 900" width="675" height="900" xmlns="http://www.w3.org/2000/svg" xmlns:xlink="http://www.w3.org/1999/xlink" version="1.1"><rect x="0" y="0" width="675" height="900" fill="#180608"></rect><defs><linearGradient id="grad1_0" x1="0%" y1="0%" x2="100%" y2="100%"><stop offset="30%" stop-color="#e30e24" stop-opacity="1"></stop><stop offset="70%" stop-color="#e30e24" stop-opacity="1"></stop></linearGradient></defs><defs><linearGradient id="grad1_1" x1="0%" y1="0%" x2="100%" y2="100%"><stop offset="30%" stop-color="#e30e24" stop-opacity="1"></stop><stop offset="70%" stop-color="#180608" stop-opacity="1"></stop></linearGradient></defs><defs><linearGradient id="grad2_0" x1="0%" y1="0%" x2="100%" y2="100%"><stop offset="30%" stop-color="#e30e24" stop-opacity="1"></stop><stop offset="70%" stop-color="#e30e24" stop-opacity="1"></stop></linearGradient></defs><defs><linearGradient id="grad2_1" x1="0%" y1="0%" x2="100%" y2="100%"><stop offset="30%" stop-color="#180608" stop-opacity="1"></stop><stop offset="70%" stop-color="#e30e24" stop-opacity="1"></stop></linearGradient></defs><g transform="translate(675, 0)"><path d="M0 506.3C-57.8 482.7 -115.5 459.1 -182.2 439.8C-248.8 420.4 -324.4 405.3 -358 358C-391.6 310.6 -383.2 231.1 -401 166.1C-418.7 101.1 -462.5 50.5 -506.2 0L0 0Z" fill="#791223"></path><path d="M0 253.1C-28.9 241.3 -57.8 229.6 -91.1 219.9C-124.4 210.2 -162.2 202.6 -179 179C-195.8 155.3 -191.6 115.6 -200.5 83C-209.3 50.5 -231.2 25.3 -253.1 0L0 0Z" fill="#e30e24"></path></g><g transform="translate(0, 900)"><path d="M0 -506.2C71.2 -505 142.4 -503.7 193.7 -467.7C245.1 -431.7 276.6 -361 306.2 -306.2C335.7 -251.4 363.3 -212.5 396.3 -164.2C429.4 -115.8 467.8 -57.9 506.3 0L0 0Z" fill="#791223"></path><path d="M0 -253.1C35.6 -252.5 71.2 -251.9 96.9 -233.9C122.5 -215.9 138.3 -180.5 153.1 -153.1C167.9 -125.7 181.7 -106.3 198.2 -82.1C214.7 -57.9 233.9 -28.9 253.1 0L0 0Z" fill="#e30e24"></path></g></svg>